<?xml version="1.0" encoding="UTF-8"?>
<svg id="Layer_1" data-name="Layer 1" xmlns="http://www.w3.org/2000/svg" viewBox="0 0 552.86 505.55">
  <defs>
    <style>
      .cls-1 {
        fill: none;
        stroke: #355162;
        stroke-linecap: round;
        stroke-linejoin: round;
        stroke-width: 3px;
      }
    </style>
  </defs>
  <g>
    <g>
      <path class="cls-1" d="m95.12,57.47c7.6.15,15.04-2.43,21.78-5.95,3.61-1.89,7.4-4.12,11.45-3.71,6.41.65,11.22,7.73,17.63,7.12,5.07-.49,9.06-5.8,14.13-5.24,3.32.37,5.76,3.15,8.51,5.02,3.63,2.47,8.22,3.48,12.54,2.75,3.13-.52,6.57-1.86,9.27-.2,2.05,1.26,2.84,3.77,4.04,5.86,1.77,3.07,4.71,5.44,8.09,6.51,2.79.88,5.85.91,8.48,2.19,2.57,1.25,4.43,3.56,6.21,5.79,3.46,4.35,6.92,8.7,10.39,13.04,4.24,5.33,8.94,10.96,15.52,12.73,2.25.61,4.84.66,6.74-.69,2.22-1.57,2.9-4.51,3.27-7.2,1.61-11.64,0-24.74-8.51-32.85-2.35-2.23-5.14-4.01-7.16-6.54-1.98-2.48-3.1-5.51-4.32-8.43-2.32-5.52-5.16-10.83-8.46-15.84-2.24-3.4-4.77-6.72-8.19-8.92-4.92-3.16-11.04-3.61-16.69-5.14-15.33-4.17-28.45-16.8-44.32-16.27-6.87.23-13.37,2.97-19.78,5.45-10.06,3.89-20.34,7.24-30.76,10.02-7.8,2.08-15.95,3.97-22.27,9-6.24,4.97-9.25,13.13-7.12,20.91,2.04,7.42,12.71,10.45,19.52,10.58Z"/>
      <path class="cls-1" d="m163.39,7.86c3.67.72,7.28,1.69,10.81,2.91"/>
      <path class="cls-1" d="m178.41,12.83c2.72,1.13,5.44,2.26,8.17,3.4"/>
      <path class="cls-1" d="m241.89,65.06c2.38,2.44,4.3,5.33,5.62,8.47"/>
      <path class="cls-1" d="m249.29,78.43c.59,1.41.81,2.98.65,4.5"/>
      <path class="cls-1" d="m162.07,21.57c.95,2.09,2.13,4.2,4.04,5.48,1.91,1.29,4.71,1.51,6.39-.06.86,1.59,2.48,2.76,4.27,3.07,1.79.31,3.7-.24,5.05-1.46"/>
      <path class="cls-1" d="m200.81,29.52c.23,1.71,1.09,3.32,2.38,4.46.73.65,1.61,1.15,2.58,1.29.97.13,2.02-.15,2.68-.87.5,2.95,3.17,5.39,6.15,5.62"/>
      <path class="cls-1" d="m227.6,65.19c.06,1.39.77,2.68,1.61,3.8.68.91,1.49,1.79,2.55,2.21,1.06.42,2.41.27,3.14-.61.2,2.7,2.11,5.19,4.66,6.09"/>
      <path class="cls-1" d="m198.57,44.15c.64,1.49,1.44,2.98,2.7,4,1.27,1.02,3.09,1.48,4.55.77.62,1.93,1.99,3.62,3.75,4.63,1.01.58,2.42.89,3.25.07"/>
      <path class="cls-1" d="m168.24,28.08c.59,2.09,2.07,4.04,4.14,4.7,2.07.66,4.68-.33,5.4-2.38.91,2.59,3.69,4.38,6.42,4.15"/>
      <path class="cls-1" d="m206.66,29.88c.18,1.15.52,2.3,1.22,3.24.69.94,1.78,1.63,2.95,1.63,1.29,0,2.42-.82,3.41-1.63.01,2.24,2.35,4.16,4.55,3.74"/>
      <path class="cls-1" d="m146.26,35.57c.92,1.17,1.88,2.36,3.16,3.11,1.28.76,2.97,1.01,4.25.25,1.01-.6,1.6-1.69,2.14-2.73.51,1.36,1.69,2.44,3.09,2.83s2.97.08,4.11-.82"/>
      <path class="cls-1" d="m120.3,22.09c.83.64,1.68,1.29,2.64,1.69s2.09.56,3.06.18c1.34-.52,2.15-1.89,2.61-3.25,1.27,1.45,2.86,2.77,4.77,3.08,1.91.31,4.13-.73,4.58-2.61"/>
      <path class="cls-1" d="m146.54,42.9c1.11.34,2.36-.06,3.25-.81.89-.75,1.45-1.82,1.84-2.92.95,1.24,1.98,2.46,3.31,3.28s2.99,1.22,4.48.74"/>
      <path class="cls-1" d="m107.33,38.12c1.42,1.17,3.18,2.07,5.02,1.95s3.66-1.49,3.81-3.32c1.44,1.48,3.2,2.86,5.26,3.03s4.35-1.36,4.3-3.43c.72,1.03,1.97,1.68,3.24,1.67,1.26-.01,2.5-.68,3.2-1.73"/>
      <path class="cls-1" d="m88.53,33.07c.92,1.29,2.64,1.95,4.18,1.61,1.54-.35,2.82-1.68,3.1-3.23.03-.18.09-.4.26-.44.17-.04.32.13.42.27,1.36,1.86,4.23,2.39,6.17,1.14"/>
      <path class="cls-1" d="m117.38,26.91c.94,1.37,2.73,2.1,4.36,1.77,1.63-.33,3-1.7,3.33-3.33.82,1.09,1.91,2.02,3.2,2.44,1.3.42,2.82.26,3.88-.59"/>
      <path class="cls-1" d="m201.5,48.88c-.4,1.98.43,4.16,2.06,5.36,1.63,1.2,3.96,1.36,5.73.4.3.97.61,1.96,1.15,2.82.54.87,1.34,1.61,2.33,1.87"/>
      <path class="cls-1" d="m231.31,70.82c-.66,1.65-.17,3.69,1.16,4.87,1.33,1.18,3.41,1.42,4.97.57-.19,1.74.77,3.54,2.31,4.36"/>
      <path class="cls-1" d="m92.77,35.85c1.18,1.2,3.05,1.68,4.67,1.19s2.91-1.92,3.23-3.57c.87,1.11,2.28,1.76,3.68,1.69"/>
      <path class="cls-1" d="m109.26,44.31c2.01-.36,3.09-2.51,3.87-4.4.96,1.11,2.05,2.15,3.37,2.79,1.32.65,2.89.88,4.28.37s2.5-1.82,2.53-3.29c1.14,1.88,3.52,2.91,5.67,2.45"/>
      <path class="cls-1" d="m127.42,13.38c1.96-.82,3.91-1.64,5.87-2.46"/>
      <path class="cls-1" d="m135.9,9.96c1.18-.26,2.33-.65,3.42-1.17"/>
      <path class="cls-1" d="m78.7,43.88c-.08,2.99,1.98,5.92,4.82,6.86"/>
      <path class="cls-1" d="m88.08,53.35c1.02.6,2.29.78,3.44.49"/>
      <path class="cls-1" d="m232.61,91.89c2.23,2.47,4.78,4.65,7.56,6.48"/>
      <path class="cls-1" d="m243.11,99.65c.92.41,1.97.52,2.95.3"/>
    </g>
    <path class="cls-1" d="m75.6,46.89S14.08,70.11,3.9,190.41c-10.17,120.3,10.41,203.49,91.69,227.43,81.28,23.94,129.42-42.57,133.15-61.73"/>
    <path class="cls-1" d="m159.54,177.03c15.84,45.41,15.03,96.42-2.24,141.3"/>
    <path class="cls-1" d="m245.6,104.23c4.51,22.32,2.53,46.77-9.88,65.85-12.41,19.09-48.93,30.03-70.98,24.37"/>
    <path class="cls-1" d="m167.36,206.49c16.93,19.69,44.84,24.34,63.75,42.15,13.74,12.95,21.22,31.43,24.21,50.07,2.99,18.64,1.87,37.66.74,56.51-2.75,45.87-5.02,96.92-7.76,142.79-7.72,8.42-15.4,7.68-23.04,0,1.57-9.93,1.93-20.01,2.23-30.06.99-32.9,1.46-65.82,1.4-98.74-.03-14.09-.58-28.21-2.97-42.09-5.75-33.36-42.5-53.79-56.44-51.8"/>
    <path class="cls-1" d="m238.22,262.94c5.56,7.02,9.44,15.36,11.24,24.13"/>
    <path class="cls-1" d="m250.27,292.89c.4,2.51.8,5.02,1.21,7.53"/>
    <path class="cls-1" d="m166.37,221.51c.75,6.84,1.08,13.73.98,20.61"/>
    <path class="cls-1" d="m167.21,248.78c-.34,5.46-1.07,10.89-2.19,16.25"/>
    <path class="cls-1" d="m43.14,376.38c13.93,17.66,34.17,30.24,56.17,34.92"/>
    <path class="cls-1" d="m105.16,412.88c4.88.66,9.79,1.04,14.71,1.16"/>
    <path class="cls-1" d="m20.41,137.39c-3.67,11.47-6.34,23.25-7.93,35.19"/>
    <path class="cls-1" d="m39.05,95.72c-5.01,8.54-9.41,17.43-13.16,26.6"/>
    <path class="cls-1" d="m58.7,67.88c-3.74,4.45-7.28,9.06-10.63,13.81"/>
    <path class="cls-1" d="m232.7,166.18c4.2-5.4,5.91-12.27,7.53-18.92"/>
    <path class="cls-1" d="m241.18,144.23c.53-3.5,1.06-7,1.59-10.51"/>
    <path class="cls-1" d="m241.18,109.65c.8,2.58,1.23,5.27,1.29,7.96"/>
    <path class="cls-1" d="m180.86,191c3.28.37,6.63.08,9.81-.83"/>
    <path class="cls-1" d="m212.72,377.14c3.8-4.76,7.01-9.98,9.55-15.51"/>
    <path class="cls-1" d="m230.06,497.42c1.73,1.67,4.17,2.56,6.57,2.4"/>
    <path class="cls-1" d="m240.22,499.98c1.22.08,2.46-.58,3.07-1.63"/>
  </g>
  <g>
    <g>
      <path class="cls-1" d="m457.74,57.47c-7.61.15-15.04-2.43-21.78-5.95-3.61-1.89-7.4-4.12-11.45-3.71-6.41.65-11.22,7.73-17.63,7.12-5.07-.49-9.06-5.8-14.13-5.24-3.32.37-5.75,3.15-8.51,5.02-3.63,2.47-8.22,3.48-12.54,2.75-3.13-.52-6.57-1.86-9.27-.2-2.05,1.26-2.84,3.77-4.04,5.86-1.77,3.07-4.71,5.44-8.09,6.51-2.79.88-5.85.91-8.48,2.19-2.57,1.25-4.43,3.56-6.21,5.79-3.46,4.35-6.92,8.7-10.39,13.04-4.24,5.33-8.94,10.96-15.52,12.73-2.25.61-4.84.66-6.74-.69-2.22-1.57-2.9-4.51-3.27-7.2-1.61-11.64,0-24.74,8.51-32.85,2.35-2.23,5.14-4.01,7.16-6.54,1.98-2.48,3.1-5.51,4.32-8.43,2.32-5.52,5.16-10.83,8.46-15.84,2.24-3.4,4.77-6.72,8.19-8.92,4.92-3.16,11.04-3.61,16.69-5.14,15.33-4.17,28.45-16.8,44.32-16.27,6.87.23,13.37,2.97,19.78,5.45,10.06,3.89,20.34,7.24,30.76,10.02,7.8,2.08,15.95,3.97,22.27,9,6.24,4.97,9.25,13.13,7.12,20.91-2.04,7.42-12.71,10.45-19.52,10.58Z"/>
      <path class="cls-1" d="m389.47,7.86c-3.67.72-7.28,1.69-10.81,2.91"/>
      <path class="cls-1" d="m374.45,12.83c-2.72,1.13-5.44,2.26-8.17,3.4"/>
      <path class="cls-1" d="m310.97,65.06c-2.38,2.44-4.3,5.33-5.62,8.47"/>
      <path class="cls-1" d="m303.57,78.43c-.59,1.41-.81,2.98-.65,4.5"/>
      <path class="cls-1" d="m390.79,21.57c-.95,2.09-2.13,4.2-4.04,5.48-1.91,1.29-4.71,1.51-6.39-.06-.86,1.59-2.48,2.76-4.27,3.07-1.79.31-3.7-.24-5.05-1.46"/>
      <path class="cls-1" d="m352.05,29.52c-.23,1.71-1.09,3.32-2.38,4.46-.73.65-1.62,1.15-2.58,1.29-.97.13-2.02-.15-2.68-.87-.5,2.95-3.17,5.39-6.15,5.62"/>
      <path class="cls-1" d="m325.27,65.19c-.06,1.39-.77,2.68-1.61,3.8-.68.91-1.49,1.79-2.55,2.21-1.06.42-2.41.27-3.14-.61-.2,2.7-2.11,5.19-4.66,6.09"/>
      <path class="cls-1" d="m354.29,44.15c-.64,1.49-1.44,2.98-2.7,4-1.27,1.02-3.09,1.48-4.55.77-.62,1.93-1.99,3.62-3.75,4.63-1.01.58-2.42.89-3.25.07"/>
      <path class="cls-1" d="m384.62,28.08c-.59,2.09-2.07,4.04-4.14,4.7-2.07.66-4.68-.33-5.4-2.38-.91,2.59-3.69,4.38-6.42,4.15"/>
      <path class="cls-1" d="m346.2,29.88c-.18,1.15-.52,2.3-1.22,3.24-.69.94-1.78,1.63-2.95,1.63-1.29,0-2.42-.82-3.41-1.63-.01,2.24-2.35,4.16-4.55,3.74"/>
      <path class="cls-1" d="m406.6,35.57c-.92,1.17-1.88,2.36-3.16,3.11-1.28.76-2.97,1.01-4.25.25-1.01-.6-1.6-1.69-2.14-2.73-.51,1.36-1.69,2.44-3.09,2.83s-2.97.08-4.11-.82"/>
      <path class="cls-1" d="m432.57,22.09c-.83.64-1.68,1.29-2.64,1.69s-2.09.56-3.06.18c-1.34-.52-2.15-1.89-2.61-3.25-1.27,1.45-2.86,2.77-4.77,3.08s-4.13-.73-4.58-2.61"/>
      <path class="cls-1" d="m406.32,42.9c-1.11.34-2.36-.06-3.25-.81-.89-.75-1.45-1.82-1.84-2.92-.95,1.24-1.98,2.46-3.31,3.28-1.33.82-2.99,1.22-4.48.74"/>
      <path class="cls-1" d="m445.54,38.12c-1.42,1.17-3.18,2.07-5.02,1.95s-3.66-1.49-3.81-3.32c-1.44,1.48-3.2,2.86-5.26,3.03s-4.35-1.36-4.3-3.43c-.72,1.03-1.97,1.68-3.24,1.67-1.26-.01-2.5-.68-3.2-1.73"/>
      <path class="cls-1" d="m464.34,33.07c-.92,1.29-2.64,1.95-4.18,1.61-1.54-.35-2.82-1.68-3.1-3.23-.03-.18-.09-.4-.26-.44-.17-.04-.32.13-.42.27-1.36,1.86-4.23,2.39-6.17,1.14"/>
      <path class="cls-1" d="m435.49,26.91c-.94,1.37-2.73,2.1-4.36,1.77-1.63-.33-3-1.7-3.33-3.33-.82,1.09-1.91,2.02-3.2,2.44-1.3.42-2.82.26-3.88-.59"/>
      <path class="cls-1" d="m351.37,48.88c.4,1.98-.43,4.16-2.06,5.36-1.63,1.2-3.96,1.36-5.73.4-.3.97-.61,1.96-1.15,2.82s-1.34,1.61-2.33,1.87"/>
      <path class="cls-1" d="m321.55,70.82c.66,1.65.17,3.69-1.16,4.87-1.33,1.18-3.41,1.42-4.97.57.19,1.74-.77,3.54-2.31,4.36"/>
      <path class="cls-1" d="m460.1,35.85c-1.18,1.2-3.05,1.68-4.67,1.19-1.62-.49-2.91-1.92-3.23-3.57-.87,1.11-2.28,1.76-3.68,1.69"/>
      <path class="cls-1" d="m443.6,44.31c-2.01-.36-3.09-2.51-3.87-4.4-.96,1.11-2.05,2.15-3.37,2.79-1.32.65-2.89.88-4.28.37-1.38-.5-2.5-1.82-2.53-3.29-1.14,1.88-3.52,2.91-5.67,2.45"/>
      <path class="cls-1" d="m425.44,13.38c-1.96-.82-3.91-1.64-5.87-2.46"/>
      <path class="cls-1" d="m416.96,9.96c-1.18-.26-2.33-.65-3.42-1.17"/>
      <path class="cls-1" d="m474.16,43.88c.08,2.99-1.98,5.92-4.82,6.86"/>
      <path class="cls-1" d="m464.78,53.35c-1.02.6-2.29.78-3.44.49"/>
      <path class="cls-1" d="m320.25,91.89c-2.23,2.47-4.78,4.65-7.56,6.48"/>
      <path class="cls-1" d="m309.75,99.65c-.92.41-1.97.52-2.95.3"/>
    </g>
    <path class="cls-1" d="m477.27,46.89s61.52,23.23,71.7,143.52c10.17,120.3-10.41,203.49-91.69,227.43-81.28,23.94-129.42-42.57-133.15-61.73"/>
    <path class="cls-1" d="m472.87,52.92s58.19,22.48,67.81,138.92c9.62,116.44-9.85,196.96-86.72,220.13-76.88,23.17-125.76-46.7-129.29-65.24"/>
    <path class="cls-1" d="m307.26,104.23c-4.51,22.32-2.53,46.77,9.88,65.85,12.41,19.09,48.93,30.03,70.98,24.37,9.05-2.32,12.34-10.05,16.53-18.4"/>
    <path class="cls-1" d="m399.88,185.07c-18.58,38.02-59.22,45.75-78.13,63.56-13.74,12.95-21.22,31.43-24.21,50.07-2.99,18.64-1.87,37.66-.74,56.51,2.75,45.87,5.02,96.92,7.76,142.79,7.72,8.42,15.4,7.68,23.04,0-1.57-9.93-1.93-20.01-2.23-30.06-.99-32.9-1.46-65.82-1.4-98.74.03-14.09.58-28.21,2.97-42.09,5.75-33.36,42.5-53.79,56.44-51.8,2.94.42,5.57,2.82,7.72,4.88,4.31,4.12,5.53,10.44,6.31,16.35.69,5.26,1.2,10.54,1.54,15.83"/>
    <path class="cls-1" d="m314.97,100.59c-4.37,18.79-3.93,39.09,3.87,56.74,7.8,17.64,22.9,31.47,50.05,38.34"/>
    <path class="cls-1" d="m404.65,176.05c-.81,3.64-3.65,13.09-5.38,16.39-2.86,5.42-5.74,10.87-9.51,15.71-12.43,15.93-32.7,23.1-49.5,34.32-8.42,5.63-16.5,13.03-18.96,22.85-.93,3.7-.98,7.68.35,11.25,1.33,3.57,4.17,6.66,7.8,7.82,3.39,1.08,7.09.44,10.5-.57,11.51-3.41,21.56-10.86,33.2-13.82,5.02-1.28,10.51-1.64,15.24.45,7.25,3.21,11.02,11.4,12.24,19.24,1.22,7.84.49,15.44,1.98,23.23"/>
    <g>
      <path class="cls-1" d="m398.97,312.37l6.67,1.02s3.38-20.19,15.55-22.67,22.32,3.38,22.32,3.38l4.73-4.28s-6.09-11.5-5.86-25.47c.23-13.98,20.51-20.06,20.51-20.06l-2.48-9.35s-10.64,0-15.78-9.36c-8.7-15.83,0-29.91,0-29.91l-4.06-4.35s-5.18,8.57-17.58,3.16c-12.4-5.41-12.85-19.16-12.85-19.16l-5.5.74"/>
      <path class="cls-1" d="m410.15,175.31c0,1.1-12.46,31.11-.98,38.62,11.48,7.51,31.41-22.61,31.41-22.61,0,0-20.85,23.64-29.11,18.2-8.39-5.52-1.32-34.21-1.32-34.21Z"/>
      <path class="cls-1" d="m444.64,195.66s-21.28,17.51-18.12,29.54c3.17,12.03,33.89,9.73,33.89,9.73,0,0-25.29-1.63-28.83-11.16-3.54-9.53,13.05-28.11,13.05-28.11Z"/>
      <path class="cls-1" d="m462.9,244.28s-26.55-6.2-35.63,2.31c-9.07,8.51,20.98,43.23,20.98,43.23,0,0-24.01-31.81-17.31-39.45,6.7-7.64,31.96-6.08,31.96-6.08Z"/>
      <path class="cls-1" d="m443.51,294.1s-17.31-27.43-28.86-24.3c-12.01,3.26-9.01,43.59-9.01,43.59,0,0,1.85-35.06,11.48-38.32,8.44-2.86,26.39,19.03,26.39,19.03Z"/>
    </g>
    <g>
      <path class="cls-1" d="m404.65,176.05l5.5-.74s57.15-34.93,44.15-69.9c-13-34.97-107.06-33.93-107.14,12.2-.06,34.14,57.49,58.44,57.49,58.44Z"/>
      <path class="cls-1" d="m404.65,176.05l5.5-.74s44.53-35.1,34.15-63.03c-10.38-27.93-85.5-27.1-85.57,9.75-.05,27.27,45.92,54.03,45.92,54.03Z"/>
      <path class="cls-1" d="m376.29,128.67c5.57,15,17.1,36,28.36,47.38"/>
      <path class="cls-1" d="m393.54,122.77c2.82,14.88,7.81,38.16,12.59,52.54"/>
      <path class="cls-1" d="m420.78,126.9c.2,14.77-5.88,35.4-12.42,48.65.36-14.98.89-37.49-1.16-52.34"/>
      <path class="cls-1" d="m432.93,131.08c-3.4,13.27-14.42,33.38-22.78,44.23"/>
      <path class="cls-1" d="m361.25,124.61c-.36-5.34,1.37-10.8,4.75-14.95"/>
      <path class="cls-1" d="m368.6,107.37c.66-1.25,1.67-2.31,2.88-3.05"/>
      <path class="cls-1" d="m442.23,95.18c5.13,3.14,8.83,8.53,9.92,14.45"/>
      <path class="cls-1" d="m452.71,112.99c.33,1.15.37,2.39.1,3.56"/>
    </g>
    <g>
      <path class="cls-1" d="m440.58,191.31l4.06,4.35s48.39,10.68,66.15-13.12c17.76-23.81-19.71-72.84-49.87-50.51-22.32,16.52-20.33,59.28-20.33,59.28Z"/>
      <path class="cls-1" d="m442,193.13l2.64,2.54s43.57,3.95,57.75-15.06c14.18-19.01-15.74-58.18-39.83-40.34-17.83,13.2-20.56,52.86-20.56,52.86Z"/>
      <path class="cls-1" d="m465.09,152.74c-7.62,10.21-20.05,28.94-23.08,40.39"/>
      <path class="cls-1" d="m475.68,158.96c-8.62,8.7-25.1,25.1-32.62,34.59"/>
      <path class="cls-1" d="m483.64,175.31c-9.57,7.27-28.65,16.55-39.86,19.53,9.93-7.08,28.07-20.19,36.96-28.47"/>
      <path class="cls-1" d="m485.66,183.73c-10,4.64-30.67,11.07-41.02,11.93"/>
      <path class="cls-1" d="m462.9,144.47c3.35-2.78,7.59-4.52,11.62-4.75"/>
      <path class="cls-1" d="m477.03,139.98c1.08-.26,2.16-.24,3.12.04"/>
      <path class="cls-1" d="m510.96,171.22c-.04,4.23-2.11,8.79-5.56,12.23"/>
      <path class="cls-1" d="m503.44,185.38c-.62.73-1.42,1.35-2.29,1.78"/>
    </g>
    <g>
      <path class="cls-1" d="m460.42,234.93l2.48,9.35s27.74,37.19,54.08,28.77c26.34-8.43,27.81-75.7-6.53-76.9-25.41-.89-50.03,38.79-50.03,38.79Z"/>
      <path class="cls-1" d="m460.42,234.93l2.48,9.35s28.17,28.18,49.21,21.45c21.04-6.73,22.21-60.46-5.21-61.42-20.29-.71-46.47,30.62-46.47,30.62Z"/>
      <path class="cls-1" d="m501.52,216.7c-11.3,3.61-31.73,12.86-40.47,20.62"/>
      <path class="cls-1" d="m505.5,229.17c-11.15,1.65-32.55,6.18-43.37,9.24"/>
      <path class="cls-1" d="m501.78,248.55c-11-.23-29.93-5.14-39.64-10.14,11.14.63,31.61,1.62,42.71.53"/>
      <path class="cls-1" d="m498.38,257.13c-9.8-2.76-28.23-11.19-36.1-17.44"/>
      <path class="cls-1" d="m506.46,208.89c3.98-.13,8.01,1.25,11.02,3.77"/>
      <path class="cls-1" d="m519.12,214.58c.91.51,1.68,1.25,2.2,2.14"/>
      <path class="cls-1" d="m524.34,263.17c-2.46,3.59-6.56,6.1-10.99,6.73"/>
      <path class="cls-1" d="m510.84,270.22c-.87.21-1.79.2-2.65-.02"/>
    </g>
    <g>
      <path class="cls-1" d="m405.31,312.93l-6.34-.55s-44.05,25.22-40.82,52.69c3.24,27.46,68.99,41.76,76.73,8.28,5.73-24.77-29.58-60.42-29.58-60.42Z"/>
      <path class="cls-1" d="m405.31,312.93l-6.34-.55s-35.29,27.37-32.7,49.3c2.59,21.93,55.1,33.35,61.28,6.61,4.58-19.78-22.24-55.36-22.24-55.36Z"/>
      <path class="cls-1" d="m416.42,360.65c-1.39-11.78-5.16-37.67-11.11-47.73"/>
      <path class="cls-1" d="m403.42,362.18c.51-11.26,1.17-37.59.23-48.79"/>
      <path class="cls-1" d="m385.11,354.82c2.32-10.76,10.73-33.32,17.49-41.89-2.75,10.82-7.6,35.64-8.64,46.74"/>
      <path class="cls-1" d="m377.33,349.84c4.58-9.09,15.89-30.77,23.53-37.31"/>
      <path class="cls-1" d="m424.41,365.13c-.64,3.94-2.75,7.62-5.8,10.09"/>
      <path class="cls-1" d="m416.42,376.47c-.67.8-1.55,1.41-2.52,1.75"/>
      <path class="cls-1" d="m365.58,373.73c-3.06-3.1-4.74-7.6-4.51-12.07"/>
      <path class="cls-1" d="m361.24,359.13c-.04-.89.14-1.79.52-2.6"/>
    </g>
    <g>
      <path class="cls-1" d="m448.25,289.82l-4.73,3.85s-7.87,56.02,18.55,70.55c26.42,14.53,80.78-34.75,55.98-62.83-18.35-20.78-69.8-11.57-69.8-11.57Z"/>
      <path class="cls-1" d="m448.25,289.82l-4.73,3.85s-.41,49.6,20.69,61.21c21.1,11.61,64.51-27.75,44.71-50.18-14.65-16.6-60.67-14.88-60.67-14.88Z"/>
      <path class="cls-1" d="m495.08,309.73c-11.33-6.24-36.67-16.76-49.37-17.86"/>
      <path class="cls-1" d="m488.2,322.23c-9.66-7.59-31.95-24.09-42.48-30.36"/>
      <path class="cls-1" d="m470.06,333.82c-8.07-8.88-21.03-30.51-24.35-41.94,7.86,9.29,25.07,29.2,34.26,37.16"/>
      <path class="cls-1" d="m460.72,337.56c-5.16-9.82-14.41-33.48-15.37-44.4"/>
      <path class="cls-1" d="m504.85,305.74c3.09,3.06,5.02,7.27,5.28,11.55"/>
      <path class="cls-1" d="m509.84,320.03c.28,1.1.27,2.27-.04,3.34"/>
      <path class="cls-1" d="m474.63,363.33c-4.69.75-9.75-.61-13.57-3.65"/>
      <path class="cls-1" d="m458.92,357.93c-.82-.53-1.5-1.26-1.98-2.11"/>
    </g>
  </g>
  <g>
    <path class="cls-1" d="m526.16,107.48c2.86,6.5,5.25,13.2,7.17,20.04"/>
    <path class="cls-1" d="m534.64,131.78c.82,2.27,1.49,4.58,2.03,6.93"/>
    <path class="cls-1" d="m317.56,123.53c-1.31,8.13-.55,16.58,2.19,24.34"/>
    <path class="cls-1" d="m321.52,152.97c1.06,2.38,2.28,4.69,3.66,6.9"/>
    <path class="cls-1" d="m477.88,396.93c6.34-3.64,12.26-7.99,17.64-12.94"/>
    <path class="cls-1" d="m499,380.7c2.16-1.48,4.05-3.36,5.53-5.51"/>
    <path class="cls-1" d="m335.98,358.82c2.42,5.34,5.42,10.41,8.93,15.11"/>
    <path class="cls-1" d="m350.47,380.65c1.33,1.26,2.66,2.52,4,3.78"/>
    <path class="cls-1" d="m303.54,401.37c-.25-7.15-.51-14.3-.76-21.45"/>
    <path class="cls-1" d="m302.85,375.08c-.17-2.64-.35-5.29-.52-7.93"/>
    <path class="cls-1" d="m321.32,441.98c.03,6.39.26,12.78.7,19.16"/>
    <path class="cls-1" d="m322.72,466.22c.51,1.92.56,3.95.15,5.89"/>
    <path class="cls-1" d="m308.68,497.06c2.12,2.26,5.02,3.76,8.09,4.18"/>
  </g>
</svg>