<?xml version="1.0" encoding="UTF-8"?>
<svg id="Layer_1" data-name="Layer 1" xmlns="http://www.w3.org/2000/svg" viewBox="0 0 331.59 396.55">
  <defs>
    <style>
      .cls-1 {
        fill: #fff;
      }

      .cls-1, .cls-2 {
        stroke-width: 0px;
      }

      .cls-2 {
        fill: #355162;
      }
    </style>
  </defs>
  <path class="cls-2" d="m233.22,22.33c43.79,17.64,75.74,61.57,79.02,108.66.99,14.23-.6,29.12-7.84,41.41-7.24,12.29-21.01,21.4-35.22,20.1-11.11-1.02-20.7-7.9-29.68-14.53-35.16-25.99-70.31-51.98-105.47-77.96-9.22-6.82-18.61-13.8-25.18-23.2-5.41-7.73-11.27-22.22-6.29-31.53,4.26-7.95,17.9-14.06,25.62-17.91,20.57-10.28,43.92-14.98,66.87-13.55,13.06.81,26.01,3.63,38.16,8.52Z"/>
  <path class="cls-2" d="m108.69,360.12h-4.01v-12.09c-1.78-35.84-17.3-50.81-26.39-56.54-10.97-6.91-13.83-7.53-22.32-9.37-2.37-.51-5.32-1.15-8.95-2.04-1.62-.4-3.26-.77-4.89-1.15-6.89-1.59-14.02-3.24-20.57-6.39-9.53-4.57-16.15-11.88-18.16-20.06-2.08-8.49,1.45-17.28,4.57-25.04.45-1.13.9-2.24,1.33-3.35,1.03-2.65.7-5.78-.86-8.16-.41-.63-.92-1.24-1.46-1.88-.78-.93-1.58-1.88-2.21-3.05-1.63-2.99-1.69-6.73-.15-9.76.77-1.52,2.12-2.95,3.71-4.04-1.06-.83-1.96-1.87-2.6-3.07-1.92-3.61-1.62-7.24.77-9.24,3.91-3.27,7.23-6.3,8.23-10.26.34-1.36.36-2.42.02-3.81-3.77-2.53-7.93-5.41-10.91-9.38-3.66-4.87-4.8-10.84-2.99-15.58,1.8-4.71,6.05-7.68,9.46-10.06,2.81-1.96,5.72-3.82,8.54-5.62,7.85-5,15.27-9.73,20.86-16.75,4.43-5.56,6.85-12.27,9.41-19.36,1.04-2.88,2.11-5.86,3.33-8.73,6.06-14.31,15.8-26.51,25.23-38.3,10.58-13.23,30.4-25.7,36.22-29.21C143.76-.14,167.99-.74,194.34.32c30.28,1.21,59.43,10.9,82.08,27.29,15.9,11.5,29.38,27,39,44.83,9.62,17.83,15.16,37.61,16.04,57.21.88,19.6-2.88,39.8-10.86,58.41-7.98,18.61-20.03,35.26-34.84,48.13-12.68,11.03-20.34,18.65-31.49,31.36-19.59,22.33-24.03,56.51-10.8,83.1l-3.59,1.79c-13.93-28.02-9.26-64.01,11.37-87.54,11.29-12.87,19.03-20.58,31.87-31.75,14.35-12.48,26.04-28.62,33.78-46.68,7.75-18.06,11.39-37.65,10.54-56.65-.85-19-6.23-38.19-15.56-55.48-9.33-17.3-22.41-32.33-37.82-43.48-22.02-15.93-50.4-25.35-79.89-26.53-31.14-1.25-51.78,1.04-78.22,16.96-5.68,3.42-25,15.57-35.16,28.27-9.26,11.58-18.83,23.55-24.67,37.36-1.17,2.77-2.23,5.69-3.25,8.52-2.56,7.09-5.2,14.42-10.04,20.5-6,7.54-14.06,12.67-21.84,17.63-2.78,1.77-5.66,3.61-8.4,5.52-3.63,2.54-6.75,4.91-8.01,8.21-1.59,4.14.22,8.78,2.45,11.73,2.74,3.64,6.72,6.3,10.56,8.88.39.26.68.65.81,1.1.72,2.43.78,4.35.2,6.62-1.4,5.54-6.11,9.48-9.55,12.35-.99.83-.59,2.8.2,4.28.86,1.61,2.59,2.78,4.4,2.97,1.01.11,1.78.95,1.8,1.97.02,1.02-.73,1.88-1.74,2.02-2.09.28-4.62,2.05-5.54,3.85-.93,1.85-.9,4.21.09,6.03.44.81,1.08,1.58,1.76,2.39.59.7,1.2,1.43,1.74,2.26,2.25,3.44,2.73,7.97,1.24,11.81-.43,1.12-.89,2.25-1.35,3.39-3.03,7.55-6.17,15.35-4.4,22.58,1.72,7.01,7.55,13.35,15.99,17.4,6.16,2.95,13.07,4.55,19.74,6.09,1.65.38,3.3.76,4.94,1.16,3.58.88,6.38,1.48,8.85,2.01,8.77,1.9,12.05,2.61,23.61,9.9,10.51,6.63,18.28,17.18,23.1,31.36,2.88,8.47,4.66,18.3,5.16,28.43,0,.03,0,.07,0,.1v12.14Z"/>
  <path class="cls-2" d="m97.57,147.97c-4.6,0-9.19-.95-13.46-2.85-8.3-3.7-15.34-10.98-19.3-19.99-.45-1.01.01-2.2,1.03-2.65,1.01-.45,2.2.01,2.65,1.03,3.57,8.1,9.86,14.64,17.26,17.94,7.34,3.27,15.79,3.34,23.18.2,1.02-.43,2.2.04,2.63,1.06.43,1.02-.04,2.2-1.06,2.63-4.11,1.75-8.52,2.62-12.92,2.62Z"/>
  <path class="cls-2" d="m243.14,396.55c-15.78,0-28.61-12.84-28.61-28.61s12.84-28.61,28.61-28.61,28.61,12.84,28.61,28.61-12.84,28.61-28.61,28.61Zm0-53.21c-13.56,0-24.6,11.04-24.6,24.6s11.04,24.6,24.6,24.6,24.6-11.04,24.6-24.6-11.04-24.6-24.6-24.6Z"/>
  <path class="cls-2" d="m243.14,386.36c-10.16,0-18.42-8.26-18.42-18.42s8.26-18.42,18.42-18.42,18.42,8.26,18.42,18.42-8.26,18.42-18.42,18.42Zm0-32.82c-7.94,0-14.41,6.46-14.41,14.4s6.46,14.4,14.41,14.4,14.4-6.46,14.4-14.4-6.46-14.4-14.4-14.4Z"/>
  <circle class="cls-2" cx="243.14" cy="367.94" r="13.05" transform="translate(-55.8 43.7) rotate(-9.22)"/>
  <g>
    <path class="cls-1" d="m294.85,126.27c-1.45-2.16-3.25-4.07-5.27-5.71,5.39-4.37,8.22-11.61,7.23-18.73-.98-7.02-5.67-13.78-12.25-17.63-4.97-2.91-10.91-4.23-16.83-3.82,2.52-4.26,3.54-9.53,2.73-14.76-.92-5.98-4.15-11.88-9.07-16.6-4.34-4.16-9.89-7.4-16.49-9.64-7.18-2.43-14.37-3.18-20.8-2.18-7.13,1.12-13.55,4.53-17.74,9.39-.64-.21-1.29-.37-1.94-.5.13-3.41-1.04-7.02-3.33-10.15-2.19-2.98-5.37-5.56-9.45-7.66-6.01-3.1-12.67-4.48-18.75-3.86-6.75.68-12.86,3.8-16.77,8.56-3.7,4.51-5.24,10.41-4.27,15.88-5.27-3.01-11.76-3.93-17.57-2.35-6.78,1.84-12.32,6.95-14.46,13.35-2.16,6.46-.66,14.05,3.81,19.34.31.37.64.72.97,1.06-5.67,4.25-8.89,11.53-8.09,18.54.85,7.46,6.23,14.48,13.4,17.46.25.1.5.2.76.3,3.04,1.1,6.85,1.54,10.05.21-1.1,5,.16,10.62,3.53,15.03,2.56,3.36,6.29,5.98,10.53,7.52,1.89.69,3.89,1.15,5.93,1.37,4.3.46,8.34-.18,11.68-1.85,1.47-.74,2.78-1.68,3.9-2.76.15,4.41,1.51,8.68,3.99,12.27,2.58,3.73,6.32,6.55,10.47,8.06,1.64.59,3.34.97,5.05,1.12.08.11.17.21.28.3,8.9,7.27,14.75,18.25,15.65,29.38l.04.48c.14,1.78.29,3.81,1.45,5.56.81,1.23,2.06,2.15,3.47,2.66,1.5.54,3.19.63,4.74.14,2.08-.66,3.88-2.22,5.51-4.77.36-.56.69-1.13,1.02-1.71.51-.87.99-1.7,1.55-2.46,2.42,2.29,5.48,4.14,9.02,5.42.31.11.63.22.95.33,4.48,1.46,8.91,1.79,12.81.95,4.82-1.04,9.11-3.93,11.76-7.94,2.59-3.91,3.55-8.78,2.66-13.42.08-.02.15-.03.23-.04,4.77-1.09,8.57-5.07,9.47-9.92,3.89.76,8.19.03,11.82-2.02,3.32-1.88,6.12-4.8,8.09-8.45,4.28-7.96,3.71-18.07-1.47-25.75Zm-70.58,63.38c-1.23,1.94-2.5,3.09-3.87,3.52-1.66.52-3.66-.14-4.55-1.5-.72-1.09-.83-2.56-.95-4.12l-.04-.49c-.89-11.02-6.32-21.91-14.66-29.65,3.39-.51,6.54-1.94,9.03-4.06.03,1.57.29,3.15.78,4.67,1.43,4.49,4.81,8.59,9.27,11.25,1.2.72,2.45,1.31,3.71,1.77.37.14.75.25,1.12.36-1.04,4.39.17,9.34,3.27,13.37-.84,1.05-1.51,2.17-2.15,3.28-.31.54-.63,1.08-.96,1.61Zm69.28-39.08c-1.7,3.16-4.1,5.68-6.93,7.28-3.03,1.71-6.59,2.31-9.78,1.66-.08-.02-.15-.02-.22-.02-.18-3.55-1.77-7.08-4.46-9.77,2.67-2.91,3.92-7.09,3.05-10.97-.18-.82-1.02-1.36-1.86-1.2-.84.16-1.38.95-1.19,1.77.86,3.82-.99,8.04-4.39,10.02-3.4,1.98-8.16,1.62-11.32-.86-.68-.53-1.66-.44-2.19.2s-.42,1.6.26,2.13c1.08.85,2.29,1.5,3.58,1.97,3.7,1.34,8,1.1,11.33-.83.14-.08.27-.17.4-.26,2.78,2.7,4.17,6.65,3.54,10.15-.66,3.68-3.62,6.82-7.19,7.63-3.67.84-7.83-.86-9.68-3.96-.44-.73-1.39-1-2.14-.59-.74.4-.99,1.33-.56,2.06,1.36,2.28,3.63,4.01,6.21,4.95,1.16.42,2.38.67,3.61.75.83,3.97.04,8.17-2.18,11.52-2.22,3.36-5.82,5.79-9.87,6.66-3.35.72-7.2.42-11.13-.86-3.11-1.01-7.47-3.05-10.5-6.94-2.57-3.29-3.6-7.48-2.74-11,2.56.32,5.08.1,7.32-.73,5.46-2.01,8.76-7.6,7.51-12.72-.2-.82-1.04-1.34-1.88-1.17-.84.17-1.36.98-1.16,1.8.89,3.63-1.64,7.79-5.64,9.26-3.67,1.35-8.33.69-12.46-1.78-3.8-2.27-6.67-5.74-7.87-9.51-1.27-3.98-.63-8.38,1.67-11.47.5-.67.33-1.62-.37-2.12-.7-.5-1.68-.36-2.18.31-.65.88-1.19,1.84-1.62,2.85-.05.07-.1.15-.14.23-2.26,4.62-7.74,7.75-13.33,7.6-5.46-.14-10.87-3.16-14.13-7.87-3.07-4.44-4.18-10.37-2.98-15.88.05-.22.04-.44-.01-.65.03-.09.07-.18.09-.28.21-.81-.31-1.64-1.14-1.86-.84-.22-1.69.25-1.89,1.06-.75,2.89-3.01,5.53-6.04,7.05-2.8,1.4-6.23,1.94-9.92,1.54-5.73-.62-11.05-3.47-14.23-7.64-3.39-4.44-4.25-10.3-2.21-14.95.02-.05.03-.1.05-.14.98.64,2.05,1.2,3.19,1.61.02,0,.04.01.05.02,3.29,1.18,7.17,1.38,11.2.57.84-.17,1.36-.97,1.17-1.79-.19-.82-1.03-1.35-1.87-1.18-3.46.69-6.74.54-9.48-.44-3.05-1.08-5.51-3.32-6.51-5.92-1.05-2.73-.34-5.94,1.68-7.63.64-.54.7-1.5.13-2.14-.57-.64-1.56-.72-2.21-.18-2.99,2.51-4.03,7.01-2.52,10.94.54,1.42,1.41,2.74,2.5,3.91-.34.01-.67.12-.94.34-2.7,2.23-7.03,1.63-9.91.43-6.13-2.55-10.73-8.55-11.46-14.94-.7-6.19,2.26-12.62,7.4-16.19,1.68,1.25,3.53,2.25,5.5,2.96,3.23,1.17,6.72,1.57,10.1,1.05.85-.13,1.41-.91,1.25-1.73-.16-.83-.97-1.39-1.82-1.26-5.76.89-12.2-1.55-16.02-6.06-3.8-4.49-5.07-10.95-3.23-16.45,1.83-5.47,6.58-9.85,12.39-11.43,5.81-1.58,12.42-.26,17.25,3.44.69.52,1.67.42,2.19-.23.19-.23.29-.51.31-.79.43-.37.63-.97.44-1.55-1.62-5.12-.4-11.02,3.2-15.4,3.4-4.15,8.76-6.87,14.7-7.47,5.47-.55,11.48.7,16.94,3.52,3.63,1.88,6.43,4.13,8.33,6.71,1.88,2.55,2.84,5.47,2.74,8.19-1,.02-2,.14-2.97.37-4.52,1.07-8.3,4.37-9.86,8.62-.29.78.14,1.66.95,1.96,0,0,0,0,0,0,.81.29,1.7-.1,1.99-.88,1.2-3.28,4.24-5.93,7.73-6.75,3.49-.83,7.53.15,10.28,2.49,2.75,2.34,4.3,6.1,3.93,9.58-.09.83.54,1.59,1.39,1.7.86.11,1.63-.48,1.71-1.31.48-4.51-1.44-9.19-5.01-12.22-.65-.55-1.36-1.05-2.09-1.48,3.73-3.98,9.23-6.77,15.32-7.73,5.92-.93,12.58-.22,19.26,2.04,6.15,2.09,11.29,5.08,15.28,8.91,4.43,4.25,7.32,9.52,8.15,14.84.85,5.5-.6,11.04-3.88,14.98-.03,0-.06.01-.09.02-4.61-4.58-12.07-6.07-17.97-3.5-.78.34-1.11,1.23-.74,2,.37.77,1.3,1.11,2.08.77,4.8-2.08,11.14-.74,14.74,3.13,3.61,3.86,4.34,10.1,1.71,14.5-.43.72-.17,1.65.58,2.08.09.05.17.09.26.12.7.25,1.49,0,1.87-.63,2.85-4.77,2.6-11-.38-15.77,6.08-.98,12.35.11,17.44,3.09,5.76,3.37,9.87,9.27,10.72,15.38.89,6.38-1.76,12.86-6.76,16.52-4.73-2.98-10.36-4.58-15.98-4.3-.86.04-1.5.76-1.44,1.59.07.84.82,1.48,1.68,1.44,8.09-.41,16.54,3.8,21.04,10.47,4.49,6.67,5.01,15.78,1.3,22.68Z"/>
    <path class="cls-1" d="m193.01,79.61c1.48,3.53.67,7.88-1.96,10.59-.58.6-.54,1.56.09,2.14.16.15.35.26.54.33.57.21,1.23.08,1.67-.36,3.48-3.58,4.5-9.12,2.55-13.78-1.95-4.66-6.71-8.04-11.85-8.41-5.13-.37-10.2,2.3-12.61,6.64-.4.73-.11,1.65.65,2.06.76.41,1.71.15,2.11-.58,1.82-3.29,5.81-5.39,9.69-5.11,3.89.28,7.63,2.94,9.11,6.46Z"/>
    <path class="cls-1" d="m243.43,114.91c-.84-.2-1.68.3-1.86,1.11-.19.81.35,1.63,1.19,1.83,5.15,1.23,9.62,5.3,11.12,10.13,1.51,4.89-.08,10.58-3.86,13.84-3.89,3.35-9.86,4.1-14.53,1.82-.78-.38-1.71-.08-2.08.66-.37.75-.04,1.66.74,2.04.5.24,1,.46,1.52.64,5.51,2,12.07.91,16.46-2.87,4.71-4.06,6.62-10.86,4.74-16.93-1.84-5.95-7.12-10.77-13.44-12.27Z"/>
    <path class="cls-1" d="m233.11,130.5c-3.65,1.64-8.16,1.48-11.76-.42-3.61-1.9-6.26-5.5-6.91-9.4-.57-3.39.38-6.96,2.49-9.64,1.57,1.44,3.42,2.58,5.44,3.31,1.17.42,2.39.71,3.63.85,4.44.48,9.96-1.51,11.45-6.13.25-.79-.21-1.66-1.03-1.92-.82-.27-1.7.16-1.95.95-.97,3.01-4.93,4.44-8.2,4.09-3.92-.42-7.57-2.78-9.51-6.15-1.92-3.32-2.06-7.62-.36-10.96.38-.74.05-1.66-.72-2.04-.78-.38-1.71-.09-2.09.65-2.16,4.26-1.99,9.54.46,13.78.24.42.51.82.79,1.22-2.37,2.77-3.68,6.39-3.67,10.03-3.83,3.25-10.04,3.63-14.39.8-4.49-2.93-6.53-8.99-4.63-13.8.31-.77-.1-1.66-.91-1.97-.81-.32-1.71.06-2.01.83-.76,1.94-1.02,4.03-.83,6.11-1.79,2.04-4.39,3.47-7.14,3.93-2.76.46-5.76-.04-8.25-1.37-.93-.5-2.55-1.56-2.98-3.08-.23-.81-1.09-1.31-1.92-1.1-.83.2-1.32,1.03-1.09,1.84.71,2.49,2.85,4.08,4.53,4.98.69.37,1.41.69,2.15.96,2.61.94,5.44,1.22,8.17.76,2.72-.46,5.23-1.62,7.29-3.34,1.06,3.1,3.11,5.91,5.92,7.75.93.61,1.93,1.1,2.97,1.47,4.43,1.61,9.62,1.13,13.55-1.27,1.09,4.39,4.2,8.36,8.32,10.53.65.34,1.33.64,2.02.89,4.06,1.47,8.69,1.36,12.55-.38.78-.35,1.1-1.25.72-2.01-.38-.76-1.32-1.09-2.09-.75Z"/>
    <path class="cls-1" d="m211.8,78.02c.52.68,1.51.83,2.19.34,4.78-3.43,12.33-2.97,16.83,1.02,4.5,3.99,5.66,11.26,2.58,16.2-.44.71-.2,1.64.54,2.09.09.06.19.1.29.14.69.25,1.47,0,1.86-.61,3.87-6.21,2.47-15.01-3.19-20.03-5.66-5.02-14.8-5.57-20.81-1.26-.68.49-.82,1.44-.29,2.12Z"/>
  </g>
  <path class="cls-2" d="m37.51,93.15l-2.39-.76c.31-.96.63-1.93.95-2.89l2.37.81c-.32.93-.64,1.89-.93,2.83Zm1.94-5.64l-2.35-.87c.35-.94.72-1.9,1.09-2.84l2.33.93c-.37.92-.73,1.86-1.07,2.78Zm2.2-5.54l-2.31-.98c.39-.92.8-1.86,1.22-2.78l2.29,1.03c-.41.91-.81,1.83-1.2,2.73Zm2.46-5.43l-2.26-1.09c.44-.91.89-1.83,1.35-2.72l2.24,1.14c-.45.88-.89,1.78-1.32,2.67Zm2.71-5.31l-2.21-1.19c.48-.88.97-1.78,1.47-2.66l2.18,1.24c-.49.86-.98,1.74-1.45,2.61Zm2.95-5.18l-2.15-1.29c.52-.86,1.05-1.73,1.59-2.59l2.12,1.34c-.53.84-1.06,1.69-1.56,2.54Zm3.18-5.04l-2.09-1.39c.56-.84,1.13-1.69,1.71-2.51l2.06,1.43c-.56.81-1.13,1.64-1.68,2.47Zm3.41-4.89l-2.03-1.48c.59-.81,1.21-1.63,1.82-2.43l1.99,1.53c-.61.79-1.21,1.59-1.79,2.39Zm3.63-4.73l-1.96-1.57c.63-.79,1.28-1.58,1.93-2.35l1.92,1.62c-.64.76-1.27,1.53-1.89,2.3Zm3.84-4.56l-1.88-1.66c.67-.76,1.35-1.52,2.04-2.26l1.84,1.7c-.67.73-1.34,1.47-2,2.21Zm4.05-4.38l-1.8-1.74c.7-.73,1.42-1.45,2.14-2.16l1.76,1.78c-.7.69-1.41,1.41-2.1,2.12Zm4.24-4.19l-1.72-1.82c.73-.69,1.48-1.38,2.24-2.06l1.68,1.86c-.74.66-1.48,1.34-2.19,2.02Zm4.43-3.99l-1.64-1.9c.77-.66,1.56-1.32,2.33-1.96l1.59,1.94c-.76.62-1.53,1.27-2.28,1.92Zm4.61-3.78l-1.54-1.98c.8-.63,1.62-1.25,2.42-1.84l1.5,2.01c-.78.58-1.58,1.19-2.37,1.81Zm4.78-3.56l-1.45-2.05c.82-.58,1.67-1.16,2.5-1.73l1.4,2.08c-.82.55-1.65,1.12-2.45,1.69Z"/>
  <path class="cls-2" d="m221.85,322.33c-.18-1.01-.34-2.03-.47-3.04l2.49-.31c.12.97.27,1.95.45,2.91l-2.47.45Zm-.77-6.11c-.07-1.01-.12-2.05-.14-3.07l2.51-.05c.02.98.06,1.97.13,2.94l-2.5.18Zm2.39-6.07l-2.51-.08c.03-1.01.09-2.04.17-3.07l2.5.2c-.08.98-.14,1.97-.17,2.94Zm.47-5.88l-2.49-.32c.13-1.01.28-2.03.46-3.03l2.47.43c-.17.97-.32,1.95-.44,2.92Zm1.01-5.82l-2.45-.54c.22-.99.46-2,.72-2.98l2.43.64c-.25.95-.48,1.92-.69,2.88Zm1.51-5.72l-2.4-.74c.3-.97.62-1.95.96-2.91l2.37.83c-.33.93-.64,1.88-.93,2.81Zm1.96-5.59l-2.33-.92c.37-.94.76-1.89,1.17-2.82l2.3,1c-.4.91-.78,1.83-1.14,2.74Zm2.37-5.44l-2.26-1.09c.44-.91.9-1.83,1.37-2.73l2.22,1.16c-.46.88-.91,1.77-1.33,2.65Zm2.75-5.26l-2.18-1.24c.5-.88,1.01-1.76,1.54-2.63l2.14,1.3c-.52.85-1.02,1.71-1.51,2.56Zm3.09-5.08l-2.11-1.37c.55-.84,1.11-1.69,1.69-2.53l2.07,1.42c-.56.82-1.12,1.65-1.65,2.47Zm3.37-4.91l-2.03-1.48c.58-.8,1.19-1.62,1.82-2.44l1.99,1.53c-.61.8-1.21,1.6-1.78,2.39Zm3.62-4.73l-1.96-1.57c.63-.79,1.28-1.57,1.93-2.35l1.92,1.61c-.64.76-1.27,1.53-1.89,2.31Zm3.83-4.58l-1.89-1.65c.66-.76,1.34-1.52,2.02-2.27l1.86,1.69c-.67.74-1.33,1.48-1.99,2.23Zm4.01-4.43l-1.83-1.72c.69-.74,1.39-1.47,2.09-2.2l1.8,1.74c-.69.72-1.38,1.44-2.06,2.17Zm4.16-4.31l-1.78-1.77c.71-.72,1.43-1.43,2.15-2.13l1.76,1.79c-.71.7-1.42,1.4-2.13,2.11Zm4.27-4.2l-1.74-1.81.53-.51c.55-.53,1.11-1.05,1.66-1.58l1.72,1.83c-.55.52-1.1,1.04-1.65,1.56l-.53.5Zm4.37-4.12l-1.71-1.84c.74-.68,1.48-1.37,2.22-2.05l1.7,1.85c-.74.68-1.47,1.35-2.21,2.04Zm4.43-4.06l-1.69-1.86c.74-.68,1.49-1.35,2.24-2.02l1.68,1.86c-.74.67-1.49,1.34-2.23,2.02Zm4.47-4.03l-1.68-1.87,2.24-2.01,1.68,1.87-2.24,2.01Zm4.48-4.03l-1.68-1.86c.75-.67,1.49-1.34,2.23-2.02l1.68,1.86c-.74.67-1.49,1.35-2.24,2.02Zm4.47-4.05l-1.69-1.85c.74-.68,1.48-1.35,2.21-2.03l1.7,1.84c-.74.68-1.48,1.36-2.22,2.04Zm4.43-4.1l-1.72-1.83c.73-.68,1.46-1.37,2.18-2.06l1.73,1.81c-.73.7-1.46,1.39-2.2,2.08Zm4.37-4.18l-1.75-1.8c.71-.7,1.43-1.4,2.13-2.1l1.77,1.78c-.71.71-1.43,1.42-2.15,2.13Z"/>
  <path class="cls-2" d="m94,335.8c-.23-.97-.47-1.94-.72-2.91l2.43-.61c.25.98.49,1.96.72,2.94l-2.44.59Zm-1.47-5.8c-.28-1.02-.54-1.96-.81-2.87l2.41-.71c.28.93.55,1.89.83,2.93l-2.42.66Zm-1.7-5.71c-.32-.96-.65-1.9-.98-2.8l2.35-.87c.34.92.68,1.9,1.01,2.89l-2.38.79Zm-2.07-5.55c-.39-.91-.79-1.82-1.21-2.69l2.26-1.09c.44.91.86,1.85,1.27,2.8l-2.31.98Zm-2.57-5.29c-.48-.87-.99-1.72-1.5-2.52l2.11-1.35c.54.85,1.08,1.74,1.58,2.65l-2.19,1.22Zm-3.16-4.92c-.59-.79-1.2-1.55-1.83-2.27l1.89-1.65c.67.77,1.33,1.58,1.95,2.42l-2.01,1.5Zm-3.83-4.37c-.69-.66-1.42-1.31-2.17-1.93l1.59-1.94c.81.66,1.59,1.36,2.33,2.07l-1.74,1.8Zm-4.5-3.69c-.78-.54-1.6-1.08-2.45-1.59l1.3-2.15c.9.54,1.77,1.11,2.6,1.69l-1.44,2.06Zm-5.01-3.03c-.84-.44-1.73-.88-2.65-1.3l1.05-2.28c.95.44,1.88.9,2.76,1.36l-1.17,2.22Zm-5.36-2.49c-.87-.36-1.8-.73-2.76-1.08l.88-2.35c.99.37,1.94.74,2.84,1.12l-.96,2.32Zm-5.57-2.09c-.94-.32-1.89-.64-2.83-.94l.77-2.39c.96.31,1.92.63,2.88.96l-.82,2.37Zm-5.69-1.84c-.96-.3-1.92-.59-2.87-.88l.73-2.4c.96.29,1.92.58,2.89.88l-.74,2.4Z"/>
  <path class="cls-1" d="m250.19,365.76h-4.86v-4.86c0-.43-.35-.78-.78-.78h-2.82c-.43,0-.78.35-.78.78v4.86h-4.86c-.43,0-.78.35-.78.78v2.82c0,.43.35.78.78.78h4.86v4.86c0,.43.35.78.78.78h2.82c.43,0,.78-.35.78-.78v-4.86h4.86c.43,0,.78-.35.78-.78v-2.82c0-.43-.35-.78-.78-.78Z"/>
</svg>