<svg width="137" height="134" viewBox="0 0 137 134" fill="none" xmlns="http://www.w3.org/2000/svg">
<g filter="url(#filter0_d_1569_2179)">
<rect x="42.3145" y="22.1089" width="71.4844" height="66.9013" rx="9.51364" transform="rotate(15 42.3145 22.1089)" fill="white"/>
<g clip-path="url(#clip0_1569_2179)">
<path d="M68.1424 72.214L47.5735 66.7026C46.4609 66.4045 45.8079 65.2598 46.1091 64.1357L46.1458 63.9986C46.447 62.8745 47.5849 62.2097 48.6975 62.5078L69.2663 68.0192C70.3789 68.3173 71.032 69.462 70.7308 70.5861L70.694 70.7232C70.3928 71.8473 69.2549 72.5121 68.1424 72.214Z" fill="#E9F2FF"/>
<path d="M66.1452 79.6713L65.8467 79.5913C63.8115 79.046 62.6044 76.93 63.1553 74.8738C63.7063 72.8175 65.8097 71.5886 67.8449 72.1339L68.1434 72.2139L69.2674 68.0191L50.1367 62.8931L49.0127 67.0879L55.9866 68.9565C58.0218 69.5018 59.2289 71.6178 58.678 73.674C58.127 75.7303 56.0236 76.9592 53.9884 76.4139L47.0145 74.5452L45.8905 78.74L65.0212 83.8661L66.1452 79.6713Z" fill="#E9F2FF"/>
<path d="M72.1384 61.9713C72.3441 61.2036 71.9087 60.4405 71.1563 60.2094L57.4527 56.5376C56.6929 56.334 55.8999 56.7974 55.6942 57.565C55.4885 58.3327 55.9436 59.1305 56.7034 59.3341L62.2934 60.8319C63.6502 61.1955 64.4615 62.6177 64.0942 63.9885C63.7269 65.3594 62.3131 66.1854 60.9563 65.8218L56.289 64.5712L55.5397 67.3677L68.3206 70.7924L69.0699 67.9958L68.88 67.9449C67.5232 67.5814 66.7118 66.1592 67.0791 64.7884C67.4464 63.4175 68.8602 62.5915 70.217 62.9551L70.4341 63.0132C71.1741 63.1821 71.9327 62.7389 72.1384 61.9713ZM74.9641 82.0346L45.6304 74.1746C44.4907 73.8693 43.2912 74.547 42.9753 75.7259C42.6668 76.8774 43.3323 78.0842 44.4991 78.3968L73.8328 86.2568L74.9641 82.0346ZM75.7239 82.2382L77.4877 82.7108L76.3637 86.9056L74.5999 86.433L75.7239 82.2382ZM79.6043 83.2779L80.744 83.5833L79.62 87.7781L78.4803 87.4727L79.6043 83.2779ZM83.946 84.4413L81.3139 83.736L80.1899 87.9308L82.822 88.6361C83.9617 88.9414 85.1613 88.2638 85.4771 87.0848C85.7857 85.9333 85.1129 84.7539 83.946 84.4413Z" fill="#E9F2FF"/>
<path d="M63.9072 57.0915L71.9665 59.251C71.9665 59.251 72.1131 61.2003 72.8012 62.6483C74.2703 61.0731 75.4595 58.8058 76.1647 56.1738C76.2088 56.0093 76.2404 55.7827 76.2919 55.5908C74.4397 54.0366 72.6821 52.8898 70.0228 52.1772C67.3363 51.4574 65.0106 51.1281 62.568 51.5608C62.5239 51.7253 62.2464 52.3268 62.2096 52.4639C61.5705 54.8492 61.4984 57.1807 61.8966 59.1681C62.8055 58.7064 63.8496 57.9576 63.9072 57.0915Z" fill="#FFEFE9"/>
<path d="M72.72 63.2731L72.4972 62.802C71.9205 61.5896 71.7106 60.0935 71.6602 59.5216L64.1708 57.5148C63.9255 58.2131 63.224 58.8774 62.0663 59.5075L61.687 59.7291L61.6073 59.2669C61.1842 57.1554 61.271 54.769 61.9101 52.3838C61.9395 52.2741 62.0107 52.1169 62.1113 51.85C62.1826 51.6927 62.2538 51.5355 62.2685 51.4807L62.3199 51.2888L62.5319 51.2574C64.7354 50.8487 67.0091 51.0466 70.1297 51.8827C72.8704 52.6171 74.6479 53.7986 76.5271 55.36L76.6951 55.4932L76.5849 55.9044C76.5555 56.0141 76.5459 56.1585 76.5165 56.2681C75.8039 58.9276 74.6074 61.2223 73.0817 62.8998L72.72 63.2731ZM63.6144 56.6605L72.2978 58.9872L72.3205 59.2284C72.3131 59.2558 72.4416 60.7301 72.9347 62.0376C74.2189 60.5011 75.2334 58.4515 75.8652 56.0936C75.8873 56.0114 75.9167 55.9017 75.9189 55.7848L75.9263 55.7574C74.1878 54.3218 72.5042 53.2242 69.9534 52.5408C67.0228 51.7555 64.8921 51.5666 62.8536 51.9019C62.8316 51.9842 62.7824 52.0592 62.7603 52.1414C62.6891 52.2986 62.5959 52.5381 62.5812 52.593C62.0155 54.7041 61.8936 56.7871 62.2053 58.6632C63.082 58.1047 63.5766 57.5613 63.6275 57.046L63.6144 56.6605ZM52.6871 58.2579L50.6519 57.7126C50.5162 57.6762 50.4371 57.5375 50.4738 57.4004C50.5105 57.2633 50.6485 57.1827 50.7842 57.2191L52.8193 57.7644C52.955 57.8007 53.0342 57.9395 52.9974 58.0766C52.9607 58.2137 52.8228 58.2943 52.6871 58.2579Z" fill="#0C8BDF"/>
<path d="M51.3774 59.0234C51.2417 58.9871 51.1626 58.8483 51.1993 58.7112L51.7503 56.655C51.787 56.5179 51.9249 56.4373 52.0606 56.4736C52.1963 56.51 52.2755 56.6487 52.2387 56.7858L51.6878 58.8421C51.651 58.9792 51.5131 59.0598 51.3774 59.0234Z" fill="#0C8BDF"/>
<path d="M71.0114 49.2397C70.0074 48.9707 69.3719 47.9776 69.5425 46.9067C69.755 45.7882 70.799 45.0394 71.9065 45.248C73.014 45.4566 73.7507 46.5062 73.5382 47.6247C73.4529 48.1601 73.1505 48.6374 72.6876 48.9542C72.2517 49.2782 71.6972 49.394 71.1743 49.2833L71.0114 49.2397ZM71.9371 45.7852L71.8014 45.7488C70.9653 45.6129 70.1773 46.1658 70.0383 47.0101C69.8993 47.8544 70.4432 48.6467 71.2794 48.7825C71.6666 48.8569 72.0708 48.7595 72.423 48.5306C72.748 48.2945 72.9865 47.947 73.0351 47.5486C73.1939 46.739 72.6969 45.9887 71.9371 45.7852Z" fill="#BBD6FF"/>
<path d="M83.1463 74.6184C83.0106 74.582 82.9314 74.4432 82.9682 74.3062L83.3722 72.7982L82.0274 73.5839C81.8895 73.6645 81.7538 73.6282 81.6747 73.4894C81.5955 73.3506 81.6322 73.2136 81.7702 73.133L83.115 72.3473L81.6225 71.9474C81.4868 71.911 81.4077 71.7723 81.4444 71.6352C81.4811 71.4981 81.619 71.4175 81.7547 71.4539L83.2472 71.8538L82.4754 70.501C82.3962 70.3622 82.433 70.2251 82.5709 70.1445C82.7088 70.064 82.8445 70.1003 82.9237 70.2391L83.6955 71.5919L84.0995 70.084C84.1362 69.9469 84.2742 69.8663 84.4098 69.9026C84.5455 69.939 84.6247 70.0778 84.5879 70.2148L84.1839 71.7228L85.5287 70.9371C85.6666 70.8565 85.8023 70.8928 85.8815 71.0316C85.9606 71.1704 85.9239 71.3074 85.786 71.388L84.4412 72.1737L85.9336 72.5736C86.0693 72.61 86.1485 72.7487 86.1117 72.8858C86.075 73.0229 85.9371 73.1035 85.8014 73.0671L84.3089 72.6672L85.0807 74.02C85.1599 74.1588 85.1231 74.2959 84.9852 74.3765C84.8473 74.457 84.7116 74.4207 84.6324 74.2819L83.8607 72.9291L83.4566 74.437C83.4199 74.5741 83.2819 74.6547 83.1463 74.6184Z" fill="#BBD6FF"/>
<path d="M50.2356 54.1632C50.1 54.1268 50.0208 53.9881 50.0575 53.851L50.4616 52.3431L49.1168 53.1288C48.9789 53.2094 48.8432 53.173 48.764 53.0343C48.6849 52.8955 48.7216 52.7584 48.8595 52.6778L50.2043 51.8921L48.7119 51.4922C48.5762 51.4559 48.497 51.3171 48.5338 51.18C48.5705 51.043 48.7084 50.9624 48.8441 50.9987L50.3366 51.3986L49.5648 50.0458C49.4856 49.9071 49.5224 49.77 49.6603 49.6894C49.7982 49.6088 49.9339 49.6452 50.013 49.7839L50.7848 51.1367L51.1815 49.6562C51.2183 49.5191 51.3562 49.4386 51.4919 49.4749C51.6276 49.5113 51.7067 49.65 51.67 49.7871L51.2659 51.295L52.6107 50.5093C52.7487 50.4288 52.8843 50.4651 52.9635 50.6039C53.0426 50.7426 53.0059 50.8797 52.868 50.9603L51.5232 51.746L53.0157 52.1459C53.1513 52.1822 53.2305 52.321 53.1938 52.4581C53.157 52.5952 53.0191 52.6757 52.8834 52.6394L51.391 52.2395L52.1627 53.5923C52.2419 53.7311 52.2052 53.8681 52.0672 53.9487C51.9293 54.0293 51.7936 53.993 51.7145 53.8542L50.9427 52.5014L50.5386 54.0093C50.5093 54.119 50.3713 54.1996 50.2356 54.1632Z" fill="#BBD6FF"/>
<path d="M84.6628 52.8967L82.6276 52.3514C82.4919 52.3151 82.4128 52.1763 82.4495 52.0392C82.4862 51.9021 82.6242 51.8216 82.7598 51.8579L84.795 52.4032C84.9307 52.4396 85.0099 52.5783 84.9731 52.7154C84.9364 52.8525 84.7985 52.9331 84.6628 52.8967Z" fill="#0C8BDF"/>
<path d="M83.3872 53.6426C83.2515 53.6062 83.1723 53.4674 83.2091 53.3304L83.7601 51.2741C83.7968 51.137 83.9347 51.0564 84.0704 51.0928C84.2061 51.1291 84.2852 51.2679 84.2485 51.405L83.6975 53.4612C83.6608 53.5983 83.5229 53.6789 83.3872 53.6426Z" fill="#0C8BDF"/>
<path d="M57.3948 40.6836C57.1303 41.6706 56.2316 42.3113 55.4175 42.0932C56.2316 42.3113 56.6969 43.2882 56.4251 44.3026C56.6896 43.3156 57.5883 42.6749 58.4024 42.893C57.5883 42.6749 57.123 41.698 57.3948 40.6836Z" fill="#6CA7FF"/>
<path d="M45.7771 70.8051C45.1801 70.6451 44.7967 70.0134 44.9657 69.3829C45.1273 68.7797 45.7553 68.3896 46.3795 68.5569C47.0036 68.7241 47.3598 69.3485 47.1908 69.9791C46.9947 70.6024 46.374 70.965 45.7771 70.8051ZM46.2399 69.0778C45.9142 68.9905 45.5423 69.1847 45.4468 69.5411C45.3586 69.8702 45.5492 70.2444 45.9019 70.339C46.2276 70.4262 46.5995 70.232 46.695 69.8756C46.7634 69.5119 46.5655 69.165 46.2399 69.0778ZM80.8187 78.637C80.2217 78.477 79.8384 77.8454 80.0073 77.2148C80.1763 76.5842 80.797 76.2216 81.4211 76.3888C82.0181 76.5488 82.4014 77.1804 82.2325 77.811C82.0635 78.4416 81.4428 78.8042 80.8187 78.637ZM81.2815 76.9097C80.9559 76.8225 80.5839 77.0167 80.4884 77.3731C80.4003 77.7021 80.5908 78.0764 80.9436 78.1709C81.2692 78.2582 81.6412 78.064 81.7367 77.7076C81.8322 77.3511 81.6343 77.0043 81.2815 76.9097Z" fill="#BBD6FF"/>
<path d="M85.7746 56.016C85.1026 57.9811 85.888 60.0428 87.541 60.6033C85.888 60.0428 84.0384 61.1928 83.3665 63.1579C84.0384 61.1928 83.253 59.1311 81.6 58.5706C83.2259 59.1238 85.1026 57.9811 85.7746 56.016ZM76.8915 64.4203C76.5683 65.6266 75.4897 66.3955 74.4857 66.1265C75.4897 66.3955 76.0393 67.6006 75.7161 68.807C76.0393 67.6006 77.1179 66.8317 78.1219 67.1008C77.1179 66.8317 76.5683 65.6266 76.8915 64.4203Z" fill="#6CA7FF"/>
<path d="M64.918 59.0669L70.6707 60.6083L66.9168 74.6184L61.164 73.0769L64.918 59.0669Z" fill="#FFEFE9"/>
<path d="M67.1554 75.0344L60.7514 73.3184L64.6816 58.6504L71.0857 60.3663L67.1554 75.0344ZM61.5789 72.8349L66.6804 74.2019L70.2581 60.8498L65.1566 59.4829L61.5789 72.8349Z" fill="#5096FF"/>
<path d="M68.0359 65.3391L69.357 65.076C69.3842 65.0832 69.4113 65.0905 69.4039 65.1179L68.7512 66.7943L65.7989 70.3229C65.7644 70.343 65.7102 70.3285 65.7248 70.2737L67.5115 67.0792L67.9743 65.352C68.0088 65.3318 68.0088 65.3318 68.0359 65.3391Z" fill="#FFEFE9"/>
<path d="M51.3168 69.5568C51.9414 68.6369 52.7214 67.788 53.6474 67.1546C57.3929 64.5731 63.3236 65.0163 63.3236 65.0163L64.4165 72.009L69.0764 66.5577C69.0764 66.5577 74.4884 69.1539 76.8902 73.3237C79.2525 77.4241 76.8042 84.1732 76.8042 84.1732L48.5831 76.6114C48.5831 76.6114 48.9097 74.5244 49.8891 72.1715" fill="#BBD6FF"/>
<path d="M77.3513 73.4477C74.9495 69.2779 69.5375 66.6817 69.5375 66.6817L68.8117 67.5451C70.4461 68.7177 72.3576 70.3759 73.5252 72.4225C75.8875 76.5229 73.4392 83.272 73.4392 83.272L77.2653 84.2972C77.2727 84.2698 79.7136 77.5481 77.3513 73.4477Z" fill="#6CA7FF"/>
<path d="M66.6396 72.7226L70.8468 67.7672C69.6544 67.0069 68.7833 66.5678 68.7833 66.5678L64.3133 72.0699L66.647 72.6952L66.6396 72.7226Z" fill="#6CA7FF"/>
<path d="M52.4127 72.8479L53.8404 70.2332C54.465 69.3133 55.245 68.4644 56.1709 67.831C58.3823 66.3077 61.392 65.8212 63.4604 65.6996L63.3507 65.0237C63.3507 65.0237 57.4199 64.5806 53.6744 67.162C52.7485 67.7955 51.9685 68.6443 51.3439 69.5642L49.9162 72.179C48.9096 74.5246 48.6102 76.6189 48.6102 76.6189L51.1067 77.2878C51.0869 77.2531 51.4134 75.1661 52.4127 72.8479Z" fill="white"/>
<path d="M76.6882 84.6123L48.4671 77.0504C48.25 76.9923 48.1042 76.7769 48.1431 76.5228C48.1652 76.4406 48.4646 74.3463 49.4785 71.9733C49.5718 71.7338 49.8601 71.6348 50.0969 71.7276C50.3338 71.8205 50.4305 72.1109 50.3373 72.3503C49.6302 74.0122 49.2804 75.5346 49.1437 76.262L76.5236 83.5984C76.9819 82.1051 78.4122 76.8757 76.5051 73.5731C74.5188 70.1317 70.3845 67.7603 69.2097 67.1517L64.8008 72.3176C64.6753 72.4603 64.4904 72.4989 64.3276 72.4553C64.1648 72.4116 64.0314 72.2583 63.994 72.072L62.9215 65.4374C61.5925 65.4045 56.9349 65.4201 53.9011 67.5163C53.0859 68.0619 52.3551 68.8358 51.6887 69.8033C51.5411 70.0282 51.2404 70.0652 51.0454 69.9248C50.8232 69.7771 50.7881 69.4738 50.9283 69.2763C51.6512 68.2064 52.4855 67.3721 53.377 66.7588C57.2259 64.117 63.1097 64.5181 63.3415 64.5214C63.5388 64.5449 63.7338 64.6853 63.7638 64.8991L64.7119 70.9126L68.7025 66.2224C68.8353 66.0523 69.0745 66.0282 69.2571 66.1065C69.4866 66.2268 74.8098 68.8286 77.2784 73.075C79.7198 77.3142 77.3405 84.023 77.2326 84.3173C77.1738 84.5367 76.9053 84.6704 76.6882 84.6123ZM63.9547 57.457C63.8733 57.4352 63.7721 57.3787 63.7399 57.2819L61.7552 53.4002C61.6563 53.2267 61.7422 53.0146 61.9073 52.9413C62.0797 52.8406 62.2894 52.9262 62.3612 53.0924L64.3459 56.9741C64.4448 57.1475 64.3589 57.3596 64.1938 57.4329C64.1249 57.4732 64.0361 57.4788 63.9547 57.457Z" fill="#0C8BDF"/>
<path d="M65.2809 51.5239C65.2809 51.5239 74.801 54.3099 75.721 57.1717L76.2426 55.2251C76.2426 55.2251 69.1662 51.2426 65.2809 51.5239Z" fill="#FFEFE9"/>
<path d="M69.6543 52.1376C72.0151 52.7701 74.1153 53.8324 75.7871 55.1913C76.1427 55.4923 76.7193 55.2942 76.8368 54.8555L77.2041 53.4847C78.2841 49.4544 76.9807 45.9609 71.7978 44.5722C66.4249 43.1325 63.7393 45.5571 62.6594 49.5874L62.3141 50.876C62.1893 51.3421 62.5698 51.7673 63.0282 51.6844C65.0865 51.3838 67.3749 51.5268 69.6543 52.1376Z" fill="#BBD6FF"/>
<path d="M64.0856 51.3212L64.4308 50.0326C65.452 46.2217 67.8837 43.876 72.6392 44.7976C72.3752 44.6975 72.0767 44.6175 71.7782 44.5375C66.4054 43.0978 63.7198 45.5225 62.6399 49.5528L62.2946 50.8414C62.1697 51.3074 62.5502 51.7326 63.0087 51.6498C63.3439 51.5927 63.6989 51.5703 64.0539 51.5478C64.0686 51.493 64.0635 51.4035 64.0856 51.3212ZM71.4455 52.6175C71.147 52.5375 70.8485 52.4575 70.5427 52.4049C72.5485 53.0599 74.3033 54.0003 75.7602 55.1841C76.0689 55.4431 76.1972 55.5069 76.3939 55.207C74.9076 54.1328 73.4264 53.1482 71.4455 52.6175Z" fill="white"/>
<path d="M75.8991 55.7501C75.7634 55.7137 75.6079 55.6427 75.487 55.5515C73.8078 54.22 71.7545 53.1996 69.5294 52.6034C67.3857 52.029 65.1318 51.8659 63.0735 52.1665C62.7111 52.2164 62.3386 52.0871 62.0989 51.7878C61.8518 51.5159 61.7573 51.1086 61.8529 50.7522L62.1981 49.4636C63.4984 44.6108 66.8409 42.7736 71.9153 44.1333C76.9083 45.4711 78.9437 48.8375 77.6655 53.6081L77.2982 54.9789C77.2027 55.3353 76.9172 55.6408 76.5673 55.7528C76.3208 55.8043 76.1162 55.8082 75.8991 55.7501ZM69.7792 51.6712C72.1128 52.2966 74.2945 53.3807 76.0675 54.7961C76.1415 54.8453 76.2031 54.8324 76.2376 54.8123C76.2721 54.7921 76.3337 54.7793 76.3631 54.6696L76.7304 53.2987C77.5238 50.3377 77.2775 46.481 71.6333 44.9686C67.0474 43.7399 64.2221 45.2749 63.054 49.6342L62.7088 50.9228C62.6867 51.005 62.7263 51.0744 62.7461 51.1091C62.7659 51.1438 62.8399 51.193 62.9015 51.1801C65.1571 50.9029 67.4998 51.0605 69.7792 51.6712Z" fill="#0C8BDF"/>
<path d="M75.3382 53.0721C75.1211 53.0139 75.0295 52.8131 75.1081 52.6284C75.4833 51.5536 75.5505 50.5431 75.2949 49.6518C75.2576 49.4655 75.3361 49.2808 75.5283 49.2148C75.7132 49.1762 75.8958 49.2545 75.9602 49.4481C76.2407 50.4635 76.164 51.6184 75.752 52.8303C75.7005 53.0223 75.501 53.1157 75.3382 53.0721ZM75.1309 48.9614C75.0495 48.9395 74.9754 48.8903 74.9358 48.8209C74.8567 48.6822 74.7973 48.5781 74.7108 48.4668C74.5576 48.2788 74.4366 48.1876 74.4366 48.1876C74.2958 48.0617 74.2658 47.848 74.3913 47.7053C74.5168 47.5626 74.7288 47.5313 74.8696 47.6572C74.8967 47.6644 75.0375 47.7903 75.2303 48.0477C75.3366 48.1937 75.4157 48.3324 75.522 48.4785C75.621 48.6519 75.5695 48.8438 75.3971 48.9445C75.3282 48.9848 75.2394 48.9904 75.1309 48.9614Z" fill="#5096FF"/>
<path d="M71.9175 59.6491C71.8361 59.6273 71.7621 59.5781 71.7027 59.474C71.6038 59.3005 71.6552 59.1086 71.8276 59.0079L75.7438 56.7661C75.9163 56.6654 76.1062 56.7163 76.2052 56.8897C76.3041 57.0631 76.2527 57.2551 76.0803 57.3558L72.164 59.5976C72.095 59.6379 71.9989 59.6709 71.9175 59.6491Z" fill="#0C8BDF"/>
<path d="M61.3336 70.7123L57.1004 69.578C56.8019 69.4981 56.6238 69.1859 56.7046 68.8843C56.7854 68.5827 57.0958 68.4014 57.3943 68.4814L61.6274 69.6156C61.9259 69.6956 62.104 70.0078 62.0232 70.3094C61.9424 70.611 61.6321 70.7923 61.3336 70.7123Z" fill="#E9F2FF"/>
<path d="M66.5636 64.9738C68.7887 65.57 71.0159 64.6388 72.827 62.6557C72.1389 61.2077 71.9923 59.2584 71.9923 59.2584L63.9058 57.0916C63.8409 57.9852 62.7968 58.7339 61.9077 59.2303C62.4998 62.1218 64.1485 64.3267 66.5636 64.9738Z" fill="white"/>
<path d="M66.4761 65.3024C64.0339 64.6481 62.2349 62.4617 61.6003 59.2943L61.5505 59.0459L61.7846 58.9323C62.9078 58.3223 63.555 57.6435 63.6205 57.0734L63.6419 56.6677L72.3254 58.9945L72.348 59.2356C72.3407 59.263 72.502 61.1575 73.1505 62.5361L73.2421 62.737L73.0821 62.8998C71.084 65.0385 68.7284 65.9059 66.4761 65.3024ZM62.3007 59.3938C62.9296 62.1483 64.5087 64.07 66.6525 64.6444C68.6062 65.1679 70.6317 64.4471 72.406 62.6011C71.9033 61.4379 71.7183 60.066 71.6606 59.5216L64.1712 57.5148C63.9406 58.1583 63.3352 58.7895 62.3007 59.3938Z" fill="#0C8BDF"/>
</g>
</g>
<defs>
<filter id="filter0_d_1569_2179" x="-1.9553" y="-1.6752" width="140.274" height="137.034" filterUnits="userSpaceOnUse" color-interpolation-filters="sRGB">
<feFlood flood-opacity="0" result="BackgroundImageFix"/>
<feColorMatrix in="SourceAlpha" type="matrix" values="0 0 0 0 0 0 0 0 0 0 0 0 0 0 0 0 0 0 127 0" result="hardAlpha"/>
<feOffset dy="3.17121"/>
<feGaussianBlur stdDeviation="13.4777"/>
<feComposite in2="hardAlpha" operator="out"/>
<feColorMatrix type="matrix" values="0 0 0 0 0.6375 0 0 0 0 0.783162 0 0 0 0 1 0 0 0 0.18 0"/>
<feBlend mode="normal" in2="BackgroundImageFix" result="effect1_dropShadow_1569_2179"/>
<feBlend mode="normal" in="SourceGraphic" in2="effect1_dropShadow_1569_2179" result="shape"/>
</filter>
<clipPath id="clip0_1569_2179">
<rect width="46.1147" height="41.5316" fill="white" transform="translate(51.2832 37.645) rotate(15)"/>
</clipPath>
</defs>
</svg>
