<svg width="17" height="14" viewBox="0 0 17 14" fill="none" xmlns="http://www.w3.org/2000/svg">
<path d="M1.21181 1.20986V0.378906C0.991429 0.378906 0.780073 0.466453 0.62424 0.622287C0.468406 0.778121 0.380859 0.989476 0.380859 1.20986H1.21181ZM16.169 1.20986H16.9999C16.9999 0.989476 16.9124 0.778121 16.7565 0.622287C16.6007 0.466453 16.3893 0.378906 16.169 0.378906V1.20986ZM1.21181 2.04081H16.169V0.378906H1.21181V2.04081ZM15.338 1.20986V11.1813H16.9999V1.20986H15.338ZM14.507 12.0122H2.87372V13.6741H14.507V12.0122ZM2.04276 11.1813V1.20986H0.380859V11.1813H2.04276ZM2.87372 12.0122C2.65333 12.0122 2.44198 11.9247 2.28614 11.7689C2.13031 11.613 2.04276 11.4017 2.04276 11.1813H0.380859C0.380859 11.8424 0.643499 12.4765 1.111 12.944C1.5785 13.4115 2.21257 13.6741 2.87372 13.6741V12.0122ZM15.338 11.1813C15.338 11.4017 15.2505 11.613 15.0946 11.7689C14.9388 11.9247 14.7274 12.0122 14.507 12.0122V13.6741C15.1682 13.6741 15.8023 13.4115 16.2698 12.944C16.7373 12.4765 16.9999 11.8424 16.9999 11.1813H15.338Z" fill="#31546B"/>
<path d="M1.21094 1.20898L8.68951 8.68756L16.1681 1.20898" stroke="#31546B" stroke-width="1.6619" stroke-linecap="round" stroke-linejoin="round"/>
</svg>
