<?xml version="1.0" encoding="UTF-8"?>
<svg id="Layer_1" data-name="Layer 1" xmlns="http://www.w3.org/2000/svg" viewBox="0 0 491.3 388.4">
  <defs>
    <style>
      .cls-1 {
        fill: #092427;
      }

      .cls-1, .cls-2, .cls-3 {
        stroke-width: 0px;
      }

      .cls-2 {
        fill: #fff;
      }

      .cls-3 {
        fill: #fdcb43;
      }
    </style>
  </defs>
  <g>
    <path class="cls-3" d="m363.35,164.66c-8.99-13.67-19.43-26.03-30.92-37.1-15.34,57.68-57.36,106.51-124.1,100.24-74.9-7.03-110.09-82.01-92.71-149.61C70.02,93.21,30.14,123.24,2.89,164.66l-2.89,4.4,2.89,4.4c40.08,60.92,107.45,97.3,180.23,97.3s140.15-36.37,180.23-97.3l2.89-4.4-2.89-4.4Z"/>
    <path class="cls-2" d="m329.87,136.29c-17.13,53.77-58.2,97.46-121.53,91.52-71.52-6.71-106.82-75.38-94.74-140.41-42.93,15.28-79.39,44.2-104.02,81.66,37.12,56.42,100.97,93.69,173.55,93.69s136.43-37.27,173.55-93.69c-7.79-11.84-16.82-22.78-26.8-32.77Z"/>
    <g>
      <path class="cls-1" d="m208.34,227.81c-52.42-4.92-85.38-43.13-94.5-88.8-3.9,9.01-6.08,18.94-6.08,29.38-.01,40.97,33.19,74.2,74.17,74.21,16.45,0,31.6-5.41,43.91-14.47-5.63.3-11.45.24-17.49-.33Z"/>
      <path class="cls-2" d="m126.99,175c-7.57,1.2-10.9,7.72-10.9,7.72,0,0,7.58,6.18,16.58,1.42-2.04-2.94-3.91-6-5.67-9.14Z"/>
      <path class="cls-2" d="m135.07,187.39c-11.12,1.15-13.39,11.28-13.39,11.28,0,0,10.49,5.08,18.46-5-1.78-2.02-3.45-4.13-5.07-6.29Z"/>
      <path class="cls-2" d="m143.8,197.62c-13.13,3.06-12.75,15.12-12.75,15.12,0,0,12.4,2.33,17.19-10.84-1.52-1.38-3-2.81-4.44-4.28Z"/>
      <path class="cls-2" d="m162.4,212.61c-10.02,9.12-3.77,19.23-3.77,19.23,0,0,10.74-3.48,9.91-15.68-2.1-1.11-4.15-2.3-6.14-3.55Z"/>
      <path class="cls-2" d="m152.92,205.89c-12.79,6.13-9.29,18.14-9.29,18.14,0,0,12.51-.8,13.92-14.65-1.58-1.12-3.13-2.28-4.63-3.48Z"/>
      <path class="cls-2" d="m172.69,218.2c-5.07,10.09,2.41,17.47,2.41,17.47,0,0,7.41-4.67,6.64-13.69-3.12-1.12-6.12-2.4-9.05-3.78Z"/>
      <path class="cls-2" d="m184.9,223.01c.23,8.29,7.1,12.28,7.1,12.28,0,0,3.53-3.77,3.8-9.39-3.75-.78-7.38-1.76-10.9-2.89Z"/>
    </g>
  </g>
  <g>
    <g>
      <path class="cls-3" d="m326.08,155.69c-1.21-70.79-58.91-127.82-129.99-127.84-19.17,0-37.36,4.17-53.75,11.61-21.07,20.34-34.19,48.86-34.2,80.45-.02,61.8,50.07,111.92,111.87,111.94,49.31.01,91.15-31.88,106.07-76.16Z"/>
      <path class="cls-2" d="m107.99,140.39c4.59,0,9.89-1.02,16.05-3.62-5.45-8.18-11.25-12.6-16.72-14.8.17,6.14.39,12.28.67,18.42Z"/>
      <path class="cls-2" d="m136.92,55.91s26.95,4.25,21.34,37.14c-31.27-12.02-21.34-37.14-21.34-37.14Z"/>
      <path class="cls-2" d="m143.44,104.62c-33.21-3.42-30.1-30.74-30.1-30.74,0,0,27.26-2.52,30.1,30.74Z"/>
      <path class="cls-2" d="m110.6,96.82c-1.07,4.52-2.33,9-3.56,13.49.02,1.76.08,3.53.11,5.29,5.46,3.46,13.27,5.56,24.55,3.87-5.18-14.82-13.62-20.64-21.1-22.65Z"/>
      <path class="cls-2" d="m307.83,119.16s-8.92,25.96-40.23,14.37c17.24-28.59,40.23-14.37,40.23-14.37Z"/>
      <path class="cls-2" d="m279.25,210.61c-4.95-3.98-12.36-6.93-23.66-6.67,1.7,7.95,4.56,13.57,7.9,17.55,5.37-3.57,10.54-7.82,15.75-10.88Z"/>
      <path class="cls-2" d="m250.83,53.34s11.3,24.64-19.39,38.05c-7.09-32.6,19.39-38.05,19.39-38.05Z"/>
      <path class="cls-2" d="m256.83,224.67c-11.54-7.9-.62-2.85-14.74-6.13-.19,4.79.25,8.84,1.07,12.37,4.59-1.94,9.05-4.31,13.67-6.24Z"/>
      <path class="cls-2" d="m246.78,102.28c1.33-33.36,28.43-32.06,28.43-32.06,0,0,4.59,27.14-28.43,32.06Z"/>
      <path class="cls-2" d="m259.17,116.59c9.59-31.98,35.44-23.96,35.44-23.96,0,0-2.24,27.41-35.44,23.96Z"/>
      <path class="cls-2" d="m314.04,146.82s-15.03,22.9-42.47,3.88c23.81-23.41,42.47-3.88,42.47-3.88Z"/>
      <path class="cls-2" d="m175.7,87.32c-28.23-18.04-13.53-40.16-13.53-40.16,0,0,25.61,9.07,13.53,40.16Z"/>
      <path class="cls-2" d="m194.47,83.75c-23.09-24.11-3.23-42.42-3.23-42.42,0,0,22.61,15.23,3.23,42.42Z"/>
      <path class="cls-2" d="m213.37,84.76c-16.37-29.1,7.48-41.84,7.48-41.84,0,0,18.05,20.33-7.48,41.84Z"/>
      <path class="cls-2" d="m304.33,204.83s-23.52,12.92-38.83-16.87c32.09-9.12,38.83,16.87,38.83,16.87Z"/>
      <path class="cls-2" d="m312.85,176.44s-20.19,18.42-42.04-6.83c28.88-16.75,42.04,6.83,42.04,6.83Z"/>
    </g>
    <path class="cls-1" d="m196.07,89.77c37.65.01,68.16,30.54,68.15,68.19-.01,37.65-30.54,68.16-68.19,68.15-37.65-.01-68.16-30.54-68.15-68.19.01-37.65,30.54-68.16,68.19-68.15Z"/>
  </g>
  <path class="cls-3" d="m477.79,308.32c-15.01-15-91.45-71.18-126.97-79.11.08-4.64-1.63-9.31-5.17-12.85l-2.29-2.29c-3.03-3.03-6.88-4.73-10.83-5.11l7.52-7.52c.92-.91,1.44-2.16,1.44-3.45.07-15.48-10.14-22.76-19.88-22.07,26.37-44.75,20.34-103.31-18.09-141.74-45.59-45.59-119.49-45.59-165.08,0-45.59,45.59-45.59,119.5,0,165.08,38.43,38.43,96.99,44.46,141.74,18.09-.69,9.75,6.59,19.96,22.07,19.88,1.29,0,2.54-.53,3.45-1.44l7.51-7.51c.38,3.95,2.08,7.8,5.11,10.83l2.29,2.29c3.54,3.54,8.21,5.26,12.85,5.17,7.93,35.52,64.1,111.97,79.11,126.97,18.01,18.01,47.22,18.01,65.23,0s18.01-47.22,0-65.23Zm-180.82-115.59c-41.98,41.98-110.03,41.98-152.01,0-41.98-41.98-41.98-110.03,0-152.01,41.98-41.98,110.03-41.98,152.01,0,41.98,41.98,41.98,110.03,0,152.01Zm64.24,89.51"/>
</svg>