<svg width="24" height="24" viewBox="0 0 24 24" fill="none" xmlns="http://www.w3.org/2000/svg">
<path d="M21 5H17M3 5H13M21 12H9M3 12H5M21 19H19M3 19H15" stroke="#2A566F" stroke-width="2" stroke-linecap="round"/>
<path d="M15 7C13.8954 7 13 6.10457 13 5C13 3.89543 13.8954 3 15 3C16.1046 3 17 3.89543 17 5C17 6.10457 16.1046 7 15 7Z" stroke="#2A566F" stroke-width="2" stroke-linecap="round"/>
<path d="M7 14C5.89543 14 5 13.1046 5 12C5 10.8954 5.89543 10 7 10C8.10457 10 9 10.8954 9 12C9 13.1046 8.10457 14 7 14Z" stroke="#2A566F" stroke-width="2" stroke-linecap="round"/>
<path d="M17 21C15.8954 21 15 20.1046 15 19C15 17.8954 15.8954 17 17 17C18.1046 17 19 17.8954 19 19C19 20.1046 18.1046 21 17 21Z" stroke="#2A566F" stroke-width="2" stroke-linecap="round"/>
</svg>
