<svg width="99" height="59" viewBox="0 0 99 59" fill="none" xmlns="http://www.w3.org/2000/svg">
<path d="M97.376 52.0421C99.2461 49.0397 99.2953 48.5147 98.0402 46.6494C96.9753 45.0137 95.6119 44.3034 91.6711 43.4045C82.5016 41.2213 78.1507 43.5676 86.7083 46.0642C89.2366 46.7777 91.2201 47.6521 91.1906 47.9671C91.0824 49.1221 82.4988 52.5547 76.8814 53.7231C60.4015 57.2102 42.2575 51.3261 37.2449 40.9527C35.7075 37.578 35.3218 35.4764 36.1831 34.7626C36.4702 34.5247 38.1798 34.3672 40.0222 34.4868C48.3188 34.6817 55.3864 30.4715 54.8842 25.6579C54.569 22.2389 47.6848 18.8398 42.3364 19.3979C39.0125 19.8279 35.3294 22.3957 33.2001 25.9034L31.3201 29.0108L25.942 26.4944C15.7863 21.8355 8.76739 15.3521 5.0756 7.27379C4.10754 5.17056 2.7014 2.65555 1.89253 1.67941L0.407688 0.00440333L0.411071 2.22909C0.412843 5.0362 2.61317 10.3796 5.8077 15.2866C9.0498 20.251 16.4427 26.1339 24.5378 30.176L30.9642 33.3733L31.8405 37.5864C35.5738 54.8308 62.3394 64.2238 83.3685 55.7079C86.0066 54.6841 88.6446 53.6602 89.1992 53.3944C89.9161 53.0908 90.0096 53.7881 89.3551 55.6863C88.845 57.1744 88.7646 58.5968 89.27 58.856C90.5185 59.6615 95.1219 55.75 97.376 52.0421ZM41.6757 30.4049C37.3019 30.7365 35.7399 29.3191 37.5707 26.7366C39.5836 23.9065 44.2462 22.7545 47.7556 24.3015C51.37 25.8583 51.37 25.8583 50.2971 27.1347C49.0322 28.7639 45.6198 30.1389 41.6757 30.4049Z" fill="#EEEEEE"/>
</svg>
