<svg width="280" height="312" viewBox="0 0 280 312" fill="none" xmlns="http://www.w3.org/2000/svg">
<g opacity="0.6" clip-path="url(#clip0_1652_2679)">
<path d="M-10.7221 146.504C-10.7221 146.504 45.9377 175.118 134.124 132.291C202.409 99.1322 243.176 114.722 283.011 187.067C322.853 259.408 337.815 301.169 424.675 285.997" stroke="#9AC3FF" stroke-width="0.53772" stroke-miterlimit="10"/>
<path d="M-10.3361 145.161C-10.3361 145.161 47.1999 172.138 134.791 132.059C202.758 100.959 242.662 118.656 283.435 189.476C324.208 260.303 338.52 300.007 425.016 285.726" stroke="#9AC3FF" stroke-width="0.53772" stroke-miterlimit="10"/>
<path d="M-9.95029 143.825C-9.95029 143.825 48.4819 169.16 135.459 131.827C203.115 102.781 242.143 122.583 283.859 191.892C325.57 261.2 339.226 298.845 425.364 285.462" stroke="#9AC3FF" stroke-width="0.53772" stroke-miterlimit="10"/>
<path d="M-9.55593 142.49C-9.55593 142.49 49.7844 166.191 136.129 131.594C203.487 104.611 241.632 126.511 284.28 194.306C326.928 262.095 339.934 297.683 425.701 285.197" stroke="#9AC3FF" stroke-width="0.53772" stroke-miterlimit="10"/>
<path d="M-9.16994 141.149C-9.16994 141.149 51.0912 163.218 136.796 131.363C203.869 106.431 241.118 130.447 284.703 196.722C328.288 262.998 340.639 296.522 426.041 284.933" stroke="#9AC3FF" stroke-width="0.53772" stroke-miterlimit="10"/>
<path d="M-8.78348 139.813C-8.78348 139.813 52.4176 160.253 137.458 131.13C204.253 108.256 240.6 134.374 285.123 199.131C329.645 263.888 341.34 295.354 426.385 284.656" stroke="#9AC3FF" stroke-width="0.53772" stroke-miterlimit="10"/>
<path d="M-8.39635 138.47C-8.39635 138.47 53.7574 157.283 138.126 130.898C204.661 110.085 240.088 138.302 285.547 201.546C331.007 264.79 342.046 294.192 426.733 284.393" stroke="#9AC3FF" stroke-width="0.53772" stroke-miterlimit="10"/>
<path d="M-8.00939 137.134C-8.00939 137.134 55.1152 154.329 138.795 130.666C205.083 111.916 239.569 142.236 285.966 203.96C332.363 265.685 342.753 293.03 427.069 284.127" stroke="#9AC3FF" stroke-width="0.53772" stroke-miterlimit="10"/>
<path d="M-7.61693 135.8C-7.61693 135.8 56.4968 151.385 139.463 130.441C205.516 113.762 239.056 146.171 286.39 206.383C333.725 266.582 343.459 291.869 427.411 283.857" stroke="#9AC3FF" stroke-width="0.53772" stroke-miterlimit="10"/>
<path d="M-7.23038 134.458C-7.23038 134.458 57.8898 148.449 140.131 130.202C205.968 115.597 238.544 150.099 286.816 208.786C335.087 267.479 344.165 290.707 427.759 283.594" stroke="#9AC3FF" stroke-width="0.53772" stroke-miterlimit="10"/>
<path d="M-6.84342 133.121C-6.84342 133.121 59.2951 145.527 140.794 129.969C206.427 117.445 238.026 154.026 287.228 211.199C336.438 268.373 344.865 289.544 428.096 283.322" stroke="#9AC3FF" stroke-width="0.53772" stroke-miterlimit="10"/>
<path d="M-6.45536 131.779C-6.45536 131.779 60.7134 142.607 141.463 129.737C206.897 119.302 237.508 157.953 287.654 213.615C337.8 269.276 345.572 288.382 428.438 283.057" stroke="#9AC3FF" stroke-width="0.53772" stroke-miterlimit="10"/>
<path d="M-6.06957 130.444C-6.06957 130.444 62.1522 139.716 142.124 129.504C207.378 121.174 236.989 161.888 288.072 216.03C339.149 270.171 346.272 287.22 428.779 282.794" stroke="#9AC3FF" stroke-width="0.53772" stroke-miterlimit="10"/>
<path d="M-5.68316 129.108C-5.68316 129.108 63.6026 136.84 142.792 129.279C207.882 123.062 236.476 165.822 288.497 218.445C340.512 271.067 346.984 286.059 429.121 282.529" stroke="#9AC3FF" stroke-width="0.53772" stroke-miterlimit="10"/>
<path d="M-5.2904 127.766C-5.2904 127.766 65.0694 133.979 143.467 129.041C208.398 124.951 235.97 169.745 288.922 220.854C341.873 271.964 347.691 284.891 429.469 282.259" stroke="#9AC3FF" stroke-width="0.53772" stroke-miterlimit="10"/>
<path d="M-4.90372 126.431C-4.90372 126.431 66.5466 131.145 144.129 128.809C208.907 126.859 235.451 173.679 289.341 223.269C343.23 272.86 348.391 283.729 429.806 281.988" stroke="#9AC3FF" stroke-width="0.53772" stroke-miterlimit="10"/>
<path d="M-4.51618 125.095C-4.51618 125.095 68.0284 128.332 144.798 128.583C209.439 128.789 234.933 177.613 289.767 225.685C344.593 273.756 349.105 282.568 430.155 281.725" stroke="#9AC3FF" stroke-width="0.53772" stroke-miterlimit="10"/>
<path d="M-4.12956 123.753C-4.12956 123.753 69.5185 125.538 145.46 128.343C209.969 130.726 234.415 181.534 290.185 228.093C345.949 274.651 349.805 281.399 430.491 281.453" stroke="#9AC3FF" stroke-width="0.53772" stroke-miterlimit="10"/>
<path d="M-3.74396 122.417C-3.74396 122.417 71.0113 122.772 146.127 128.118C210.506 132.697 233.901 185.475 290.602 230.514C347.303 275.554 350.503 280.243 430.831 281.195" stroke="#9AC3FF" stroke-width="0.53772" stroke-miterlimit="10"/>
<path d="M-3.34915 121.076C-3.34915 121.076 72.5226 120.027 146.804 127.88C211.051 134.674 233.397 189.398 291.035 232.924C348.673 276.451 351.225 279.077 431.181 280.925" stroke="#9AC3FF" stroke-width="0.53772" stroke-miterlimit="10"/>
<path d="M-2.96311 119.74C-2.96311 119.74 74.0159 117.306 147.464 127.654C211.591 136.683 232.878 193.331 291.453 235.345C350.028 277.353 351.923 277.92 431.522 280.661" stroke="#9AC3FF" stroke-width="0.53772" stroke-miterlimit="10"/>
<path d="M-2.57788 118.404C-2.57788 118.404 75.5168 114.619 148.132 127.422C212.127 138.705 232.357 197.265 291.877 237.754C351.39 278.243 352.628 276.759 431.864 280.39" stroke="#9AC3FF" stroke-width="0.53772" stroke-miterlimit="10"/>
<path d="M-2.1899 117.062C-2.1899 117.062 77.0052 111.942 148.795 127.182C212.663 140.747 231.841 201.186 292.291 240.162C352.741 279.137 353.33 275.59 432.201 280.119" stroke="#9AC3FF" stroke-width="0.53772" stroke-miterlimit="10"/>
<path d="M-1.80367 115.726C-1.80367 115.726 78.4955 109.293 149.463 126.957C213.187 142.82 231.327 205.128 292.715 242.584C354.103 280.041 354.035 274.435 432.542 279.861" stroke="#9AC3FF" stroke-width="0.53772" stroke-miterlimit="10"/>
<path d="M-1.41566 114.384C-1.41566 114.384 79.9713 106.66 150.126 126.718C213.705 144.897 230.81 209.049 293.136 244.986C355.459 280.936 354.743 273.267 432.885 279.591" stroke="#9AC3FF" stroke-width="0.53772" stroke-miterlimit="10"/>
<path d="M-1.02265 113.049C-1.02265 113.049 81.4421 104.059 150.8 126.493C214.224 147.008 230.304 212.984 293.566 247.409C356.828 281.834 355.45 272.106 433.234 279.321" stroke="#9AC3FF" stroke-width="0.53772" stroke-miterlimit="10"/>
<path d="M-0.63789 111.713C-0.63789 111.713 82.8966 101.469 151.467 126.261C214.721 149.129 229.784 216.912 293.983 249.824C358.183 282.729 356.155 270.944 433.574 279.057" stroke="#9AC3FF" stroke-width="0.53772" stroke-miterlimit="10"/>
<path d="M-0.249534 110.371C-0.249534 110.371 84.333 98.8891 152.13 126.028C215.204 151.273 229.266 220.845 294.403 252.238C359.539 283.631 356.856 269.781 433.911 278.791" stroke="#9AC3FF" stroke-width="0.53772" stroke-miterlimit="10"/>
<path d="M0.135772 109.035C0.135772 109.035 85.7572 96.3339 152.798 125.796C215.677 153.429 228.753 224.774 294.827 254.647C360.902 284.521 357.562 268.613 434.259 278.521" stroke="#9AC3FF" stroke-width="0.53772" stroke-miterlimit="10"/>
<path d="M0.523267 107.699C0.523267 107.699 87.1628 93.7886 153.461 125.563C216.131 155.595 228.242 228.702 295.247 257.062C362.252 285.422 358.269 267.451 434.595 278.256" stroke="#9AC3FF" stroke-width="0.53772" stroke-miterlimit="10"/>
<path d="M0.916271 106.359C0.916271 106.359 88.5594 91.2496 154.135 125.333C216.568 157.779 227.729 232.637 295.671 259.478C363.613 286.319 358.975 266.29 434.944 277.987" stroke="#9AC3FF" stroke-width="0.53772" stroke-miterlimit="10"/>
<path d="M1.3036 105.022C1.3036 105.022 89.9294 88.7251 154.804 125.1C216.992 159.967 227.211 236.564 296.097 261.893C364.977 287.215 359.682 265.128 435.286 277.722" stroke="#9AC3FF" stroke-width="0.53772" stroke-miterlimit="10"/>
<path d="M1.68958 103.68C1.68958 103.68 91.2781 86.1984 155.465 124.867C217.388 162.164 226.691 240.498 296.515 264.302C366.332 288.111 360.388 263.96 435.628 277.452" stroke="#9AC3FF" stroke-width="0.53772" stroke-miterlimit="10"/>
<path d="M2.07663 102.344C2.07663 102.344 92.6142 83.6827 156.134 124.635C217.771 164.373 226.179 244.426 296.934 266.716C367.689 289.007 361.088 262.804 435.964 277.187" stroke="#9AC3FF" stroke-width="0.53772" stroke-miterlimit="10"/>
<path d="M2.46229 101.008C2.46229 101.008 93.929 81.1706 156.795 124.403C218.132 166.585 225.66 248.36 297.352 269.131C369.044 289.902 361.787 261.642 436.306 276.916" stroke="#9AC3FF" stroke-width="0.53772" stroke-miterlimit="10"/>
<path d="M2.85047 99.6662C2.85047 99.6662 95.2271 78.6496 157.465 124.17C218.481 168.802 225.148 252.288 297.778 271.547C370.407 290.799 362.502 260.475 436.655 276.652" stroke="#9AC3FF" stroke-width="0.53772" stroke-miterlimit="10"/>
<path d="M3.24236 98.3314C3.24236 98.3314 96.51 76.1333 158.139 123.94C218.81 171.016 224.629 256.216 298.202 273.962C371.768 291.702 363.206 259.319 436.996 276.388" stroke="#9AC3FF" stroke-width="0.53772" stroke-miterlimit="10"/>
<path d="M3.62975 96.9892C3.62975 96.9892 97.7755 73.6078 158.801 123.707C219.127 173.228 224.117 260.151 298.621 276.371C373.125 292.591 363.907 258.151 437.332 276.117" stroke="#9AC3FF" stroke-width="0.53772" stroke-miterlimit="10"/>
<path d="M4.01711 95.653C4.01711 95.653 99.0282 71.0866 159.47 123.474C219.431 175.445 223.606 264.079 299.047 278.786C374.488 293.493 364.621 256.989 437.681 275.853" stroke="#9AC3FF" stroke-width="0.53772" stroke-miterlimit="10"/>
<path d="M4.40324 94.3175C4.40324 94.3175 100.261 68.5635 160.131 123.248C219.707 177.665 223.086 268.013 299.464 281.207C375.843 294.396 365.32 255.834 438.016 275.588" stroke="#9AC3FF" stroke-width="0.53772" stroke-miterlimit="10"/>
<path d="M4.79105 92.975C4.79105 92.975 101.483 66.0251 160.801 123.009C219.987 179.865 222.575 271.941 299.891 283.61C377.207 295.285 366.028 254.659 438.367 275.312" stroke="#9AC3FF" stroke-width="0.53772" stroke-miterlimit="10"/>
<path d="M5.17715 91.6394C5.17715 91.6394 102.692 63.4856 161.469 122.778C220.246 182.07 222.056 275.868 300.309 286.025C378.563 296.181 366.734 253.498 438.702 275.047" stroke="#9AC3FF" stroke-width="0.53772" stroke-miterlimit="10"/>
<g opacity="0.3">
<path d="M0.130789 134.328C0.130789 134.328 90.8346 149.041 146.958 102.913C203.082 56.7848 251.86 43.3795 299.943 131.723C348.034 220.061 397.417 273.312 497.65 216.968" stroke="#9AC3FF" stroke-width="0.53772" stroke-miterlimit="10"/>
<path d="M496.117 218.152C398.334 273.121 351.057 217.981 301.738 131.472C252.42 44.9641 204.143 61.3149 146.3 104.062C88.4567 146.81 -0.159408 130.056 -1.63338 130.338" stroke="#9AC3FF" stroke-width="0.53772" stroke-miterlimit="10"/>
<path d="M494.584 219.335C399.244 272.929 354.073 215.899 303.527 131.22C252.982 46.5412 205.204 65.8502 145.636 105.21C86.0675 144.569 -0.448037 125.776 -3.39687 126.347" stroke="#9AC3FF" stroke-width="0.53772" stroke-miterlimit="10"/>
<path d="M493.055 220.519C400.159 272.737 357.094 213.818 305.32 130.968C253.546 48.1254 206.263 70.3791 144.982 106.359C83.6942 142.338 -0.733571 121.503 -5.15 122.358" stroke="#9AC3FF" stroke-width="0.53772" stroke-miterlimit="10"/>
<path d="M491.521 221.703C401.069 272.546 360.11 211.73 307.107 130.723C254.106 49.7099 207.321 74.9218 144.315 107.514C81.3092 140.106 -1.0245 117.23 -6.91579 118.375" stroke="#9AC3FF" stroke-width="0.53772" stroke-miterlimit="10"/>
<path d="M489.988 222.886C401.977 272.36 363.131 209.649 308.895 130.471C254.659 51.2922 208.382 79.4505 143.649 108.667C78.9235 137.879 -1.32146 112.956 -8.6876 114.389" stroke="#9AC3FF" stroke-width="0.53772" stroke-miterlimit="10"/>
<path d="M488.46 224.07C402.9 272.17 366.153 207.569 310.689 130.22C255.226 52.8708 209.441 83.9864 142.99 109.816C76.5386 135.646 -1.6059 108.684 -10.446 110.399" stroke="#9AC3FF" stroke-width="0.53772" stroke-miterlimit="10"/>
<path d="M486.927 225.253C403.81 271.977 369.169 205.487 312.478 129.974C255.786 54.4606 210.502 88.5217 142.331 110.971C74.1612 133.414 -1.89549 104.41 -12.2041 106.416" stroke="#9AC3FF" stroke-width="0.53772" stroke-miterlimit="10"/>
<path d="M485.393 226.437C404.72 271.786 372.184 203.405 314.265 129.722C256.345 56.0447 211.555 93.0568 141.665 112.119C71.7762 131.182 -2.19271 100.136 -13.9689 102.425" stroke="#9AC3FF" stroke-width="0.53772" stroke-miterlimit="10"/>
<path d="M483.864 227.621C405.634 271.594 375.211 201.325 316.057 129.477C256.91 57.6292 212.619 97.5931 141.004 113.274C69.3887 128.955 -2.47884 95.8635 -15.7363 98.441" stroke="#9AC3FF" stroke-width="0.53772" stroke-miterlimit="10"/>
<path d="M482.332 228.804C406.546 271.402 378.228 199.244 317.847 129.225C257.466 59.2059 213.675 102.122 140.34 114.422C67.0068 126.716 -2.77303 91.5832 -17.4981 94.4443" stroke="#9AC3FF" stroke-width="0.53772" stroke-miterlimit="10"/>
<path d="M480.797 229.987C407.459 271.217 381.242 197.162 319.633 128.972C258.024 60.7892 214.732 106.657 139.679 115.57C64.6265 124.484 -3.0591 87.3103 -19.2581 90.454" stroke="#9AC3FF" stroke-width="0.53772" stroke-miterlimit="10"/>
<path d="M479.263 231.171C408.368 271.025 384.258 195.074 321.42 128.727C258.583 62.3734 215.785 111.192 139.013 116.725C62.2407 122.258 -3.35634 83.0365 -21.0302 86.4692" stroke="#9AC3FF" stroke-width="0.53772" stroke-miterlimit="10"/>
<path d="M477.737 232.354C409.286 270.834 387.281 192.992 323.216 128.475C259.151 63.9575 216.853 115.728 138.356 117.873C59.8584 120.018 -3.63898 78.7636 -22.7868 82.4789" stroke="#9AC3FF" stroke-width="0.53772" stroke-miterlimit="10"/>
<path d="M476.201 233.538C410.194 270.642 390.301 190.912 325.002 128.223C259.703 65.5346 217.905 120.257 137.688 119.022C57.4717 117.786 -3.93698 74.4836 -24.5533 78.4889" stroke="#9AC3FF" stroke-width="0.53772" stroke-miterlimit="10"/>
<path d="M474.669 234.721C411.105 270.45 393.317 188.83 326.79 127.977C260.264 67.1181 218.966 124.792 137.03 120.176C55.0937 115.56 -4.22089 70.2174 -26.3112 74.5053" stroke="#9AC3FF" stroke-width="0.53772" stroke-miterlimit="10"/>
<path d="M473.14 235.906C412.026 270.26 396.338 186.75 328.583 127.727C260.829 68.7033 220.024 129.328 136.369 121.326C52.7083 113.322 -4.51212 65.9382 -28.0773 70.5152" stroke="#9AC3FF" stroke-width="0.53772" stroke-miterlimit="10"/>
<path d="M471.607 237.095C412.936 270.074 399.354 184.668 330.372 127.48C261.39 70.2865 221.085 133.864 135.704 122.479C50.324 111.095 -4.80147 61.6644 -29.8415 66.5304" stroke="#9AC3FF" stroke-width="0.53772" stroke-miterlimit="10"/>
<path d="M470.072 238.279C413.845 269.882 402.375 182.594 332.158 127.235C261.948 71.877 222.136 138.405 135.037 123.634C47.9376 108.869 -5.1 57.3969 -31.6076 62.5465" stroke="#9AC3FF" stroke-width="0.53772" stroke-miterlimit="10"/>
<path d="M468.546 239.456C414.761 269.69 405.397 180.506 333.953 126.977C262.509 73.4474 223.204 142.928 134.386 124.776C45.5673 106.625 -5.37619 53.1121 -33.3587 58.5507" stroke="#9AC3FF" stroke-width="0.53772" stroke-miterlimit="10"/>
<path d="M467.012 240.639C415.67 269.498 408.412 178.425 335.741 126.725C263.069 75.0314 224.258 147.457 133.72 125.924C43.1758 104.391 -5.67352 48.8381 -35.13 54.5593" stroke="#9AC3FF" stroke-width="0.53772" stroke-miterlimit="10"/>
<path d="M465.476 241.829C416.585 269.313 411.427 176.343 337.526 126.485C263.627 76.6213 225.315 152.005 133.052 127.085C40.7894 102.164 -5.97217 44.5701 -36.8971 50.5812" stroke="#9AC3FF" stroke-width="0.53772" stroke-miterlimit="10"/>
<path d="M463.944 243.012C417.496 269.121 414.45 174.262 339.316 126.233C264.188 78.2052 226.371 156.533 132.388 128.233C38.4063 99.9319 -6.26121 40.297 -38.6601 46.5907" stroke="#9AC3FF" stroke-width="0.53772" stroke-miterlimit="10"/>
<path d="M462.416 244.197C418.411 268.93 417.471 172.181 341.109 125.982C264.748 79.7829 227.436 161.07 131.728 129.388C36.027 97.7003 -6.5463 36.0248 -40.4192 42.6013" stroke="#9AC3FF" stroke-width="0.53772" stroke-miterlimit="10"/>
<path d="M460.883 245.38C419.321 268.738 420.487 170.1 342.897 125.737C265.307 81.3731 228.489 165.605 131.068 130.543C33.6416 95.474 -6.83666 31.7517 -42.1844 38.6171" stroke="#9AC3FF" stroke-width="0.53772" stroke-miterlimit="10"/>
<path d="M459.348 246.563C420.236 268.553 423.502 168.018 344.684 125.484C265.867 82.9502 229.549 170.134 130.402 131.691C31.2627 93.2418 -7.12696 27.4717 -43.9432 34.627" stroke="#9AC3FF" stroke-width="0.53772" stroke-miterlimit="10"/>
<path d="M457.82 247.747C421.151 268.362 426.529 165.938 346.477 125.239C266.431 84.5415 230.607 174.676 129.742 132.846C28.8771 91.0093 -7.41839 23.1987 -45.7086 30.6367" stroke="#9AC3FF" stroke-width="0.53772" stroke-miterlimit="10"/>
<path d="M456.287 248.931C422.061 268.171 429.545 163.857 348.265 124.988C266.992 86.1192 231.668 179.206 129.083 133.995C26.4926 88.7768 -7.70876 18.9256 -47.4738 26.6527" stroke="#9AC3FF" stroke-width="0.53772" stroke-miterlimit="10"/>
<path d="M454.752 250.114C422.97 267.978 432.56 161.774 350.053 124.735C267.545 87.7012 232.727 183.741 128.417 135.142C24.1075 86.5433 -7.99975 14.6516 -49.2388 22.6613" stroke="#9AC3FF" stroke-width="0.53772" stroke-miterlimit="10"/>
<path d="M453.226 251.298C423.888 267.787 435.583 159.687 351.847 124.49C268.112 89.2862 233.787 188.277 127.758 136.297C21.7303 84.3117 -8.28918 10.3786 -50.9958 18.6718" stroke="#9AC3FF" stroke-width="0.53772" stroke-miterlimit="10"/>
<path d="M451.691 252.482C424.802 267.596 438.597 157.606 353.634 124.238C268.671 90.8702 234.846 192.806 127.091 137.445C19.3438 82.0792 -8.58155 6.10553 -52.763 14.6878" stroke="#9AC3FF" stroke-width="0.53772" stroke-miterlimit="10"/>
<path d="M450.157 253.665C425.71 267.41 441.618 155.525 355.421 123.986C269.231 92.4473 235.899 197.34 126.426 138.593C16.9522 79.8452 -8.87811 1.82466 -54.5344 10.696" stroke="#9AC3FF" stroke-width="0.53772" stroke-miterlimit="10"/>
<path d="M448.63 254.849C426.627 267.219 444.641 153.444 357.216 123.741C269.791 94.0313 236.966 201.877 125.773 139.749C14.5812 77.6145 -9.16137 -2.44748 -56.2853 6.70737" stroke="#9AC3FF" stroke-width="0.53772" stroke-miterlimit="10"/>
<path d="M447.097 256.032C427.537 267.027 447.657 151.363 359.004 123.489C270.351 95.6153 238.019 206.412 125.108 140.897C12.1967 75.382 -9.45166 -6.72049 -58.0505 2.72338" stroke="#9AC3FF" stroke-width="0.53772" stroke-miterlimit="10"/>
<path d="M445.563 257.215C428.453 266.835 450.678 149.281 360.798 123.237C270.918 97.1928 239.086 210.942 124.449 142.045C9.81161 73.1485 -9.74261 -10.9946 -59.8154 -1.26804" stroke="#9AC3FF" stroke-width="0.53772" stroke-miterlimit="10"/>
<path d="M444.029 258.398C429.363 266.643 453.694 147.194 362.585 122.992C271.477 98.7831 240.139 215.477 123.782 143.199C7.43287 70.9168 -10.0336 -15.2677 -61.574 -5.2576" stroke="#9AC3FF" stroke-width="0.53772" stroke-miterlimit="10"/>
<path d="M442.501 259.583C430.278 266.452 456.715 145.119 364.373 122.74C272.037 100.361 241.198 220.013 123.123 144.348C5.04787 68.6844 -10.3244 -19.5406 -63.3397 -9.2415" stroke="#9AC3FF" stroke-width="0.53772" stroke-miterlimit="10"/>
<path d="M440.967 260.766C431.188 266.26 459.73 143.031 366.16 122.487C272.59 101.943 242.252 224.541 122.457 145.496C2.66253 66.4513 -10.6148 -23.8206 -65.1049 -13.2325" stroke="#9AC3FF" stroke-width="0.53772" stroke-miterlimit="10"/>
<path d="M439.433 261.949C432.097 266.068 462.745 140.95 367.947 122.242C273.149 103.527 243.31 229.083 121.791 146.65C0.277511 64.2187 -10.9057 -28.0937 -66.8697 -17.2229" stroke="#9AC3FF" stroke-width="0.53772" stroke-miterlimit="10"/>
<path d="M437.905 263.134C433.018 265.884 465.773 138.87 369.747 121.992C273.721 105.113 244.377 233.613 121.138 147.8C-2.10202 61.9934 -11.1965 -32.3668 -68.6291 -21.2061" stroke="#9AC3FF" stroke-width="0.53772" stroke-miterlimit="10"/>
<path d="M436.371 264.317C433.928 265.693 468.788 136.788 371.528 121.745C274.274 106.696 245.429 238.148 120.471 148.954C-4.48712 59.7609 -11.4875 -36.6399 -70.394 -25.1965" stroke="#9AC3FF" stroke-width="0.53772" stroke-miterlimit="10"/>
<path d="M434.837 265.5C434.837 265.5 471.804 134.706 373.322 121.493C274.834 108.28 246.489 242.683 119.812 150.103C-6.87175 57.5277 -11.778 -40.9136 -72.1585 -29.1876" stroke="#9AC3FF" stroke-width="0.53772" stroke-miterlimit="10"/>
</g>
</g>
<defs>
<clipPath id="clip0_1652_2679">
<rect width="598.501" height="264.385" fill="white" transform="matrix(-0.990533 -0.137271 -0.137271 0.990533 520.98 50.0254)"/>
</clipPath>
</defs>
</svg>
