<svg width="88" height="105" viewBox="0 0 88 105" fill="none" xmlns="http://www.w3.org/2000/svg">
<g id="Group">
<g id="Group_2">
<path id="Vector" d="M84.0236 2.13891C84.0134 2.77333 84.5249 3.29518 85.1591 3.30541C85.7934 3.31564 86.3152 2.80403 86.3254 2.16961C86.3357 1.53519 85.8241 1.01331 85.1898 1.00308C84.5555 0.992848 84.0338 1.50449 84.0236 2.13891Z" fill="#BDBDBD"/>
<path id="Vector_2" d="M73.6798 2.01587C73.6696 2.65029 74.1812 3.17213 74.8155 3.18237C75.4497 3.1926 75.9714 2.68098 75.9817 2.04656C75.9919 1.41214 75.4804 0.890266 74.8461 0.880034C74.2016 0.869801 73.6798 1.38145 73.6798 2.01587Z" fill="#BDBDBD"/>
<path id="Vector_3" d="M63.3263 1.8829C63.3161 2.51732 63.8276 3.03917 64.4619 3.0494C65.0962 3.05963 65.6179 2.54802 65.6282 1.9136C65.6384 1.27918 65.1269 0.757303 64.4926 0.74707C63.8583 0.74707 63.3366 1.24848 63.3263 1.8829Z" fill="#BDBDBD"/>
<path id="Vector_4" d="M52.9748 1.76001C52.9645 2.39443 53.476 2.91627 54.1103 2.92651C54.7446 2.93674 55.2664 2.42512 55.2766 1.7907C55.2868 1.15628 54.7753 0.634407 54.141 0.624174C53.5068 0.613942 52.985 1.12559 52.9748 1.76001Z" fill="#BDBDBD"/>
<path id="Vector_5" d="M42.631 1.63693C42.6208 2.27135 43.1323 2.79323 43.7666 2.80346C44.4009 2.81369 44.9226 2.30205 44.9328 1.66763C44.9431 1.03321 44.4316 0.51136 43.7973 0.501127C43.1528 0.490895 42.631 1.00251 42.631 1.63693Z" fill="#BDBDBD"/>
<path id="Vector_6" d="M32.2775 1.51486C32.2673 2.14928 32.7788 2.67116 33.4131 2.68139C34.0473 2.69162 34.5691 2.17998 34.5793 1.54556C34.5896 0.911135 34.0781 0.38929 33.4438 0.379057C32.7993 0.368825 32.2877 0.880439 32.2775 1.51486Z" fill="#BDBDBD"/>
<path id="Vector_7" d="M21.924 1.3819C21.9137 2.01632 22.4253 2.53819 23.0595 2.54843C23.6938 2.55866 24.2156 2.04701 24.2258 1.41259C24.236 0.778172 23.7245 0.256326 23.0902 0.246094C22.4559 0.246094 21.9342 0.747475 21.924 1.3819Z" fill="#BDBDBD"/>
<path id="Vector_8" d="M11.5724 1.25885C11.5622 1.89327 12.0737 2.41515 12.708 2.42538C13.3423 2.43561 13.864 1.92397 13.8743 1.28955C13.8845 0.655125 13.373 0.133279 12.7387 0.123047C12.1044 0.123047 11.5826 0.624429 11.5724 1.25885Z" fill="#BDBDBD"/>
<path id="Vector_9" d="M1.22867 1.13595C1.21844 1.77037 1.72994 2.29225 2.36423 2.30248C2.99851 2.31272 3.52027 1.80107 3.53051 1.16665C3.54074 0.532229 3.0292 0.0103834 2.39492 0.000150862C1.76063 -0.0100817 1.2389 0.501533 1.22867 1.13595Z" fill="#BDBDBD"/>
</g>
<g id="Group_3">
<path id="Vector_10" d="M83.9103 11.3381C83.9001 11.9725 84.4116 12.4944 85.0459 12.5046C85.6802 12.5149 86.2019 12.0032 86.2121 11.3688C86.2224 10.7344 85.7109 10.2125 85.0766 10.2023C84.4423 10.1921 83.9205 10.7037 83.9103 11.3381Z" fill="#BDBDBD"/>
<path id="Vector_11" d="M73.5666 11.2151C73.5563 11.8495 74.0678 12.3714 74.7021 12.3816C75.3364 12.3918 75.8582 11.8802 75.8684 11.2458C75.8786 10.6114 75.3671 10.0895 74.7328 10.0793C74.0883 10.069 73.5666 10.5807 73.5666 11.2151Z" fill="#BDBDBD"/>
<path id="Vector_12" d="M63.213 11.092C63.2028 11.7265 63.7143 12.2483 64.3486 12.2585C64.9829 12.2688 65.5046 11.7572 65.5149 11.1227C65.5251 10.4883 65.0136 9.96644 64.3793 9.95621C63.745 9.94597 63.2233 10.4576 63.213 11.092Z" fill="#BDBDBD"/>
<path id="Vector_13" d="M52.8615 10.969C52.8512 11.6034 53.3628 12.1253 53.997 12.1355C54.6313 12.1457 55.1531 11.6341 55.1633 10.9997C55.1735 10.3653 54.662 9.84339 54.0278 9.83316C53.3935 9.82293 52.8717 10.3243 52.8615 10.969Z" fill="#BDBDBD"/>
<path id="Vector_14" d="M42.5177 10.8362C42.5075 11.4706 43.019 11.9924 43.6533 12.0027C44.2876 12.0129 44.8093 11.5013 44.8196 10.8669C44.8298 10.2325 44.3182 9.71058 43.6839 9.70035C43.0394 9.69011 42.5177 10.2018 42.5177 10.8362Z" fill="#BDBDBD"/>
<path id="Vector_15" d="M32.1642 10.7141C32.154 11.3485 32.6655 11.8704 33.2998 11.8806C33.9341 11.8908 34.4558 11.3792 34.4661 10.7448C34.4763 10.1104 33.9647 9.58851 33.3304 9.57828C32.6961 9.56804 32.1744 10.0797 32.1642 10.7141Z" fill="#BDBDBD"/>
<path id="Vector_16" d="M21.8107 10.591C21.8005 11.2255 22.312 11.7473 22.9463 11.7576C23.5806 11.7678 24.1023 11.2561 24.1125 10.6217C24.1228 9.98731 23.6113 9.46546 22.977 9.45523C22.3427 9.445 21.8209 9.95661 21.8107 10.591Z" fill="#BDBDBD"/>
<path id="Vector_17" d="M11.4689 10.468C11.4587 11.1024 11.9702 11.6243 12.6045 11.6345C13.2387 11.6447 13.7605 11.1331 13.7707 10.4987C13.781 9.86426 13.2694 9.34242 12.6351 9.33219C11.9906 9.32195 11.4689 9.82333 11.4689 10.468Z" fill="#BDBDBD"/>
<path id="Vector_18" d="M1.11539 10.335C1.10515 10.9694 1.61669 11.4913 2.25098 11.5016C2.88526 11.5118 3.40699 11.0001 3.41722 10.3657C3.42745 9.7313 2.91595 9.20945 2.28167 9.19922C1.64738 9.19922 1.12562 9.7006 1.11539 10.335Z" fill="#BDBDBD"/>
</g>
<g id="Group_4">
<path id="Vector_19" d="M83.8068 20.5372C83.7966 21.1716 84.3081 21.6935 84.9424 21.7037C85.5766 21.7139 86.0984 21.2023 86.1086 20.5679C86.1189 19.9334 85.6074 19.4116 84.9731 19.4014C84.3286 19.4014 83.8068 19.9027 83.8068 20.5372Z" fill="#BDBDBD"/>
<path id="Vector_20" d="M73.4533 20.4143C73.443 21.0487 73.9546 21.5706 74.5888 21.5808C75.2231 21.591 75.7449 21.0794 75.7551 20.445C75.7653 19.8105 75.2538 19.2887 74.6196 19.2785C73.975 19.2682 73.4635 19.7799 73.4533 20.4143Z" fill="#BDBDBD"/>
<path id="Vector_21" d="M63.0998 20.2912C63.0895 20.9256 63.601 21.4475 64.2353 21.4578C64.8696 21.468 65.3914 20.9563 65.4016 20.3219C65.4118 19.6875 64.9003 19.1657 64.266 19.1554C63.6318 19.1452 63.11 19.6568 63.0998 20.2912Z" fill="#BDBDBD"/>
<path id="Vector_22" d="M52.7482 20.1682C52.738 20.8026 53.2495 21.3245 53.8838 21.3347C54.518 21.3449 55.0398 20.8333 55.05 20.1989C55.0603 19.5645 54.5487 19.0426 53.9144 19.0324C53.2801 19.0221 52.7584 19.5338 52.7482 20.1682Z" fill="#BDBDBD"/>
<path id="Vector_23" d="M42.4044 20.0352C42.3942 20.6696 42.9058 21.1915 43.5401 21.2017C44.1744 21.212 44.6961 20.7003 44.7063 20.0659C44.7165 19.4315 44.205 18.9096 43.5707 18.8994C42.9262 18.8994 42.4147 19.4008 42.4044 20.0352Z" fill="#BDBDBD"/>
<path id="Vector_24" d="M32.0509 19.9124C32.0407 20.5468 32.5523 21.0686 33.1866 21.0788C33.8208 21.0891 34.3425 20.5775 34.3528 19.943C34.363 19.3086 33.8515 18.7868 33.2172 18.7765C32.5829 18.7663 32.0612 19.2779 32.0509 19.9124Z" fill="#BDBDBD"/>
<path id="Vector_25" d="M21.6974 19.7893C21.6872 20.4237 22.1987 20.9456 22.833 20.9558C23.4673 20.966 23.989 20.4544 23.9993 19.82C24.0095 19.1856 23.4979 18.6637 22.8637 18.6535C22.2294 18.6432 21.7076 19.1549 21.6974 19.7893Z" fill="#BDBDBD"/>
<path id="Vector_26" d="M11.3556 19.6672C11.3454 20.3017 11.8569 20.8235 12.4912 20.8337C13.1255 20.844 13.6472 20.3324 13.6575 19.6979C13.6677 19.0635 13.1562 18.5416 12.5219 18.5314C11.8774 18.5212 11.3658 19.0328 11.3556 19.6672Z" fill="#BDBDBD"/>
<path id="Vector_27" d="M1.0021 19.5442C0.991874 20.1786 1.50338 20.7005 2.13766 20.7107C2.77195 20.7209 3.29371 20.2093 3.30394 19.5749C3.31417 18.9404 2.80264 18.4186 2.16835 18.4084C1.53407 18.3981 1.01233 18.9097 1.0021 19.5442Z" fill="#BDBDBD"/>
</g>
<g id="Group_5">
<path id="Vector_28" d="M83.6955 29.7463C83.6852 30.3807 84.1967 30.9026 84.831 30.9128C85.4653 30.9231 85.9871 30.4114 85.9973 29.777C86.0075 29.1426 85.496 28.6207 84.8617 28.6105C84.2172 28.6003 83.6955 29.1119 83.6955 29.7463Z" fill="#BDBDBD"/>
<path id="Vector_29" d="M73.3419 29.6237C73.3317 30.2581 73.8432 30.78 74.4775 30.7902C75.1118 30.7902 75.6336 30.2888 75.6438 29.6544C75.654 29.02 75.1424 28.4981 74.5082 28.4879C73.8739 28.4674 73.3522 28.979 73.3419 29.6237Z" fill="#BDBDBD"/>
<path id="Vector_30" d="M62.9884 29.4904C62.9782 30.1249 63.4897 30.6467 64.124 30.657C64.7583 30.6672 65.28 30.1556 65.2903 29.5211C65.3005 28.8867 64.7889 28.3649 64.1546 28.3546C63.5204 28.3444 62.9987 28.856 62.9884 29.4904Z" fill="#BDBDBD"/>
<path id="Vector_31" d="M52.6466 29.3674C52.6364 30.0018 53.148 30.5237 53.7823 30.5339C54.4165 30.5442 54.9382 30.0325 54.9485 29.3981C54.9587 28.7637 54.4472 28.2418 53.8129 28.2316C53.1684 28.2214 52.6466 28.733 52.6466 29.3674Z" fill="#BDBDBD"/>
<path id="Vector_32" d="M42.2931 29.2444C42.2829 29.8788 42.7944 30.4006 43.4287 30.4109C44.063 30.4211 44.5847 29.9095 44.595 29.275C44.6052 28.6406 44.0937 28.1188 43.4594 28.1085C42.8251 28.0983 42.3033 28.6099 42.2931 29.2444Z" fill="#BDBDBD"/>
<path id="Vector_33" d="M31.9396 29.1223C31.9294 29.7567 32.4409 30.2786 33.0752 30.2888C33.7094 30.299 34.2312 29.7874 34.2414 29.153C34.2517 28.5186 33.7402 27.9967 33.1059 27.9865C32.4716 27.9762 31.9498 28.4879 31.9396 29.1223Z" fill="#BDBDBD"/>
<path id="Vector_34" d="M21.5978 28.9893C21.5876 29.6237 22.0991 30.1456 22.7334 30.1558C23.3677 30.1661 23.8894 29.6544 23.8996 29.02C23.9099 28.3856 23.3983 27.8637 22.7641 27.8535C22.1195 27.8535 21.5978 28.3549 21.5978 28.9893Z" fill="#BDBDBD"/>
<path id="Vector_35" d="M11.2443 28.8665C11.2341 29.5009 11.7456 30.0227 12.3799 30.033C13.0141 30.0432 13.5359 29.5316 13.5461 28.8971C13.5564 28.2627 13.0448 27.7409 12.4105 27.7306C11.7763 27.7204 11.2545 28.232 11.2443 28.8665Z" fill="#BDBDBD"/>
<path id="Vector_36" d="M0.890776 28.7434C0.880545 29.3778 1.39208 29.8997 2.02637 29.9099C2.66065 29.9201 3.18238 29.4085 3.19261 28.7741C3.20284 28.1397 2.69134 27.6178 2.05706 27.6076C1.42277 27.5973 0.901006 28.109 0.890776 28.7434Z" fill="#BDBDBD"/>
</g>
<g id="Group_6">
<path id="Vector_37" d="M83.5822 38.9456C83.572 39.58 84.0835 40.1018 84.7178 40.1121C85.3521 40.1223 85.8738 39.6107 85.884 38.9763C85.8943 38.3418 85.3827 37.82 84.7485 37.8097C84.1039 37.7995 83.5822 38.3111 83.5822 38.9456Z" fill="#BDBDBD"/>
<path id="Vector_38" d="M73.2287 38.8225C73.2184 39.4569 73.73 39.9788 74.3643 39.989C74.9986 39.9992 75.5203 39.4876 75.5305 38.8532C75.5407 38.2188 75.0292 37.6969 74.3949 37.6867C73.7607 37.6764 73.2389 38.1779 73.2287 38.8225Z" fill="#BDBDBD"/>
<path id="Vector_39" d="M62.8752 38.6895C62.8649 39.324 63.3765 39.8458 64.0108 39.856C64.6451 39.8663 65.1668 39.3547 65.177 38.7202C65.1872 38.0858 64.6757 37.5639 64.0414 37.5537C63.4071 37.5537 62.8854 38.0551 62.8752 38.6895Z" fill="#BDBDBD"/>
<path id="Vector_40" d="M52.5334 38.5666C52.5231 39.2011 53.0346 39.7229 53.6689 39.7331C54.3032 39.7434 54.825 39.2318 54.8352 38.5973C54.8454 37.9629 54.3339 37.441 53.6996 37.4308C53.0551 37.4206 52.5436 37.9322 52.5334 38.5666Z" fill="#BDBDBD"/>
<path id="Vector_41" d="M42.1798 38.4436C42.1696 39.078 42.6811 39.5999 43.3154 39.6101C43.9497 39.6203 44.4714 39.1087 44.4817 38.4743C44.4919 37.8398 43.9804 37.318 43.3461 37.3078C42.7118 37.2975 42.1901 37.8091 42.1798 38.4436Z" fill="#BDBDBD"/>
<path id="Vector_42" d="M31.8263 38.3215C31.8161 38.9559 32.3276 39.4778 32.9619 39.488C33.5962 39.4983 34.1179 38.9866 34.1282 38.3522C34.1384 37.7178 33.6269 37.1959 32.9926 37.1857C32.3583 37.1755 31.8366 37.6871 31.8263 38.3215Z" fill="#BDBDBD"/>
<path id="Vector_43" d="M21.4845 38.1985C21.4743 38.8329 21.9858 39.3547 22.6201 39.365C23.2544 39.3752 23.7761 38.8636 23.7864 38.2291C23.7966 37.5947 23.2851 37.0729 22.6508 37.0627C22.0165 37.0524 21.4948 37.564 21.4845 38.1985Z" fill="#BDBDBD"/>
<path id="Vector_44" d="M11.131 38.0655C11.1208 38.6999 11.6323 39.2218 12.2666 39.232C12.9009 39.2423 13.4226 38.7306 13.4328 38.0962C13.4431 37.4618 12.9316 36.9399 12.2973 36.9297C11.663 36.9297 11.1412 37.4311 11.131 38.0655Z" fill="#BDBDBD"/>
<path id="Vector_45" d="M0.777495 37.9426C0.767264 38.577 1.27877 39.0989 1.91305 39.1091C2.54734 39.1194 3.0691 38.6077 3.07933 37.9733C3.08956 37.3389 2.57803 36.817 1.94374 36.8068C1.30946 36.7966 0.787725 37.3082 0.777495 37.9426Z" fill="#BDBDBD"/>
</g>
<g id="Group_7">
<path id="Vector_46" d="M83.4709 48.1438C83.4606 48.7782 83.9721 49.3001 84.6064 49.3103C85.2407 49.3205 85.7625 48.8089 85.7727 48.1745C85.7829 47.54 85.2714 47.0182 84.6371 47.008C84.0028 46.9977 83.4811 47.5093 83.4709 48.1438Z" fill="#BDBDBD"/>
<path id="Vector_47" d="M73.1173 48.0217C73.1071 48.6561 73.6186 49.178 74.2529 49.1882C74.8872 49.1985 75.4089 48.6868 75.4192 48.0524C75.4294 47.418 74.9179 46.8961 74.2836 46.8859C73.6493 46.8757 73.1276 47.3873 73.1173 48.0217Z" fill="#BDBDBD"/>
<path id="Vector_48" d="M62.7736 47.8987C62.7634 48.5331 63.2749 49.0549 63.9091 49.0652C64.5434 49.0754 65.0652 48.5638 65.0754 47.9294C65.0857 47.295 64.5742 46.7731 63.9399 46.7628C63.2954 46.7526 62.7736 47.2643 62.7736 47.8987Z" fill="#BDBDBD"/>
<path id="Vector_49" d="M52.422 47.7756C52.4118 48.4101 52.9233 48.9319 53.5576 48.9421C54.1919 48.9524 54.7136 48.4408 54.7239 47.8063C54.7341 47.1719 54.2226 46.65 53.5883 46.6398C52.954 46.6296 52.4323 47.131 52.422 47.7756Z" fill="#BDBDBD"/>
<path id="Vector_50" d="M42.0685 47.6428C42.0583 48.2772 42.5698 48.7991 43.2041 48.8093C43.8384 48.8196 44.3601 48.3079 44.3703 47.6735C44.3806 47.0391 43.869 46.5172 43.2347 46.507C42.6004 46.4968 42.0787 47.0084 42.0685 47.6428Z" fill="#BDBDBD"/>
<path id="Vector_51" d="M31.7248 47.5198C31.7145 48.1542 32.2261 48.676 32.8604 48.6863C33.4947 48.6965 34.0164 48.1849 34.0266 47.5505C34.0368 46.916 33.5253 46.3942 32.891 46.3839C32.2465 46.3737 31.7248 46.8854 31.7248 47.5198Z" fill="#BDBDBD"/>
<path id="Vector_52" d="M21.3712 47.3967C21.361 48.0311 21.8725 48.553 22.5068 48.5632C23.1411 48.5735 23.6629 48.0618 23.6731 47.4274C23.6833 46.793 23.1718 46.2711 22.5375 46.2609C21.9032 46.2507 21.3815 46.7623 21.3712 47.3967Z" fill="#BDBDBD"/>
<path id="Vector_53" d="M11.0197 47.2746C11.0095 47.909 11.521 48.4309 12.1552 48.4412C12.7895 48.4514 13.3113 47.9397 13.3215 47.3053C13.3318 46.6709 12.8202 46.1491 12.1859 46.1388C11.5516 46.1286 11.0299 46.63 11.0197 47.2746Z" fill="#BDBDBD"/>
<path id="Vector_54" d="M0.675932 47.1516C0.665702 47.786 1.17724 48.3079 1.81152 48.3181C2.44581 48.3283 2.96754 47.8167 2.97777 47.1823C2.988 46.5479 2.4765 46.026 1.84221 46.0158C1.1977 46.0055 0.675932 46.5069 0.675932 47.1516Z" fill="#BDBDBD"/>
</g>
<g id="Group_8">
<path id="Vector_55" d="M83.3576 57.3438C83.3473 57.9782 83.8588 58.5001 84.4931 58.5103C85.1274 58.5206 85.6492 58.0089 85.6594 57.3745C85.6696 56.7401 85.1581 56.2182 84.5239 56.208C83.8896 56.208 83.3678 56.7094 83.3576 57.3438Z" fill="#BDBDBD"/>
<path id="Vector_56" d="M73.0041 57.2209C72.9938 57.8553 73.5053 58.3772 74.1396 58.3874C74.7739 58.3977 75.2957 57.886 75.3059 57.2516C75.3161 56.6172 74.8046 56.0953 74.1703 56.0851C73.5361 56.0749 73.0143 56.5865 73.0041 57.2209Z" fill="#BDBDBD"/>
<path id="Vector_57" d="M62.6603 57.0979C62.6501 57.7323 63.1616 58.2542 63.7959 58.2644C64.4302 58.2746 64.9519 57.763 64.9621 57.1286C64.9724 56.4941 64.4608 55.9723 63.8265 55.9621C63.1922 55.9518 62.6603 56.4634 62.6603 57.0979Z" fill="#BDBDBD"/>
<path id="Vector_58" d="M52.3087 56.9749C52.2985 57.6093 52.81 58.1311 53.4443 58.1413C54.0786 58.1516 54.6004 57.64 54.6106 57.0055C54.6208 56.3711 54.1092 55.8493 53.475 55.839C52.8407 55.8288 52.319 56.3404 52.3087 56.9749Z" fill="#BDBDBD"/>
<path id="Vector_59" d="M41.9552 56.8518C41.945 57.4862 42.4566 58.0081 43.0909 58.0183C43.7251 58.0285 44.2468 57.5169 44.2571 56.8825C44.2673 56.2481 43.7558 55.7262 43.1215 55.716C42.4872 55.7057 41.9655 56.2174 41.9552 56.8518Z" fill="#BDBDBD"/>
<path id="Vector_60" d="M31.6115 56.7188C31.6012 57.3533 32.1128 57.8751 32.747 57.8853C33.3813 57.8956 33.9031 57.384 33.9133 56.7495C33.9235 56.1151 33.412 55.5932 32.7778 55.583C32.1332 55.583 31.6217 56.0844 31.6115 56.7188Z" fill="#BDBDBD"/>
<path id="Vector_61" d="M21.258 56.5959C21.2477 57.2304 21.7593 57.7522 22.3936 57.7624C23.0278 57.7727 23.5496 57.2611 23.5598 56.6266C23.57 55.9922 23.0585 55.4703 22.4242 55.4601C21.79 55.4499 21.2682 55.9615 21.258 56.5959Z" fill="#BDBDBD"/>
<path id="Vector_62" d="M10.9064 56.4739C10.8962 57.1083 11.4077 57.6301 12.042 57.6404C12.6763 57.6506 13.198 57.139 13.2082 56.5046C13.2185 55.8702 12.707 55.3483 12.0727 55.338C11.4384 55.3278 10.9166 55.8395 10.9064 56.4739Z" fill="#BDBDBD"/>
<path id="Vector_63" d="M0.562651 56.3508C0.55242 56.9852 1.06393 57.5071 1.69821 57.5173C2.33249 57.5276 2.85426 57.0159 2.86449 56.3815C2.87472 55.7471 2.36318 55.2252 1.7289 55.215C1.08438 55.2048 0.562651 55.7164 0.562651 56.3508Z" fill="#BDBDBD"/>
</g>
<g id="Group_9">
<path id="Vector_64" d="M83.2443 66.5529C83.2341 67.1874 83.7456 67.7092 84.3799 67.7195C85.0141 67.7297 85.5359 67.2181 85.5461 66.5836C85.5564 65.9492 85.0448 65.4274 84.4105 65.4171C83.7762 65.4069 83.2545 65.9185 83.2443 66.5529Z" fill="#BDBDBD"/>
<path id="Vector_65" d="M72.9005 66.42C72.8903 67.0544 73.4019 67.5763 74.0362 67.5865C74.6704 67.5967 75.1921 67.0851 75.2024 66.4507C75.2126 65.8163 74.7011 65.2944 74.0668 65.2842C73.4223 65.2842 72.9005 65.7856 72.9005 66.42Z" fill="#BDBDBD"/>
<path id="Vector_66" d="M62.547 66.2971C62.5368 66.9315 63.0484 67.4534 63.6826 67.4636C64.3169 67.4738 64.8386 66.9622 64.8489 66.3278C64.8591 65.6934 64.3476 65.1715 63.7133 65.1613C63.079 65.1511 62.5573 65.6627 62.547 66.2971Z" fill="#BDBDBD"/>
<path id="Vector_67" d="M52.1955 66.174C52.1852 66.8085 52.6968 67.3303 53.3311 67.3406C53.9654 67.3508 54.4871 66.8392 54.4973 66.2047C54.5075 65.5703 53.996 65.0485 53.3617 65.0382C52.7275 65.028 52.2057 65.5396 52.1955 66.174Z" fill="#BDBDBD"/>
<path id="Vector_68" d="M41.8517 66.051C41.8415 66.6854 42.353 67.2073 42.9873 67.2175C43.6216 67.2278 44.1433 66.7161 44.1536 66.0817C44.1638 65.4473 43.6523 64.9254 43.018 64.9152C42.3735 64.905 41.8517 65.4166 41.8517 66.051Z" fill="#BDBDBD"/>
<path id="Vector_69" d="M31.4982 65.929C31.488 66.5634 31.9995 67.0852 32.6338 67.0955C33.268 67.1057 33.7898 66.5941 33.8 65.9597C33.8103 65.3252 33.2988 64.8034 32.6645 64.7931C32.0302 64.7829 31.5084 65.2843 31.4982 65.929Z" fill="#BDBDBD"/>
<path id="Vector_70" d="M21.1447 65.796C21.1345 66.4304 21.646 66.9523 22.2802 66.9625C22.9145 66.9727 23.4363 66.4611 23.4465 65.8267C23.4568 65.1922 22.9452 64.6704 22.3109 64.6602C21.6766 64.6602 21.1549 65.1615 21.1447 65.796Z" fill="#BDBDBD"/>
<path id="Vector_71" d="M10.8029 65.6731C10.7927 66.3075 11.3042 66.8294 11.9385 66.8396C12.5728 66.8498 13.0945 66.3382 13.1047 65.7038C13.115 65.0694 12.6034 64.5475 11.9692 64.5373C11.3247 64.527 10.8029 65.0387 10.8029 65.6731Z" fill="#BDBDBD"/>
<path id="Vector_72" d="M0.44937 65.55C0.439139 66.1845 0.950675 66.7063 1.58496 66.7165C2.21924 66.7268 2.74098 66.2152 2.75121 65.5807C2.76144 64.9463 2.24993 64.4244 1.61565 64.4142C0.981365 64.404 0.4596 64.9156 0.44937 65.55Z" fill="#BDBDBD"/>
</g>
<g id="Group_10">
<path id="Vector_73" d="M83.133 75.7522C83.1227 76.3866 83.6343 76.9085 84.2686 76.9187C84.9029 76.9289 85.4246 76.4173 85.4348 75.7829C85.445 75.1485 84.9335 74.6266 84.2992 74.6164C83.665 74.6061 83.1432 75.1178 83.133 75.7522Z" fill="#BDBDBD"/>
<path id="Vector_74" d="M72.7892 75.6291C72.779 76.2636 73.2905 76.7854 73.9248 76.7956C74.5591 76.8059 75.0808 76.2943 75.0911 75.6598C75.1013 75.0254 74.5898 74.5035 73.9555 74.4933C73.311 74.4831 72.7994 74.9947 72.7892 75.6291Z" fill="#BDBDBD"/>
<path id="Vector_75" d="M62.4357 75.4962C62.4255 76.1306 62.937 76.6525 63.5713 76.6627C64.2055 76.6729 64.7273 76.1613 64.7375 75.5269C64.7478 74.8925 64.2363 74.3706 63.602 74.3604C62.9677 74.3604 62.4459 74.872 62.4357 75.4962Z" fill="#BDBDBD"/>
<path id="Vector_76" d="M52.0841 75.3733C52.0739 76.0077 52.5854 76.5296 53.2197 76.5398C53.854 76.55 54.3757 76.0384 54.386 75.404C54.3962 74.7696 53.8847 74.2477 53.2504 74.2375C52.6161 74.2272 52.0944 74.7389 52.0841 75.3733Z" fill="#BDBDBD"/>
<path id="Vector_77" d="M41.7404 75.2502C41.7302 75.8846 42.2417 76.4065 42.8759 76.4167C43.5102 76.427 44.032 75.9153 44.0422 75.2809C44.0525 74.6465 43.5409 74.1246 42.9067 74.1144C42.2622 74.1042 41.7404 74.6158 41.7404 75.2502Z" fill="#BDBDBD"/>
<path id="Vector_78" d="M31.3869 75.1281C31.3766 75.7626 31.8881 76.2844 32.5224 76.2947C33.1567 76.3049 33.6785 75.7933 33.6887 75.1588C33.6989 74.5244 33.1874 74.0026 32.5531 73.9923C31.9189 73.9821 31.3971 74.4937 31.3869 75.1281Z" fill="#BDBDBD"/>
<path id="Vector_79" d="M21.0334 75.0051C21.0231 75.6395 21.5347 76.1614 22.1689 76.1716C22.8032 76.1819 23.325 75.6702 23.3352 75.0358C23.3454 74.4014 22.8339 73.8795 22.1996 73.8693C21.5653 73.8591 21.0436 74.3707 21.0334 75.0051Z" fill="#BDBDBD"/>
<path id="Vector_80" d="M10.6916 74.8821C10.6813 75.5165 11.1928 76.0383 11.8271 76.0486C12.4614 76.0588 12.9832 75.5472 12.9934 74.9128C13.0036 74.2784 12.4921 73.7565 11.8578 73.7462C11.2133 73.736 10.6916 74.2374 10.6916 74.8821Z" fill="#BDBDBD"/>
<path id="Vector_81" d="M0.338041 74.7492C0.327811 75.3837 0.839316 75.9055 1.4736 75.9158C2.10788 75.926 2.62965 75.4144 2.63988 74.7799C2.65011 74.1455 2.13857 73.6237 1.50429 73.6134C0.870006 73.6032 0.348272 74.1148 0.338041 74.7492Z" fill="#BDBDBD"/>
</g>
<g id="Group_11">
<path id="Vector_82" d="M83.0294 84.9504C83.0192 85.5848 83.5307 86.1067 84.165 86.1169C84.7993 86.1272 85.3211 85.6155 85.3313 84.9811C85.3415 84.3467 84.83 83.8248 84.1957 83.8146C83.5512 83.8044 83.0294 84.316 83.0294 84.9504Z" fill="#BDBDBD"/>
<path id="Vector_83" d="M72.6759 84.8284C72.6657 85.4628 73.1772 85.9846 73.8115 85.9949C74.4458 86.0051 74.9675 85.4935 74.9778 84.8591C74.988 84.2246 74.4765 83.7028 73.8422 83.6925C73.2079 83.6823 72.6862 84.1939 72.6759 84.8284Z" fill="#BDBDBD"/>
<path id="Vector_84" d="M62.3224 84.7053C62.3122 85.3397 62.8237 85.8616 63.458 85.8718C64.0923 85.8821 64.614 85.3704 64.6243 84.736C64.6345 84.1016 64.123 83.5797 63.4887 83.5695C62.8544 83.5593 62.3326 84.0709 62.3224 84.7053Z" fill="#BDBDBD"/>
<path id="Vector_85" d="M51.9806 84.5823C51.9704 85.2167 52.4819 85.7385 53.1162 85.7488C53.7505 85.759 54.2722 85.2474 54.2825 84.613C54.2927 83.9785 53.7811 83.4567 53.1468 83.4464C52.5023 83.4362 51.9806 83.9479 51.9806 84.5823Z" fill="#BDBDBD"/>
<path id="Vector_86" d="M41.6271 84.4493C41.6169 85.0837 42.1284 85.6056 42.7627 85.6158C43.3969 85.626 43.9187 85.1144 43.9289 84.48C43.9392 83.8456 43.4276 83.3237 42.7933 83.3135C42.1488 83.3135 41.6373 83.8149 41.6271 84.4493Z" fill="#BDBDBD"/>
<path id="Vector_87" d="M31.2736 84.3264C31.2634 84.9608 31.7749 85.4827 32.4091 85.4929C33.0434 85.5031 33.5652 84.9915 33.5754 84.3571C33.5857 83.7227 33.0741 83.2008 32.4398 83.1906C31.8055 83.1803 31.2838 83.692 31.2736 84.3264Z" fill="#BDBDBD"/>
<path id="Vector_88" d="M20.9201 84.2033C20.9098 84.8378 21.4213 85.3596 22.0556 85.3699C22.6899 85.3801 23.2117 84.8685 23.2219 84.234C23.2321 83.5996 22.7206 83.0778 22.0863 83.0675C21.452 83.0573 20.9303 83.5689 20.9201 84.2033Z" fill="#BDBDBD"/>
<path id="Vector_89" d="M10.5783 84.0813C10.568 84.7157 11.0796 85.2376 11.7139 85.2478C12.3482 85.258 12.8699 84.7464 12.8801 84.112C12.8903 83.4775 12.3788 82.9557 11.7446 82.9455C11.1103 82.9352 10.5885 83.4468 10.5783 84.0813Z" fill="#BDBDBD"/>
<path id="Vector_90" d="M0.22476 83.9582C0.21453 84.5926 0.726066 85.1145 1.36035 85.1248C1.99463 85.135 2.51637 84.6233 2.5266 83.9889C2.53683 83.3545 2.02532 82.8327 1.39104 82.8224C0.756756 82.8122 0.234991 83.3136 0.22476 83.9582Z" fill="#BDBDBD"/>
</g>
<g id="Group_12">
<path id="Vector_91" d="M82.9181 94.1505C82.9079 94.7849 83.4194 95.3067 84.0537 95.317C84.688 95.3272 85.2097 94.8156 85.22 94.1811C85.2302 93.5467 84.7187 93.0249 84.0844 93.0146C83.4399 93.0146 82.9181 93.516 82.9181 94.1505Z" fill="#BDBDBD"/>
<path id="Vector_92" d="M72.5646 94.0276C72.5544 94.662 73.0659 95.1839 73.7002 95.1941C74.3344 95.2043 74.8562 94.6927 74.8664 94.0583C74.8767 93.4238 74.3652 92.902 73.7309 92.8918C73.0966 92.8815 72.5748 93.3931 72.5646 94.0276Z" fill="#BDBDBD"/>
<path id="Vector_93" d="M62.2111 93.9045C62.2009 94.5389 62.7124 95.0608 63.3466 95.071C63.9809 95.0813 64.5027 94.5696 64.5129 93.9352C64.5232 93.3008 64.0116 92.7789 63.3773 92.7687C62.743 92.7585 62.2213 93.2701 62.2111 93.9045Z" fill="#BDBDBD"/>
<path id="Vector_94" d="M51.8693 93.7815C51.8591 94.4159 52.3706 94.9378 53.0049 94.948C53.6392 94.9582 54.1609 94.4466 54.1711 93.8122C54.1814 93.1778 53.6699 92.6559 53.0356 92.6457C52.3911 92.6354 51.8693 93.1471 51.8693 93.7815Z" fill="#BDBDBD"/>
<path id="Vector_95" d="M41.5158 93.6584C41.5055 94.2929 42.0171 94.8147 42.6514 94.8249C43.2857 94.8352 43.8074 94.3236 43.8176 93.6891C43.8278 93.0547 43.3163 92.5328 42.6821 92.5226C42.0478 92.5124 41.526 93.0138 41.5158 93.6584Z" fill="#BDBDBD"/>
<path id="Vector_96" d="M31.1623 93.5256C31.152 94.1601 31.6636 94.6819 32.2979 94.6921C32.9322 94.7024 33.4539 94.1907 33.4641 93.5563C33.4743 92.9219 32.9628 92.4 32.3285 92.3898C31.6943 92.3796 31.1725 92.8912 31.1623 93.5256Z" fill="#BDBDBD"/>
<path id="Vector_97" d="M20.8205 93.4026C20.8102 94.037 21.3218 94.5589 21.9561 94.5691C22.5903 94.5793 23.1121 94.0677 23.1223 93.4333C23.1325 92.7989 22.621 92.277 21.9867 92.2668C21.3422 92.2565 20.8205 92.7682 20.8205 93.4026Z" fill="#BDBDBD"/>
<path id="Vector_98" d="M10.4669 93.2805C10.4567 93.9149 10.9682 94.4368 11.6025 94.447C12.2368 94.4572 12.7586 93.9456 12.7688 93.3112C12.779 92.6768 12.2675 92.1549 11.6332 92.1447C10.9989 92.1344 10.4772 92.6461 10.4669 93.2805Z" fill="#BDBDBD"/>
<path id="Vector_99" d="M0.113432 93.1574C0.103202 93.7919 0.614706 94.3137 1.24899 94.324C1.88328 94.3342 2.40504 93.8226 2.41527 93.1881C2.4255 92.5537 1.91397 92.0319 1.27968 92.0216C0.645396 92.0114 0.123662 92.523 0.113432 93.1574Z" fill="#BDBDBD"/>
</g>
<g id="Group_13">
<path id="Vector_100" d="M82.8048 103.36C82.7946 103.994 83.3061 104.516 83.9404 104.526C84.5747 104.526 85.0964 104.025 85.1067 103.39C85.1169 102.756 84.6053 102.234 83.9711 102.224C83.3265 102.214 82.8151 102.725 82.8048 103.36Z" fill="#BDBDBD"/>
<path id="Vector_101" d="M72.4513 103.237C72.4411 103.871 72.9526 104.393 73.5869 104.403C74.2212 104.413 74.7429 103.902 74.7532 103.267C74.7634 102.633 74.2518 102.111 73.6175 102.101C72.9833 102.091 72.4616 102.602 72.4513 103.237Z" fill="#BDBDBD"/>
<path id="Vector_102" d="M62.0978 103.104C62.0876 103.738 62.5991 104.26 63.2334 104.27C63.8677 104.28 64.3894 103.769 64.3996 103.134C64.4099 102.5 63.8984 101.978 63.2641 101.968C62.6298 101.968 62.108 102.469 62.0978 103.104Z" fill="#BDBDBD"/>
<path id="Vector_103" d="M51.756 102.981C51.7458 103.615 52.2573 104.137 52.8916 104.147C53.5259 104.157 54.0476 103.646 54.0578 103.011C54.0681 102.377 53.5566 101.855 52.9223 101.845C52.288 101.835 51.7662 102.346 51.756 102.981Z" fill="#BDBDBD"/>
<path id="Vector_104" d="M41.4025 102.858C41.3923 103.492 41.9038 104.014 42.5381 104.024C43.1723 104.034 43.6941 103.523 43.7043 102.888C43.7146 102.254 43.2031 101.732 42.5688 101.722C41.9345 101.712 41.4127 102.223 41.4025 102.858Z" fill="#BDBDBD"/>
<path id="Vector_105" d="M31.0587 102.736C31.0485 103.37 31.56 103.892 32.1943 103.902C32.8286 103.912 33.3504 103.401 33.3606 102.766C33.3708 102.132 32.8593 101.61 32.225 101.6C31.5805 101.59 31.0587 102.101 31.0587 102.736Z" fill="#BDBDBD"/>
<path id="Vector_106" d="M20.7072 102.603C20.697 103.237 21.2085 103.759 21.8427 103.769C22.477 103.779 22.9988 103.268 23.009 102.633C23.0193 101.999 22.5077 101.477 21.8734 101.467C21.2289 101.467 20.7174 101.968 20.7072 102.603Z" fill="#BDBDBD"/>
<path id="Vector_107" d="M10.3537 102.48C10.3434 103.114 10.855 103.636 11.4893 103.646C12.1235 103.656 12.6453 103.145 12.6555 102.51C12.6657 101.876 12.1542 101.354 11.5199 101.344C10.8857 101.334 10.3639 101.845 10.3537 102.48Z" fill="#BDBDBD"/>
<path id="Vector_108" d="M0.00015082 102.357C-0.0100796 102.991 0.501456 103.513 1.13574 103.523C1.77003 103.533 2.29176 103.022 2.30199 102.387C2.31222 101.753 1.80072 101.231 1.16643 101.221C0.532146 101.211 0.0103812 101.722 0.00015082 102.357Z" fill="#BDBDBD"/>
</g>
</g>
</svg>
