<svg width="911" height="545" viewBox="0 0 911 545" fill="none" xmlns="http://www.w3.org/2000/svg">
<g clip-path="url(#clip0_143_8303)">
<path d="M-55.4642 384.99C-55.4642 384.99 58.7933 414.654 202.179 302.047C313.207 214.859 393.445 227.117 494.367 342.894C595.301 458.658 638.96 528.656 790.839 466.834" stroke="#BBD6FF" stroke-miterlimit="10"/>
<path d="M-55.2903 382.398C-55.2903 382.398 59.9138 408.74 203.301 301.362C314.564 218.042 394.063 234.471 496.09 347.105C598.118 459.751 639.785 526.266 791.354 466.207" stroke="#BBD6FF" stroke-miterlimit="10"/>
<path d="M-55.1143 379.818C-55.1143 379.818 61.0713 402.823 204.425 300.677C315.933 221.213 394.67 241.813 497.815 351.328C600.948 460.843 640.611 523.877 791.883 465.591" stroke="#BBD6FF" stroke-miterlimit="10"/>
<path d="M-54.9267 377.237C-54.9267 377.237 62.2651 396.914 205.549 299.992C317.327 224.393 395.289 249.154 499.528 355.551C603.766 461.936 641.437 521.487 792.388 464.977" stroke="#BBD6FF" stroke-miterlimit="10"/>
<path d="M-54.752 374.645C-54.752 374.645 63.47 390.994 206.672 299.307C318.742 227.547 395.908 256.507 501.253 359.774C606.597 463.04 642.262 519.097 792.905 464.362" stroke="#BBD6FF" stroke-miterlimit="10"/>
<path d="M-54.5773 372.065C-54.5773 372.065 64.7106 385.082 207.783 298.622C320.158 230.714 396.514 263.85 502.964 363.985C609.413 464.121 643.075 516.697 793.42 463.723" stroke="#BBD6FF" stroke-miterlimit="10"/>
<path d="M-54.4027 369.473C-54.4027 369.473 65.9748 379.157 208.906 297.937C321.622 233.877 397.133 271.191 504.688 368.208C612.244 465.225 643.9 514.307 793.949 463.107" stroke="#BBD6FF" stroke-miterlimit="10"/>
<path d="M-54.2267 366.892C-54.2267 366.892 67.2773 373.253 210.03 297.252C323.11 237.038 397.741 278.545 506.401 372.431C615.062 466.318 644.726 511.917 794.454 462.493" stroke="#BBD6FF" stroke-miterlimit="10"/>
<path d="M-54.0388 364.312C-54.0388 364.312 68.6282 367.357 211.154 296.579C324.624 240.222 398.36 285.898 508.127 376.666C617.892 467.41 645.552 509.528 794.97 461.866" stroke="#BBD6FF" stroke-miterlimit="10"/>
<path d="M-53.8644 361.719C-53.8644 361.719 70.0034 361.471 212.276 295.882C326.171 243.378 398.979 293.239 509.85 380.865C620.722 468.502 646.378 507.138 795.499 461.25" stroke="#BBD6FF" stroke-miterlimit="10"/>
<path d="M-53.689 359.139C-53.689 359.139 71.4041 355.607 213.387 295.197C327.732 246.558 399.585 300.582 511.55 385.089C623.527 469.596 647.191 504.749 796.003 460.624" stroke="#BBD6FF" stroke-miterlimit="10"/>
<path d="M-53.5146 356.547C-53.5146 356.547 72.8288 349.742 214.511 294.512C329.318 249.748 400.192 307.924 513.275 389.312C626.358 470.7 648.017 502.359 796.52 460.009" stroke="#BBD6FF" stroke-miterlimit="10"/>
<path d="M-53.3395 353.967C-53.3395 353.967 74.3045 343.92 215.622 293.828C330.93 252.959 400.799 315.278 514.987 393.535C629.163 471.794 648.83 499.971 797.036 459.394" stroke="#BBD6FF" stroke-miterlimit="10"/>
<path d="M-53.163 351.387C-53.163 351.387 75.8073 338.121 216.747 293.155C332.592 256.191 401.419 322.631 516.712 397.758C631.994 472.886 649.669 497.58 797.554 458.779" stroke="#BBD6FF" stroke-miterlimit="10"/>
<path d="M-52.9771 348.794C-52.9771 348.794 77.3461 332.342 217.88 292.457C334.276 259.421 402.048 329.96 518.436 401.969C634.823 473.978 650.493 495.178 798.082 458.15" stroke="#BBD6FF" stroke-miterlimit="10"/>
<path d="M-52.8015 346.214C-52.8015 346.214 78.913 326.61 218.992 291.773C335.952 262.688 402.656 337.314 520.148 406.192C637.641 475.071 651.307 492.79 798.586 457.525" stroke="#BBD6FF" stroke-miterlimit="10"/>
<path d="M-52.6264 343.634C-52.6264 343.634 80.4942 320.912 220.116 291.099C337.678 265.987 403.263 344.668 521.872 410.415C640.47 476.163 652.144 490.399 799.114 456.909" stroke="#BBD6FF" stroke-miterlimit="10"/>
<path d="M-52.4514 341.042C-52.4514 341.042 82.1027 315.249 221.227 290.403C339.406 269.298 403.869 351.998 523.585 414.627C643.289 477.256 652.957 487.998 799.619 456.282" stroke="#BBD6FF" stroke-miterlimit="10"/>
<path d="M-52.2756 338.462C-52.2756 338.462 83.7265 309.632 222.351 289.73C341.161 272.667 404.489 359.363 525.298 418.862C646.107 478.361 653.772 485.622 800.137 455.679" stroke="#BBD6FF" stroke-miterlimit="10"/>
<path d="M-52.0892 335.869C-52.0892 335.869 85.3886 304.048 223.485 289.032C342.93 276.046 405.119 366.692 527.034 423.072C648.949 479.452 654.621 483.218 800.665 455.051" stroke="#BBD6FF" stroke-miterlimit="10"/>
<path d="M-51.9138 333.289C-51.9138 333.289 87.0304 298.514 224.597 288.36C344.702 279.486 405.726 374.046 528.747 427.307C651.768 480.557 655.435 480.842 801.181 454.437" stroke="#BBD6FF" stroke-miterlimit="10"/>
<path d="M-51.7382 330.709C-51.7382 330.709 88.7007 293.038 225.721 287.674C346.477 282.949 406.334 381.4 530.471 431.518C654.596 481.637 656.261 478.452 801.697 453.81" stroke="#BBD6FF" stroke-miterlimit="10"/>
<path d="M-51.564 328.117C-51.564 328.117 90.3487 287.587 226.831 286.978C348.254 286.448 406.939 388.73 532.17 435.731C657.402 482.731 657.074 476.051 802.201 453.184" stroke="#BBD6FF" stroke-miterlimit="10"/>
<path d="M-51.3879 325.537C-51.3879 325.537 92.0131 282.183 227.956 286.305C350.025 290.007 407.56 396.095 533.896 439.965C660.233 483.835 657.901 473.673 802.72 452.58" stroke="#BBD6FF" stroke-miterlimit="10"/>
<path d="M-51.2139 322.945C-51.2139 322.945 93.6551 276.817 229.065 285.609C351.783 293.58 408.165 403.426 535.607 444.165C663.05 484.928 658.725 471.272 803.235 451.953" stroke="#BBD6FF" stroke-miterlimit="10"/>
<path d="M-51.0264 320.364C-51.0264 320.364 95.3024 271.51 230.202 284.935C353.559 297.211 408.796 410.778 537.344 448.399C665.892 486.019 659.551 468.882 803.763 451.326" stroke="#BBD6FF" stroke-miterlimit="10"/>
<path d="M-50.8508 317.784C-50.8508 317.784 96.9277 266.229 231.325 284.25C355.301 300.868 409.403 418.12 539.057 452.622C668.71 487.112 660.377 466.492 804.28 450.71" stroke="#BBD6FF" stroke-miterlimit="10"/>
<path d="M-50.676 315.192C-50.676 315.192 98.5192 260.974 232.437 283.565C357.022 304.576 410.011 425.474 540.77 456.846C671.529 488.217 661.191 464.104 804.785 450.096" stroke="#BBD6FF" stroke-miterlimit="10"/>
<path d="M-50.5004 312.612C-50.5004 312.612 100.102 255.768 233.56 282.88C358.733 308.308 410.629 432.816 542.493 461.056C674.358 489.297 662.015 461.702 805.313 449.469" stroke="#BBD6FF" stroke-miterlimit="10"/>
<path d="M-50.3249 310.032C-50.3249 310.032 101.651 250.589 234.671 282.196C360.411 312.066 411.248 440.157 544.206 465.28C677.165 490.403 662.841 459.312 805.818 448.854" stroke="#BBD6FF" stroke-miterlimit="10"/>
<path d="M-50.1383 307.439C-50.1383 307.439 103.189 245.422 235.806 281.51C362.067 315.862 411.867 447.51 545.931 469.502C679.994 491.495 663.667 456.923 806.346 448.226" stroke="#BBD6FF" stroke-miterlimit="10"/>
<path d="M-49.9628 304.859C-49.9628 304.859 104.682 240.295 236.93 280.825C363.7 319.672 412.473 454.852 547.655 473.725C682.824 492.587 664.492 454.533 806.863 447.611" stroke="#BBD6FF" stroke-miterlimit="10"/>
<path d="M-49.7882 302.267C-49.7882 302.267 106.139 235.171 238.041 280.14C365.287 323.509 413.081 462.206 549.367 477.937C685.642 493.68 665.317 452.131 807.379 446.984" stroke="#BBD6FF" stroke-miterlimit="10"/>
<path d="M-49.6127 299.687C-49.6127 299.687 107.575 230.072 239.164 279.455C366.852 327.372 413.7 469.548 551.08 482.16C688.46 494.773 666.132 449.755 807.884 446.37" stroke="#BBD6FF" stroke-miterlimit="10"/>
<path d="M-49.4374 297.107C-49.4374 297.107 108.975 224.988 240.275 278.771C368.383 331.25 414.307 476.902 552.792 486.384C691.277 495.866 666.945 447.366 808.4 445.743" stroke="#BBD6FF" stroke-miterlimit="10"/>
<path d="M-49.2626 294.514C-49.2626 294.514 110.338 219.895 241.399 278.086C369.89 335.141 414.926 484.243 554.517 490.606C694.107 496.958 667.782 444.963 808.929 445.127" stroke="#BBD6FF" stroke-miterlimit="10"/>
<path d="M-49.0752 291.934C-49.0752 291.934 111.679 214.815 242.534 277.4C371.362 339.035 415.532 491.585 556.241 494.829C696.938 498.062 668.609 442.586 809.446 444.512" stroke="#BBD6FF" stroke-miterlimit="10"/>
<path d="M-48.901 289.341C-48.901 289.341 112.983 209.726 243.645 276.715C372.809 342.931 416.151 498.938 557.953 499.041C699.754 499.143 669.421 440.185 809.95 443.886" stroke="#BBD6FF" stroke-miterlimit="10"/>
<path d="M-48.7251 286.761C-48.7251 286.761 114.264 204.652 244.769 276.03C374.235 346.841 416.77 506.28 559.678 503.263C702.585 500.247 670.26 437.794 810.479 443.27" stroke="#BBD6FF" stroke-miterlimit="10"/>
<path d="M-48.5495 284.181C-48.5495 284.181 115.509 199.579 245.881 275.358C375.613 350.766 417.377 513.634 561.391 507.499C705.404 501.352 671.074 435.418 810.984 442.656" stroke="#BBD6FF" stroke-miterlimit="10"/>
<path d="M-48.3748 281.589C-48.3748 281.589 116.729 194.485 247.004 274.661C376.988 354.655 417.996 520.975 563.114 511.698C708.233 502.432 671.898 433.004 811.511 442.016" stroke="#BBD6FF" stroke-miterlimit="10"/>
<path d="M-48.1992 279.009C-48.1992 279.009 117.925 189.392 248.127 273.976C378.329 358.559 418.603 528.317 564.827 515.921C711.051 503.525 672.724 430.614 812.016 441.402" stroke="#BBD6FF" stroke-miterlimit="10"/>
<g opacity="0.3">
<path d="M-40.5385 358.583C-40.5385 358.583 130.11 349.558 213.923 243.594C297.735 137.631 381.1 94.035 503.322 235.634C625.554 377.219 736.3 454.527 896.25 312.606" stroke="#BBD6FF" stroke-width="2" stroke-miterlimit="10"/>
<path d="M893.93 315.362C737.89 453.819 630.226 372.246 506.484 234.47C382.742 96.6929 301.449 145.445 213.179 245.942C124.908 346.439 -42.7512 350.931 -45.3185 352.026" stroke="#BBD6FF" stroke-width="2" stroke-miterlimit="10"/>
<path d="M891.608 318.117C739.467 453.111 634.885 367.274 509.633 233.306C384.382 99.3385 305.162 153.27 212.421 248.29C119.68 343.311 -44.9658 343.267 -50.0997 345.469" stroke="#BBD6FF" stroke-width="2" stroke-miterlimit="10"/>
<path d="M889.299 320.871C741.056 452.402 639.556 362.301 512.795 232.142C386.035 101.995 308.875 161.084 211.688 250.637C114.489 340.191 -47.1672 335.615 -54.8566 338.91" stroke="#BBD6FF" stroke-width="2" stroke-miterlimit="10"/>
<path d="M886.978 323.627C742.634 451.694 644.214 357.317 515.946 230.991C387.677 104.653 312.59 168.921 210.932 252.997C109.274 337.074 -49.3806 327.963 -59.6364 332.365" stroke="#BBD6FF" stroke-width="2" stroke-miterlimit="10"/>
<path d="M884.657 326.382C744.212 450.999 648.886 352.344 519.096 229.828C389.307 107.312 316.303 176.734 210.176 255.358C104.061 333.968 -51.6058 320.312 -64.4281 325.821" stroke="#BBD6FF" stroke-width="2" stroke-miterlimit="10"/>
<path d="M882.348 329.136C745.814 450.289 653.557 347.371 522.259 228.664C390.96 109.957 320.018 184.56 209.432 257.705C98.8466 330.851 -53.8064 312.659 -69.1961 319.264" stroke="#BBD6FF" stroke-width="2" stroke-miterlimit="10"/>
<path d="M880.026 331.892C747.39 449.581 658.216 342.398 525.409 227.512C392.601 112.626 323.731 192.385 208.687 260.065C93.643 327.732 -56.0206 305.008 -73.9649 312.718" stroke="#BBD6FF" stroke-width="2" stroke-miterlimit="10"/>
<path d="M877.705 334.647C748.968 448.874 662.875 337.426 528.558 226.349C394.243 115.284 327.432 200.212 207.93 262.413C88.4282 324.615 -58.2459 297.357 -78.7456 306.161" stroke="#BBD6FF" stroke-width="2" stroke-miterlimit="10"/>
<path d="M875.396 337.401C750.557 448.165 667.558 332.452 531.721 225.197C395.896 117.941 331.158 208.036 207.186 264.773C83.2143 321.509 -60.4474 289.704 -83.5255 299.616" stroke="#BBD6FF" stroke-width="2" stroke-miterlimit="10"/>
<path d="M873.075 340.157C752.134 447.457 672.217 327.48 534.871 224.034C397.525 120.588 334.859 215.85 206.43 267.121C77.999 318.38 -62.6733 282.041 -88.3069 293.047" stroke="#BBD6FF" stroke-width="2" stroke-miterlimit="10"/>
<path d="M870.754 342.912C753.725 446.761 676.877 322.508 538.021 222.871C399.167 123.246 338.573 223.676 205.685 269.469C72.7964 315.261 -64.8746 274.389 -93.0756 286.49" stroke="#BBD6FF" stroke-width="2" stroke-miterlimit="10"/>
<path d="M868.433 345.667C755.302 446.053 681.535 317.524 541.172 221.719C400.808 125.903 342.275 231.502 204.929 271.829C67.5827 312.156 -67.0998 266.738 -97.8672 279.945" stroke="#BBD6FF" stroke-width="2" stroke-miterlimit="10"/>
<path d="M866.123 348.422C756.891 445.344 686.206 312.55 544.334 220.555C402.461 128.56 346.001 239.327 204.184 274.176C62.3667 309.026 -69.3016 259.085 -102.636 273.388" stroke="#BBD6FF" stroke-width="2" stroke-miterlimit="10"/>
<path d="M863.803 351.177C758.469 444.637 690.877 307.577 547.484 219.392C404.09 131.207 349.702 247.141 203.427 276.525C57.1523 305.909 -71.5274 251.423 -107.417 266.831" stroke="#BBD6FF" stroke-width="2" stroke-miterlimit="10"/>
<path d="M861.481 353.932C760.046 443.929 695.536 302.605 550.634 218.241C405.731 133.864 353.415 254.967 202.683 278.884C51.9498 302.802 -73.7285 243.782 -112.185 260.285" stroke="#BBD6FF" stroke-width="2" stroke-miterlimit="10"/>
<path d="M859.173 356.687C761.648 443.219 700.208 297.632 553.797 217.077C407.385 136.521 357.13 262.792 201.938 281.232C46.735 299.673 -75.942 236.118 -116.965 253.728" stroke="#BBD6FF" stroke-width="2" stroke-miterlimit="10"/>
<path d="M856.852 359.454C763.226 442.523 704.867 292.66 556.948 215.925C409.027 139.179 360.844 270.617 201.183 283.592C41.5213 296.567 -78.1553 228.466 -121.745 247.183" stroke="#BBD6FF" stroke-width="2" stroke-miterlimit="10"/>
<path d="M854.531 362.209C764.803 441.816 709.539 287.699 560.098 214.774C410.669 141.849 364.546 278.456 200.426 285.953C36.3069 293.462 -80.3801 220.828 -126.525 240.638" stroke="#BBD6FF" stroke-width="2" stroke-miterlimit="10"/>
<path d="M852.22 364.952C766.392 441.107 714.209 282.714 563.259 213.598C412.308 144.483 368.27 286.257 199.692 288.288C31.114 290.318 -82.5716 213.15 -131.283 234.068" stroke="#BBD6FF" stroke-width="2" stroke-miterlimit="10"/>
<path d="M849.9 367.707C767.97 440.399 718.869 277.742 566.409 212.435C413.951 147.14 371.972 294.071 198.936 290.636C25.8881 287.202 -84.7961 205.499 -136.075 227.512" stroke="#BBD6FF" stroke-width="2" stroke-miterlimit="10"/>
<path d="M847.579 370.474C769.559 439.703 723.527 272.769 569.56 211.296C415.592 149.81 375.686 301.92 198.18 293.008C20.6735 284.096 -87.0213 197.861 -140.855 220.979" stroke="#BBD6FF" stroke-width="2" stroke-miterlimit="10"/>
<path d="M845.258 373.23C771.137 438.995 728.198 267.796 572.71 210.132C417.234 152.468 379.387 309.735 197.423 295.357C15.4588 280.979 -89.2347 190.209 -145.636 214.422" stroke="#BBD6FF" stroke-width="2" stroke-miterlimit="10"/>
<path d="M842.949 375.984C772.726 438.286 732.87 262.823 575.872 208.968C418.875 155.113 383.114 317.559 196.68 297.716C10.2566 277.86 -91.4355 182.556 -150.404 207.864" stroke="#BBD6FF" stroke-width="2" stroke-miterlimit="10"/>
<path d="M840.628 378.739C774.304 437.579 737.529 257.851 579.023 207.817C420.517 157.783 386.816 325.386 195.936 300.076C5.0428 274.755 -93.6488 174.904 -155.184 201.319" stroke="#BBD6FF" stroke-width="2" stroke-miterlimit="10"/>
<path d="M838.307 381.495C775.894 436.882 742.189 252.879 582.173 206.654C422.158 160.429 390.529 333.199 195.179 302.424C-0.159911 271.636 -95.863 167.241 -159.952 194.762" stroke="#BBD6FF" stroke-width="2" stroke-miterlimit="10"/>
<path d="M835.998 384.249C777.483 436.173 746.871 247.905 585.336 205.502C423.812 163.098 394.243 341.036 194.435 304.783C-5.37486 268.519 -98.0766 159.589 -164.733 188.205" stroke="#BBD6FF" stroke-width="2" stroke-miterlimit="10"/>
<path d="M833.677 387.004C779.061 435.466 751.531 242.933 588.486 204.339C425.453 165.744 397.956 348.85 193.69 307.131C-10.5896 265.401 -100.29 151.937 -169.513 181.66" stroke="#BBD6FF" stroke-width="2" stroke-miterlimit="10"/>
<path d="M831.355 389.76C780.638 434.758 756.19 237.96 591.636 203.175C427.082 168.402 401.67 356.675 192.933 309.479C-15.8044 262.284 -102.503 144.285 -174.294 175.103" stroke="#BBD6FF" stroke-width="2" stroke-miterlimit="10"/>
<path d="M829.046 392.514C782.227 434.049 760.86 232.975 594.798 202.023C428.735 171.059 405.383 364.501 192.188 311.839C-21.0074 259.165 -104.717 136.634 -179.063 168.545" stroke="#BBD6FF" stroke-width="2" stroke-miterlimit="10"/>
<path d="M826.725 395.27C783.816 433.341 765.519 228.003 597.948 200.86C430.377 173.717 409.096 372.314 191.432 314.187C-26.2222 256.048 -106.93 128.982 -183.843 162" stroke="#BBD6FF" stroke-width="2" stroke-miterlimit="10"/>
<path d="M824.404 398.025C785.394 432.645 770.19 223.03 601.098 199.697C432.018 176.362 412.798 380.141 190.675 316.536C-31.4486 252.931 -109.156 121.319 -188.635 155.444" stroke="#BBD6FF" stroke-width="2" stroke-miterlimit="10"/>
<path d="M822.094 400.779C786.983 431.936 774.861 218.057 604.26 198.545C433.659 179.02 416.524 387.965 189.942 318.894C-36.6399 249.812 -111.358 113.667 -193.393 148.886" stroke="#BBD6FF" stroke-width="2" stroke-miterlimit="10"/>
<path d="M819.773 403.535C788.561 431.229 779.52 213.085 607.41 197.381C435.3 181.678 420.226 395.792 189.186 321.243C-41.8544 246.694 -113.571 106.015 -198.172 142.341" stroke="#BBD6FF" stroke-width="2" stroke-miterlimit="10"/>
<path d="M817.452 406.29C790.15 430.52 784.191 208.112 610.572 196.217C436.953 184.323 423.951 403.604 188.441 323.59C-47.0693 243.577 -115.785 98.3631 -202.953 135.784" stroke="#BBD6FF" stroke-width="2" stroke-miterlimit="10"/>
<path d="M815.132 409.045C791.728 429.812 788.851 203.128 613.724 195.066C438.596 186.993 427.653 411.43 187.686 325.951C-52.2712 240.458 -117.997 90.7115 -207.721 129.226" stroke="#BBD6FF" stroke-width="2" stroke-miterlimit="10"/>
<path d="M812.823 411.8C793.317 429.104 793.523 198.166 616.874 193.903C440.236 189.638 431.367 419.256 186.941 328.298C-57.4861 237.341 -120.211 83.0598 -212.501 122.681" stroke="#BBD6FF" stroke-width="2" stroke-miterlimit="10"/>
<path d="M810.502 414.555C794.895 428.396 798.181 193.182 620.024 192.74C441.866 192.297 435.068 427.07 186.184 330.647C-62.7008 234.223 -122.425 75.396 -217.282 116.124" stroke="#BBD6FF" stroke-width="2" stroke-miterlimit="10"/>
<path d="M808.18 417.31C796.472 427.688 802.84 188.21 623.174 191.588C443.507 194.955 438.783 434.908 185.428 333.007C-67.9155 231.106 -124.638 67.7443 -222.063 109.567" stroke="#BBD6FF" stroke-width="2" stroke-miterlimit="10"/>
<path d="M805.871 420.065C798.074 426.991 807.523 183.236 626.348 190.423C445.173 197.611 442.507 442.72 184.694 335.354C-73.1176 227.999 -126.852 60.0927 -226.831 103.022" stroke="#BBD6FF" stroke-width="2" stroke-miterlimit="10"/>
<path d="M803.55 422.82C799.651 426.283 812.182 178.264 629.487 189.273C446.802 200.269 446.209 450.546 183.938 337.714C-78.3324 224.882 -129.065 52.4408 -231.611 96.4647" stroke="#BBD6FF" stroke-width="2" stroke-miterlimit="10"/>
<path d="M801.228 425.575C801.228 425.575 816.841 173.292 632.648 188.109C448.443 202.927 449.923 458.372 183.193 340.062C-83.5476 221.764 -131.279 44.7892 -236.393 89.9079" stroke="#BBD6FF" stroke-width="2" stroke-miterlimit="10"/>
</g>
</g>
<defs>
<clipPath id="clip0_143_8303">
<rect width="1113.03" height="491.679" fill="white" transform="matrix(-0.997118 0.0758619 0.0758619 0.997118 872.827 0)"/>
</clipPath>
</defs>
</svg>
