<?xml version="1.0" encoding="UTF-8"?>
<svg id="Layer_1" data-name="Layer 1" xmlns="http://www.w3.org/2000/svg" viewBox="0 0 470.42 425.4">
  <defs>
    <style>
      .cls-1 {
        fill: #355162;
        stroke-width: 0px;
      }
    </style>
  </defs>
  <path class="cls-1" d="m386.63,8.12C371.84,2.61,356.66.01,341.73.01c-21.15,0-41.78,5.22-60.11,14.92-18.36,9.67-34.42,23.78-46.42,41.52C211.16,20.97,170.94.01,128.63.01c-14.89,0-30.07,2.6-44.87,8.11C17.2,32.94-16.67,107.03,8.15,173.6c2.73,7.27,8.99,21.86,21.6,42.3h-.01c2.53,4.09,5.32,8.4,8.4,12.98h.01s0,0,0,0c21.38,31.73,56.35,74.19,112.63,123.11l84.41,73.41,84.44-73.41c61.67-53.62,97.77-99.49,118.47-131.97,2.92-4.57,5.51-8.92,7.85-12.94,9.15-15.83,14.01-27.31,16.32-33.48,24.82-66.57-9.05-140.66-75.65-165.48Zm-75.52,334.07l-75.91,66.02-75.91-66.02c-43.82-38.07-79.23-76.16-105.39-113.32h190.76l22.38-86.1,30.23,187.6,36.95-150.98,17.78,87.82,18.49-47.4,52.12.15c-19.42,29.05-53.72,71.99-111.5,122.22Zm139.01-173.13c-1.95,5.16-6.49,16.12-15.38,31.5-1.36,2.31-2.63,4.45-3.86,6.47l-69.21-.21-5.71,14.57-20.57-101.41-35.49,145.11-29.91-185.4-35.36,136.22H45.11c-1.51-2.32-2.97-4.61-4.33-6.81-12.13-19.66-18.07-33.54-20.5-40.03C-1.97,109.31,28.52,42.58,88.28,20.29c13.04-4.87,26.6-7.3,40.36-7.3,38.47,0,74.29,18.95,95.8,50.74l10.77,15.86,10.74-15.86c21.51-31.76,57.32-50.74,95.8-50.74,13.76,0,27.35,2.43,40.36,7.3,28.97,10.77,51.97,32.21,64.85,60.31,12.85,28.09,13.95,59.53,3.18,88.46Z"/>
</svg>