<svg width="47" height="42" viewBox="0 0 47 42" fill="none" xmlns="http://www.w3.org/2000/svg">
<g id="Group 738">
<path id="Rectangle 2639" d="M32.7327 13.1329C32.4046 12.0782 32.9937 10.9572 34.0484 10.6291L36.9675 9.72103C38.2666 9.31691 39.5814 10.2998 39.5613 11.6602L39.3515 25.9091C39.3433 26.4689 38.9761 26.96 38.4415 27.1263C37.7588 27.3386 37.0331 26.9573 36.8208 26.2746L32.7327 13.1329Z" fill="#0C8BDF"/>
<path id="Rectangle 2641" d="M8.0207 31.5018C6.95 31.2303 6.40593 30.1755 6.80548 29.1457L7.74781 26.717C8.21609 25.5101 9.73507 24.9188 10.8449 25.5115L26.5314 33.8879C26.9837 34.1294 27.1679 34.6461 26.9771 35.138C26.7489 35.7261 26.0681 36.0773 25.4565 35.9222L8.0207 31.5018Z" fill="#0C8BDF"/>
<path id="Rectangle 2640" d="M11.6085 13.1935C10.773 12.471 10.7518 11.2759 11.5611 10.5242L14.0804 8.18417C15.0061 7.32434 16.575 7.43672 17.3287 8.41684L32.2544 27.8252C32.6062 28.2825 32.5485 28.9 32.1165 29.3013C31.6153 29.7667 30.7897 29.7814 30.2723 29.334L11.6085 13.1935Z" fill="#0C8BDF"/>
</g>
</svg>
