<svg width="27" height="27" viewBox="0 0 27 27" fill="none" xmlns="http://www.w3.org/2000/svg">
<path d="M14.7496 0.398084C15.6984 0.394443 16.6472 0.403979 17.5958 0.426689L17.848 0.435791C18.1393 0.446193 18.4266 0.459195 18.7738 0.474798C20.1572 0.539809 21.1011 0.758248 21.9294 1.07941C22.7875 1.40966 23.5104 1.85694 24.2333 2.57987C24.8943 3.22948 25.4059 4.01526 25.7325 4.88258C26.0536 5.71083 26.2721 6.6561 26.3371 8.03954C26.3527 8.3854 26.3657 8.67406 26.3761 8.96531L26.3839 9.21755C26.407 10.1657 26.417 11.1141 26.4138 12.0625L26.4151 13.0324V14.7357C26.4183 15.6846 26.4083 16.6334 26.3852 17.5819L26.3774 17.8342C26.367 18.1254 26.354 18.4128 26.3384 18.7599C26.2734 20.1434 26.0523 21.0874 25.7325 21.9156C25.407 22.7839 24.8953 23.5703 24.2333 24.2196C23.5832 24.8806 22.797 25.3921 21.9294 25.7188C21.1011 26.0399 20.1572 26.2584 18.7738 26.3234C18.4266 26.339 18.1393 26.352 17.848 26.3624L17.5958 26.3702C16.6472 26.3933 15.6984 26.4033 14.7496 26.4001L13.7797 26.4014H12.0777C11.1289 26.4046 10.1801 26.3946 9.23152 26.3715L8.97928 26.3637C8.67063 26.3525 8.36204 26.3395 8.05353 26.3247C6.67011 26.2597 5.72616 26.0386 4.89663 25.7188C4.02898 25.3929 3.24307 24.8812 2.59396 24.2196C1.93221 23.5699 1.42016 22.7836 1.09352 21.9156C0.772365 21.0874 0.553929 20.1434 0.488919 18.7599C0.474438 18.4514 0.461436 18.1428 0.449913 17.8342L0.443412 17.5819C0.419441 16.6334 0.408604 15.6846 0.410906 14.7357V12.0625C0.407278 11.1141 0.416814 10.1657 0.439511 9.21755L0.448613 8.96531C0.459014 8.67406 0.472016 8.3854 0.487619 8.03954C0.552629 6.6548 0.771064 5.71213 1.09222 4.88258C1.41905 4.01483 1.9321 3.22927 2.59526 2.58117C3.24392 1.91903 4.02934 1.40651 4.89663 1.07941C5.72616 0.758248 6.66881 0.539809 8.05353 0.474798L8.97928 0.435791L9.23152 0.42929C10.1796 0.40533 11.128 0.394494 12.0764 0.396784L14.7496 0.398084ZM13.413 6.89924C12.5516 6.88706 11.6964 7.0462 10.8971 7.36741C10.0977 7.68863 9.37019 8.16551 8.75675 8.77034C8.1433 9.37518 7.65619 10.0959 7.32371 10.8906C6.99123 11.6854 6.82001 12.5383 6.82001 13.3997C6.82001 14.2612 6.99123 15.1141 7.32371 15.9089C7.65619 16.7036 8.1433 17.4243 8.75675 18.0292C9.37019 18.634 10.0977 19.1109 10.8971 19.4321C11.6964 19.7533 12.5516 19.9124 13.413 19.9003C15.1372 19.9003 16.7907 19.2153 18.0099 17.9961C19.2291 16.7769 19.914 15.1233 19.914 13.3991C19.914 11.6749 19.2291 10.0213 18.0099 8.80208C16.7907 7.58288 15.1372 6.89924 13.413 6.89924ZM13.413 9.4997C13.9311 9.49016 14.446 9.58395 14.9275 9.77562C15.409 9.96729 15.8474 10.253 16.2173 10.616C16.5871 10.979 16.8809 11.4121 17.0815 11.89C17.282 12.3678 17.3854 12.8808 17.3855 13.3991C17.3856 13.9173 17.2824 14.4304 17.082 14.9083C16.8815 15.3862 16.5879 15.8194 16.2182 16.1825C15.8485 16.5457 15.4101 16.8315 14.9287 17.0234C14.4473 17.2152 13.9324 17.3092 13.4143 17.2998C12.3798 17.2998 11.3876 16.8888 10.6561 16.1573C9.92463 15.4258 9.51367 14.4336 9.51367 13.3991C9.51367 12.3646 9.92463 11.3724 10.6561 10.6409C11.3876 9.90937 12.3798 9.4984 13.4143 9.4984L13.413 9.4997ZM20.2391 4.94889C19.8196 4.96568 19.4229 5.14412 19.1321 5.44684C18.8413 5.74957 18.6788 6.15308 18.6788 6.57288C18.6788 6.99268 18.8413 7.3962 19.1321 7.69892C19.4229 8.00164 19.8196 8.18008 20.2391 8.19687C20.6701 8.19687 21.0835 8.02564 21.3883 7.72083C21.6931 7.41603 21.8644 7.00264 21.8644 6.57158C21.8644 6.14053 21.6931 5.72713 21.3883 5.42233C21.0835 5.11753 20.6701 4.94629 20.2391 4.94629V4.94889Z" fill="white"/>
</svg>
