<svg width="35" height="37" viewBox="0 0 35 37" fill="none" xmlns="http://www.w3.org/2000/svg">
<path d="M13.011 34.6292C11.4563 35.6981 9.60373 36.164 7.7647 35.9486C5.9257 35.7329 4.2124 34.849 2.91295 33.4452L1.77691 32.2612C1.27886 31.7181 1 30.989 1 30.2297C1 29.4704 1.27886 28.741 1.77691 28.1982L6.59872 23.1125C7.1039 22.5833 7.78383 22.2868 8.49212 22.2868C9.20038 22.2868 9.88034 22.5833 10.3855 23.1125C10.8949 23.6433 11.5791 23.9406 12.2915 23.9406C13.0039 23.9406 13.6881 23.6433 14.1975 23.1125L21.771 15.04C22.0237 14.7746 22.2243 14.4584 22.3612 14.1096C22.4982 13.7608 22.5687 13.3865 22.5687 13.0085C22.5687 12.6304 22.4982 12.2561 22.3612 11.9073C22.2243 11.5585 22.0237 11.2423 21.771 10.9769C21.2746 10.4384 20.9964 9.7137 20.9964 8.95877C20.9964 8.20382 21.2746 7.4791 21.771 6.94065L26.5676 1.82809C27.0771 1.29723 27.7611 1 28.4735 1C29.1861 1 29.8702 1.29723 30.3797 1.82809L31.4905 3.03897C32.8073 4.42403 33.6365 6.25019 33.8389 8.21035C34.0413 10.1705 33.6042 12.1452 32.6011 13.8022C27.3753 22.0112 20.726 29.0802 13.011 34.6292Z" fill="#31546B" stroke="#304A59" stroke-width="2" stroke-linecap="round" stroke-linejoin="round"/>
</svg>
