<svg width="25" height="25" viewBox="0 0 25 25" fill="none" xmlns="http://www.w3.org/2000/svg">
<g clip-path="url(#clip0_724_441)">
<path d="M0.423828 1.95717C0.423828 0.992627 1.22533 0.210938 2.21425 0.210938H23.0136C24.0025 0.210938 24.804 0.992627 24.804 1.95717V22.8449C24.804 23.8094 24.0025 24.5911 23.0136 24.5911H2.21425C1.22533 24.5911 0.423828 23.8094 0.423828 22.8449V1.95717ZM7.95578 20.6202V9.61102H4.29723V20.6202H7.95578ZM6.12726 8.10706C7.40265 8.10706 8.19653 7.2629 8.19653 6.20541C8.17367 5.12506 7.40417 4.30376 6.15164 4.30376C4.89911 4.30376 4.08085 5.12659 4.08085 6.20541C4.08085 7.2629 4.87473 8.10706 6.10288 8.10706H6.12726ZM13.6059 20.6202V14.4718C13.6059 14.1427 13.6303 13.8135 13.7278 13.5789C13.9914 12.9221 14.5933 12.241 15.6051 12.241C16.9292 12.241 17.4579 13.2498 17.4579 14.7309V20.6202H21.1165V14.3057C21.1165 10.923 19.3124 9.35045 16.9048 9.35045C14.9635 9.35045 14.0935 10.4171 13.6059 11.1683V11.2064H13.5815C13.5896 11.1937 13.5977 11.181 13.6059 11.1683V9.61102H9.94885C9.99457 10.6441 9.94885 20.6202 9.94885 20.6202H13.6059Z" fill="white"/>
</g>
<defs>
<clipPath id="clip0_724_441">
<rect width="24.3802" height="24.3802" fill="white" transform="translate(0.423828 0.210938)"/>
</clipPath>
</defs>
</svg>
