<svg width="12" height="15" viewBox="0 0 12 15" fill="none" xmlns="http://www.w3.org/2000/svg">
<path id="Vector" d="M11.246 5.13369C11.246 2.3016 8.72503 0 5.623 0C2.52098 0 0 2.3016 0 5.13369C0 8.98396 5.623 14.5455 5.623 14.5455C5.623 14.5455 11.246 8.98396 11.246 5.13369ZM3.74867 5.13369C3.74867 4.19251 4.59212 3.42246 5.623 3.42246C6.65389 3.42246 7.49734 4.19251 7.49734 5.13369C7.49734 5.58754 7.29986 6.02279 6.94836 6.34371C6.59685 6.66463 6.12011 6.84492 5.623 6.84492C5.1259 6.84492 4.64915 6.66463 4.29765 6.34371C3.94614 6.02279 3.74867 5.58754 3.74867 5.13369Z" fill="#FBFAF6"/>
</svg>
