<svg width="16" height="19" viewBox="0 0 16 19" fill="none" xmlns="http://www.w3.org/2000/svg">
<path fill-rule="evenodd" clip-rule="evenodd" d="M11.2394 7.70272C11.2394 8.58425 10.8892 9.42967 10.2659 10.053C9.64256 10.6763 8.79714 11.0265 7.91561 11.0265C7.03408 11.0265 6.18865 10.6763 5.56532 10.053C4.94198 9.42967 4.5918 8.58425 4.5918 7.70272C4.5918 6.82119 4.94198 5.97576 5.56532 5.35243C6.18865 4.72909 7.03408 4.37891 7.91561 4.37891C8.79714 4.37891 9.64256 4.72909 10.2659 5.35243C10.8892 5.97576 11.2394 6.82119 11.2394 7.70272ZM9.57751 7.70272C9.57751 8.14348 9.40242 8.56619 9.09075 8.87786C8.77908 9.18953 8.35637 9.36462 7.91561 9.36462C7.47484 9.36462 7.05213 9.18953 6.74046 8.87786C6.42879 8.56619 6.2537 8.14348 6.2537 7.70272C6.2537 7.26195 6.42879 6.83924 6.74046 6.52757C7.05213 6.2159 7.47484 6.04081 7.91561 6.04081C8.35637 6.04081 8.77908 6.2159 9.09075 6.52757C9.40242 6.83924 9.57751 7.26195 9.57751 7.70272Z" fill="#31546B"/>
<path fill-rule="evenodd" clip-rule="evenodd" d="M2.53262 12.8928C1.46139 11.8729 0.716663 10.5582 0.392616 9.11502C0.0685702 7.67183 0.179759 6.16495 0.712123 4.78495C1.24449 3.40495 2.17411 2.2138 3.38345 1.36214C4.59278 0.510479 6.02751 0.0365531 7.50619 0.000294949C8.98487 -0.0359632 10.4411 0.367075 11.6907 1.15844C12.9403 1.94981 13.9272 3.09396 14.5266 4.44621C15.126 5.79846 15.3109 7.29808 15.0579 8.75542C14.805 10.2128 14.1256 11.5624 13.1057 12.6336L7.94877 18.0497L2.53262 12.8928ZM11.9024 11.4877L7.89143 15.7006L3.67851 11.6896C2.84537 10.8963 2.26617 9.87382 2.01415 8.75136C1.76213 7.6289 1.84861 6.45692 2.26266 5.38361C2.6767 4.3103 3.39972 3.38386 4.34028 2.72146C5.28084 2.05906 6.39669 1.69043 7.54675 1.66219C8.69681 1.63395 9.82941 1.94737 10.8013 2.56282C11.7733 3.17827 12.5409 4.0681 13.0071 5.1198C13.4733 6.17149 13.6172 7.33782 13.4206 8.4713C13.224 9.60477 12.6956 10.6545 11.9024 11.4877Z" fill="#31546B"/>
</svg>
