<svg width="15" height="20" viewBox="0 0 15 20" fill="none" xmlns="http://www.w3.org/2000/svg">
<path d="M7.5 0C5.51157 0.00236318 3.60522 0.830934 2.19919 2.30394C0.793156 3.77694 0.00225574 5.77408 0 7.85722C0 14.5805 6.81818 19.6582 7.10881 19.8707C7.22345 19.9549 7.36003 20 7.5 20C7.63997 20 7.77655 19.9549 7.89119 19.8707C8.18182 19.6582 15 14.5805 15 7.85722C14.9977 5.77408 14.2068 3.77694 12.8008 2.30394C11.3948 0.830934 9.48843 0.00236318 7.5 0ZM7.5 5.00005C8.0394 5.00005 8.56669 5.16762 9.01519 5.48157C9.46369 5.79552 9.81325 6.24175 10.0197 6.76383C10.2261 7.28591 10.2801 7.86039 10.1749 8.41463C10.0696 8.96887 9.80989 9.47796 9.42847 9.87755C9.04706 10.2771 8.5611 10.5492 8.03206 10.6595C7.50303 10.7697 6.95466 10.7132 6.45632 10.4969C5.95797 10.2807 5.53203 9.91444 5.23236 9.44458C4.93268 8.97472 4.77273 8.42232 4.77273 7.85722C4.77273 7.09945 5.06006 6.37272 5.57153 5.8369C6.08299 5.30107 6.77668 5.00005 7.5 5.00005Z" fill="#31546B"/>
</svg>
