<svg width="25" height="35" viewBox="0 0 25 35" fill="none" xmlns="http://www.w3.org/2000/svg">
<path d="M12.5 0C9.18595 0.00413556 6.00871 1.45413 3.66532 4.03189C1.32193 6.60964 0.00375956 10.1046 0 13.7501C0 25.5159 11.3636 34.4019 11.848 34.7738C12.0391 34.921 12.2667 35 12.5 35C12.7333 35 12.9609 34.921 13.152 34.7738C13.6364 34.4019 25 25.5159 25 13.7501C24.9962 10.1046 23.6781 6.60964 21.3347 4.03189C18.9913 1.45413 15.8141 0.00413556 12.5 0ZM12.5 8.75009C13.399 8.75009 14.2778 9.04334 15.0253 9.59275C15.7728 10.1422 16.3554 10.9231 16.6995 11.8367C17.0435 12.7503 17.1335 13.7557 16.9581 14.7256C16.7827 15.6955 16.3498 16.5864 15.7141 17.2857C15.0784 17.985 14.2685 18.4612 13.3868 18.6541C12.505 18.847 11.5911 18.748 10.7605 18.3696C9.92996 17.9911 9.22005 17.3503 8.72059 16.528C8.22113 15.7058 7.95455 14.7391 7.95455 13.7501C7.95455 12.424 8.43344 11.1523 9.28588 10.2146C10.1383 9.27688 11.2945 8.75009 12.5 8.75009Z" fill="#31546B"/>
</svg>
