<svg width="8" height="9" viewBox="0 0 8 9" fill="none" xmlns="http://www.w3.org/2000/svg">
<path d="M8 3.17647C8 1.42412 6.20667 0 4 0C1.79333 0 0 1.42412 0 3.17647C0 5.55882 4 9 4 9C4 9 8 5.55882 8 3.17647ZM2.66667 3.17647C2.66667 2.59412 3.26667 2.11765 4 2.11765C4.73333 2.11765 5.33333 2.59412 5.33333 3.17647C5.33333 3.45729 5.19286 3.7266 4.94281 3.92517C4.69276 4.12374 4.35362 4.23529 4 4.23529C3.64638 4.23529 3.30724 4.12374 3.05719 3.92517C2.80714 3.7266 2.66667 3.45729 2.66667 3.17647Z" fill="#304A59"/>
</svg>
