<svg width="40" height="40" viewBox="0 0 40 40" fill="none" xmlns="http://www.w3.org/2000/svg">
<g id="Object" clip-path="url(#clip0_1569_2229)">
<path id="Vector" d="M19.9923 22.1787C20.5626 21.1791 20.9325 20.0804 21.3266 18.9156C21.7339 17.709 22.1545 16.4584 22.8238 15.3091C23.7177 13.7953 24.9902 12.5402 26.5162 11.6673V2.17097C26.5162 1.88569 26.46 1.6032 26.3508 1.33967C26.2415 1.07613 26.0814 0.836705 25.8796 0.635083C25.6777 0.433461 25.4382 0.273597 25.1745 0.164625C24.9109 0.0556532 24.6283 -0.000288213 24.343 1.11892e-06H15.6548C15.3696 -0.000288548 15.0872 0.0556665 14.8236 0.164665C14.5601 0.273664 14.3207 0.433567 14.119 0.635218C13.9174 0.836868 13.7575 1.07631 13.6485 1.33983C13.5395 1.60336 13.4835 1.88579 13.4838 2.17097V13.4838H2.17097C1.88579 13.4835 1.60336 13.5395 1.33983 13.6485C1.07631 13.7575 0.836868 13.9174 0.635218 14.119C0.433567 14.3207 0.273668 14.5601 0.164669 14.8236C0.0556699 15.0872 -0.000288548 15.3696 1.11885e-06 15.6548V24.343C-0.000288213 24.6283 0.0556532 24.9109 0.164625 25.1745C0.273597 25.4382 0.433465 25.6777 0.635087 25.8796C0.836709 26.0814 1.07613 26.2415 1.33967 26.3507C1.6032 26.46 1.88569 26.5162 2.17097 26.5162H13.4001C14.7582 26.348 16.0593 25.8692 17.2025 25.117C18.3458 24.3648 19.3003 23.3593 19.9923 22.1787Z" fill="#5096FF"/>
<path id="Vector_2" d="M37.8274 13.4839H26.5366C25.5703 14.1749 24.7595 15.0607 24.1565 16.0842C23.5664 17.0992 23.1877 18.2221 22.787 19.4089C22.3862 20.5957 21.9767 21.8133 21.3316 22.9318C20.5097 24.3344 19.3729 25.5267 18.011 26.4144C16.6491 27.3021 15.0994 27.8609 13.4844 28.0466V37.8159C13.4841 38.1012 13.54 38.3837 13.649 38.6474C13.758 38.911 13.9178 39.1506 14.1195 39.3524C14.3211 39.5543 14.5605 39.7144 14.824 39.8236C15.0876 39.9329 15.3701 39.9891 15.6553 39.9891H24.3348C24.6202 39.9891 24.9028 39.9329 25.1665 39.8237C25.4301 39.7145 25.6697 39.5544 25.8715 39.3526C26.0733 39.1508 26.2334 38.9112 26.3426 38.6476C26.4518 38.3839 26.508 38.1013 26.508 37.8159V26.5163H37.8186C38.395 26.5163 38.9477 26.2874 39.3553 25.8798C39.7628 25.4723 39.9918 24.9195 39.9918 24.3431V15.6549C39.9918 15.0802 39.764 14.529 39.3583 14.1221C38.9525 13.7151 38.402 13.4856 37.8274 13.4839Z" fill="#0C8BDF"/>
<path id="Vector_3" opacity="0.25" d="M26.4634 1.69759C26.3553 1.21586 26.0865 0.785282 25.7011 0.476728C25.3157 0.168175 24.8367 3.85155e-05 24.343 1.11892e-06H15.6548C15.3696 -0.000288548 15.0872 0.0556665 14.8236 0.164665C14.5601 0.273664 14.3207 0.433567 14.119 0.635218C13.9174 0.836868 13.7575 1.07631 13.6485 1.33983C13.5395 1.60336 13.4835 1.88579 13.4838 2.17097V13.4838H2.17097C1.88579 13.4835 1.60336 13.5395 1.33983 13.6485C1.07631 13.7575 0.836868 13.9174 0.635218 14.119C0.433567 14.3207 0.273668 14.5601 0.164669 14.8236C0.0556699 15.0872 -0.000288548 15.3696 1.11885e-06 15.6548V24.343C-0.000178622 24.608 0.0483347 24.8707 0.14312 25.1181C5.22926 25.1335 10.2978 22.7445 13.4398 18.7329C14.7961 16.9979 15.8023 15.0206 16.8657 12.9289C17.9666 10.7558 19.116 8.50774 20.7013 6.51731C22.2847 4.54581 24.2431 2.90768 26.4634 1.69759Z" fill="white"/>
</g>
<defs>
<clipPath id="clip0_1569_2229">
<rect width="40" height="40" fill="white"/>
</clipPath>
</defs>
</svg>
