<?xml version="1.0" encoding="UTF-8"?>
<svg id="Layer_1" data-name="Layer 1" xmlns="http://www.w3.org/2000/svg" xmlns:xlink="http://www.w3.org/1999/xlink" viewBox="0 0 411.12 417.24">
  <defs>
    <style>
      .cls-1 {
        filter: url(#outer-glow-4);
      }

      .cls-1, .cls-2, .cls-3, .cls-4, .cls-5 {
        fill: none;
        stroke: #fdcb43;
        stroke-linecap: round;
        stroke-linejoin: round;
        stroke-width: 2.19px;
      }

      .cls-2 {
        filter: url(#outer-glow-1);
      }

      .cls-6 {
        fill: #fdcb43;
        stroke-width: 0px;
      }

      .cls-7 {
        filter: url(#outer-glow-5);
      }

      .cls-4 {
        filter: url(#outer-glow-2);
      }

      .cls-5 {
        filter: url(#outer-glow-3);
      }
    </style>
    <filter id="outer-glow-1" filterUnits="userSpaceOnUse">
      <feOffset dx="0" dy="0"/>
      <feGaussianBlur result="blur" stdDeviation="5"/>
      <feFlood flood-color="#fdcb43" flood-opacity=".75"/>
      <feComposite in2="blur" operator="in"/>
      <feComposite in="SourceGraphic"/>
    </filter>
    <filter id="outer-glow-2" filterUnits="userSpaceOnUse">
      <feOffset dx="0" dy="0"/>
      <feGaussianBlur result="blur-2" stdDeviation="5"/>
      <feFlood flood-color="#fdcb43" flood-opacity=".75"/>
      <feComposite in2="blur-2" operator="in"/>
      <feComposite in="SourceGraphic"/>
    </filter>
    <filter id="outer-glow-3" filterUnits="userSpaceOnUse">
      <feOffset dx="0" dy="0"/>
      <feGaussianBlur result="blur-3" stdDeviation="5"/>
      <feFlood flood-color="#fdcb43" flood-opacity=".75"/>
      <feComposite in2="blur-3" operator="in"/>
      <feComposite in="SourceGraphic"/>
    </filter>
    <filter id="outer-glow-4" filterUnits="userSpaceOnUse">
      <feOffset dx="0" dy="0"/>
      <feGaussianBlur result="blur-4" stdDeviation="5"/>
      <feFlood flood-color="#fdcb43" flood-opacity=".75"/>
      <feComposite in2="blur-4" operator="in"/>
      <feComposite in="SourceGraphic"/>
    </filter>
    <filter id="outer-glow-5" filterUnits="userSpaceOnUse">
      <feOffset dx="0" dy="0"/>
      <feGaussianBlur result="blur-5" stdDeviation="5"/>
      <feFlood flood-color="#fdcb43" flood-opacity=".75"/>
      <feComposite in2="blur-5" operator="in"/>
      <feComposite in="SourceGraphic"/>
    </filter>
  </defs>
  <path class="cls-2" d="m372.49,305.06c14.25-26.6,22.34-57,22.34-89.29,0-93.3-67.48-170.83-156.3-186.46"/>
  <path class="cls-4" d="m292.99,382.72c10.18-5.32,19.82-11.53,28.81-18.54"/>
  <path class="cls-5" d="m42.17,310.58c18.44,31.38,45.67,56.97,78.3,73.4"/>
  <path class="cls-1" d="m168.12,29.14C81.46,46.49,16.18,123.01,16.18,214.77c0,13.51,1.41,26.68,4.1,39.39"/>
  <g class="cls-7">
    <path class="cls-3" d="m168.72,11.83l-.7,20.23c-.87,25.21-15.68,48.26-38.84,58.28-1.94.84-3.87,1.78-5.78,2.77-1.74.17-34.9,4.13-55.8,61.02-21.47,58.44-56.06,97.41-51.29,126.82,4.49,27.66,102.8,75.21,114.53,80.79-4.75,12.57-11.46,25.53-20.57,38.89m280.73-8.35s-41.3-209.13-69.87-283.5c-5.95-15.49-22.71-24.44-39.17-26.6-12.4-1.63-22.63-5.12-30.84-9.08-6.88-20.34-13.23-43.93-18-72.02m52.48,415.05s18.8-59.49,9.83-135.4c19.89,63.58,41.46,130.62,41.46,130.62m-250.42-138.81s19.62-16.93,34.19-47.49c11.91,29.36,22.37,61.49,19.33,96.95l-53.52-49.46Z"/>
    <g>
      <path class="cls-6" d="m218.84,221.75c-9.92-.41-18.3,7.34-19.12,17.3-.81,9.95,6.21,18.96,16.06,20.17,9.84,1.2,18.88-6.5,19.75-17.24.88-10.74-6.78-19.81-16.69-20.22Z"/>
      <path class="cls-6" d="m218.99,218.39c7.66.36,14.19-6.05,14.31-14.32.13-8.27-6.19-14.89-13.86-14.77-7.68.12-13.81,6.54-13.93,14.33-.12,7.8,5.81,14.4,13.48,14.76Z"/>
      <path class="cls-6" d="m219.38,184.78c6.24-.09,11.21-5.59,10.95-12.28-.26-6.69-5.66-11.79-11.89-11.38-6.23.4-10.95,5.9-10.7,12.28.26,6.38,5.39,11.48,11.64,11.39Z"/>
      <path class="cls-6" d="m218.19,157.37c5.11-.33,8.96-5.03,8.5-10.49-.47-5.46-5.06-9.45-10.15-8.91-5.09.54-8.77,5.23-8.33,10.48.45,5.25,4.87,9.24,9.98,8.91Z"/>
      <path class="cls-6" d="m208.42,128.04c.49,3.95,3.92,6.82,7.74,6.42,3.82-.41,6.56-4.04,6.06-8.11-.5-4.07-4.04-6.94-7.84-6.41-3.81.53-6.45,4.15-5.96,8.1Z"/>
      <path class="cls-6" d="m207.25,111.12c.51,3.29,3.45,5.6,6.62,5.16,3.17-.45,5.35-3.55,4.83-6.92-.52-3.37-3.53-5.68-6.69-5.15-3.16.53-5.27,3.62-4.77,6.91Z"/>
      <path class="cls-6" d="m211.28,99.86c2.52-.43,4.19-2.96,3.7-5.65-.49-2.68-2.95-4.46-5.46-3.98-2.51.49-4.14,3.01-3.66,5.64.48,2.63,2.89,4.42,5.42,3.98Z"/>
      <path class="cls-6" d="m208.55,85.26c2.24-.45,3.66-2.74,3.16-5.12-.5-2.38-2.72-3.91-4.95-3.42-2.23.49-3.62,2.77-3.13,5.11.49,2.34,2.68,3.87,4.92,3.43Z"/>
      <path class="cls-6" d="m205.67,71.77c1.25-.28,2.02-1.59,1.71-2.91-.31-1.33-1.57-2.16-2.82-1.87-1.25.29-2,1.6-1.7,2.91.3,1.31,1.56,2.15,2.81,1.87Z"/>
      <path class="cls-6" d="m215.24,263.69c-7.62-.91-14.56,4.63-15.72,12.34-1.16,7.71,3.84,15.05,11.39,16.43,7.55,1.38,14.87-4.11,16.09-12.29,1.23-8.18-4.15-15.57-11.77-16.48Z"/>
      <path class="cls-6" d="m210.11,296.91c-6.14-1.11-12.05,3.07-13.35,9.32-1.3,6.25,2.45,12.45,8.53,13.87,6.07,1.42,12.24-2.72,13.6-9.28,1.36-6.56-2.64-12.8-8.78-13.92Z"/>
      <path class="cls-6" d="m204.44,323.76c-4.99-1.16-10,2.05-11.31,7.15-1.3,5.11,1.56,10.34,6.49,11.71,4.93,1.37,10.12-1.81,11.48-7.12,1.36-5.31-1.67-10.58-6.66-11.74Z"/>
      <path class="cls-6" d="m203.32,355.02c1.16-3.93-.95-7.96-4.65-8.99-3.7-1.03-7.57,1.24-8.69,5.06-1.13,3.82.89,7.83,4.55,8.97,3.67,1.14,7.63-1.1,8.79-5.03Z"/>
      <path class="cls-6" d="m197.06,371.2c1.07-3.24-.58-6.66-3.63-7.62-3.05-.96-6.34.84-7.38,4-1.04,3.16.54,6.56,3.57,7.6,3.03,1.04,6.38-.74,7.44-3.98Z"/>
      <path class="cls-6" d="m188.18,379.35c-2.42-.84-5.09.52-6,3.04-.9,2.52.29,5.28,2.69,6.17,2.4.89,5.12-.46,6.04-3.03.92-2.57-.31-5.34-2.73-6.18Z"/>
      <path class="cls-6" d="m183.09,393.3c-2.13-.81-4.55.35-5.41,2.57-.87,2.23.13,4.71,2.25,5.56,2.12.85,4.56-.3,5.44-2.57.88-2.26-.15-4.76-2.28-5.57Z"/>
      <path class="cls-6" d="m178.03,406.13c-1.19-.48-2.56.14-3.07,1.38-.52,1.25.02,2.66,1.2,3.15,1.18.5,2.56-.12,3.09-1.38.52-1.26-.02-2.67-1.21-3.16Z"/>
    </g>
  </g>
</svg>