<svg width="33" height="67" viewBox="0 0 33 67" fill="none" xmlns="http://www.w3.org/2000/svg">
<path d="M27.0841 1.04674C27.0776 1.45244 27.4026 1.78617 27.8055 1.79272C28.2085 1.79926 28.54 1.47207 28.5465 1.06637C28.553 0.660665 28.228 0.326953 27.8251 0.320409C27.4156 0.313865 27.0841 0.641035 27.0841 1.04674Z" fill="#BDBDBD"/>
<path d="M20.506 0.968613C20.4995 1.37432 20.8244 1.70805 21.2274 1.71459C21.6304 1.72114 21.9619 1.39395 21.9684 0.988243C21.9749 0.58254 21.6499 0.248828 21.2469 0.242284C20.8374 0.23574 20.5125 0.56291 20.506 0.968613Z" fill="#BDBDBD"/>
<path d="M13.9278 0.883555C13.9213 1.28926 14.2463 1.62299 14.6493 1.62953C15.0523 1.63608 15.3838 1.30889 15.3903 0.903185C15.3968 0.497483 15.0718 0.16377 14.6688 0.157227C14.2658 0.157227 13.9343 0.477853 13.9278 0.883555Z" fill="#BDBDBD"/>
<path d="M7.35166 0.804454C7.34516 1.21016 7.67015 1.54389 8.07313 1.55043C8.47612 1.55698 8.80759 1.22979 8.81409 0.824084C8.82059 0.418381 8.49561 0.0846686 8.09263 0.078125C7.68965 0.078125 7.35816 0.398751 7.35166 0.804454Z" fill="#BDBDBD"/>
<path d="M0.779393 0.726425C0.772893 1.13213 1.09787 1.46586 1.50085 1.4724C1.90383 1.47895 2.23532 1.15176 2.24182 0.746055C2.24832 0.340353 1.92333 0.00664006 1.52035 9.64739e-05C1.11737 -0.00644712 0.785892 0.320723 0.779393 0.726425Z" fill="#BDBDBD"/>
<path d="M27.0138 6.92957C27.0073 7.33527 27.3322 7.66899 27.7352 7.67553C28.1382 7.68207 28.4697 7.3549 28.4762 6.9492C28.4827 6.5435 28.1577 6.20977 27.7547 6.20322C27.3452 6.19668 27.0138 6.52387 27.0138 6.92957Z" fill="#BDBDBD"/>
<path d="M20.4356 6.85145C20.4291 7.25715 20.7541 7.59086 21.1571 7.5974C21.5601 7.60395 21.8916 7.27678 21.8981 6.87108C21.9046 6.46537 21.5796 6.13164 21.1766 6.1251C20.7736 6.11855 20.4421 6.44574 20.4356 6.85145Z" fill="#BDBDBD"/>
<path d="M13.8575 6.77232C13.851 7.17803 14.176 7.51176 14.579 7.5183C14.982 7.52485 15.3134 7.19766 15.3199 6.79195C15.3264 6.38625 15.0015 6.05254 14.5985 6.04599C14.1955 6.03945 13.864 6.36662 13.8575 6.77232Z" fill="#BDBDBD"/>
<path d="M7.28721 6.6942C7.28071 7.0999 7.60568 7.43364 8.00866 7.44018C8.41164 7.44672 8.74314 7.11953 8.74964 6.71383C8.75614 6.30813 8.43114 5.97442 8.02816 5.96787C7.61868 5.96133 7.28721 6.28195 7.28721 6.6942Z" fill="#BDBDBD"/>
<path d="M0.70908 6.60914C0.702581 7.01484 1.02758 7.34858 1.43056 7.35512C1.83354 7.36166 2.16501 7.03447 2.17151 6.62877C2.17801 6.22307 1.85304 5.88936 1.45005 5.88281C1.04707 5.88281 0.71558 6.20344 0.70908 6.60914Z" fill="#BDBDBD"/>
<path d="M26.9415 12.8123C26.935 13.218 27.26 13.5517 27.663 13.5582C28.066 13.5648 28.3974 13.2376 28.4039 12.8319C28.4104 12.4262 28.0855 12.0925 27.6825 12.0859C27.273 12.0859 26.948 12.4066 26.9415 12.8123Z" fill="#BDBDBD"/>
<path d="M20.3634 12.7333C20.3569 13.139 20.6819 13.4727 21.0849 13.4792C21.4879 13.4858 21.8193 13.1586 21.8258 12.7529C21.8323 12.3472 21.5073 12.0135 21.1044 12.0069C20.7014 12.0004 20.3699 12.3276 20.3634 12.7333Z" fill="#BDBDBD"/>
<path d="M13.7853 12.6552C13.7788 13.0609 14.1037 13.3946 14.5067 13.4011C14.9097 13.4077 15.2412 13.0805 15.2477 12.6748C15.2542 12.2691 14.9292 11.9354 14.5262 11.9288C14.1232 11.9223 13.7918 12.2495 13.7853 12.6552Z" fill="#BDBDBD"/>
<path d="M7.21494 12.5761C7.20844 12.9818 7.53343 13.3155 7.93642 13.322C8.3394 13.3286 8.67087 13.0014 8.67737 12.5957C8.68387 12.19 8.35889 11.8562 7.95591 11.8497C7.54643 11.8432 7.22144 12.1704 7.21494 12.5761Z" fill="#BDBDBD"/>
<path d="M0.636815 12.4979C0.630315 12.9036 0.95529 13.2373 1.35827 13.2439C1.76125 13.2504 2.09275 12.9232 2.09924 12.5175C2.10574 12.1118 1.78075 11.7781 1.37777 11.7716C0.974788 11.765 0.643314 12.0922 0.636815 12.4979Z" fill="#BDBDBD"/>
<path d="M26.8712 18.701C26.8647 19.1067 27.1897 19.4405 27.5926 19.447C27.9956 19.4536 28.3271 19.1264 28.3336 18.7207C28.3401 18.315 28.0151 17.9812 27.6122 17.9747C27.2092 17.9682 26.8777 18.2953 26.8712 18.701Z" fill="#BDBDBD"/>
<path d="M20.2931 18.6229C20.2866 19.0286 20.6115 19.3623 21.0145 19.3689C21.4175 19.3754 21.749 19.0483 21.7555 18.6426C21.762 18.2369 21.437 17.9031 21.034 17.8966C20.6311 17.89 20.2996 18.2172 20.2931 18.6229Z" fill="#BDBDBD"/>
<path d="M13.7228 18.5379C13.7163 18.9436 14.0412 19.2773 14.4442 19.2838C14.8472 19.2904 15.1787 18.9632 15.1852 18.5575C15.1917 18.1518 14.8667 17.8181 14.4637 17.8115C14.0542 17.8115 13.7228 18.1321 13.7228 18.5379Z" fill="#BDBDBD"/>
<path d="M7.14463 18.4589C7.13813 18.8646 7.4631 19.1983 7.86608 19.2048C8.26906 19.2114 8.60056 18.8842 8.60706 18.4785C8.61356 18.0728 8.28856 17.7391 7.88558 17.7325C7.4826 17.726 7.15113 18.0532 7.14463 18.4589Z" fill="#BDBDBD"/>
<path d="M0.566502 18.3807C0.560002 18.7864 0.884997 19.1202 1.28798 19.1267C1.69096 19.1332 2.02243 18.8061 2.02893 18.4004C2.03543 17.9947 1.71046 17.6609 1.30748 17.6544C0.904496 17.6478 0.573002 17.975 0.566502 18.3807Z" fill="#BDBDBD"/>
<path d="M26.7989 24.5838C26.7924 24.9895 27.1174 25.3233 27.5204 25.3298C27.9234 25.3364 28.2549 25.0092 28.2614 24.6035C28.2679 24.1978 27.9429 23.8641 27.5399 23.8575C27.1369 23.851 26.8054 24.1781 26.7989 24.5838Z" fill="#BDBDBD"/>
<path d="M20.2208 24.5057C20.2143 24.9114 20.5393 25.2452 20.9423 25.2517C21.3452 25.2582 21.6767 24.9311 21.6832 24.5254C21.6897 24.1196 21.3648 23.7859 20.9618 23.7794C20.5588 23.7728 20.2273 24.1 20.2208 24.5057Z" fill="#BDBDBD"/>
<path d="M13.6505 24.4276C13.644 24.8333 13.969 25.167 14.372 25.1736C14.7749 25.1801 15.1064 24.8529 15.1129 24.4472C15.1194 24.0415 14.7944 23.7078 14.3915 23.7013C13.9885 23.6947 13.657 24.0219 13.6505 24.4276Z" fill="#BDBDBD"/>
<path d="M7.07236 24.3416C7.06586 24.7473 7.39086 25.081 7.79384 25.0875C8.19682 25.0941 8.52829 24.7669 8.53479 24.3612C8.54129 23.9555 8.21632 23.6218 7.81334 23.6152C7.41035 23.6152 7.07886 23.9359 7.07236 24.3416Z" fill="#BDBDBD"/>
<path d="M0.494236 24.2635C0.487737 24.6692 0.812712 25.003 1.21569 25.0095C1.61867 25.0161 1.95017 24.6889 1.95667 24.2832C1.96317 23.8775 1.63817 23.5437 1.23519 23.5372C0.83221 23.5307 0.500736 23.8578 0.494236 24.2635Z" fill="#BDBDBD"/>
<path d="M26.7286 30.4667C26.7221 30.8724 27.0471 31.2061 27.4501 31.2126C27.853 31.2192 28.1845 30.892 28.191 30.4863C28.1975 30.0806 27.8725 29.7469 27.4695 29.7403C27.0666 29.7338 26.7351 30.061 26.7286 30.4667Z" fill="#BDBDBD"/>
<path d="M20.1563 30.3886C20.1498 30.7943 20.4749 31.128 20.8778 31.1345C21.2808 31.1411 21.6123 30.8139 21.6188 30.4082C21.6253 30.0025 21.3003 29.6687 20.8973 29.6622C20.4878 29.6557 20.1563 29.9829 20.1563 30.3886Z" fill="#BDBDBD"/>
<path d="M13.5782 30.3104C13.5717 30.7161 13.8967 31.0498 14.2997 31.0564C14.7027 31.0629 15.0342 30.7357 15.0407 30.33C15.0472 29.9243 14.7222 29.5906 14.3192 29.5841C13.9162 29.5775 13.5847 29.9047 13.5782 30.3104Z" fill="#BDBDBD"/>
<path d="M7.0001 30.2313C6.9936 30.637 7.31857 30.9707 7.72155 30.9773C8.12453 30.9838 8.45603 30.6566 8.46253 30.2509C8.46903 29.8452 8.14403 29.5115 7.74105 29.505C7.33807 29.4984 7.0066 29.8191 7.0001 30.2313Z" fill="#BDBDBD"/>
<path d="M0.429783 30.1532C0.423284 30.5589 0.748279 30.8926 1.15126 30.8992C1.55424 30.9057 1.88571 30.5785 1.89221 30.1728C1.89871 29.7671 1.57374 29.4334 1.17076 29.4269C0.761277 29.4203 0.429783 29.7409 0.429783 30.1532Z" fill="#BDBDBD"/>
<path d="M26.6563 36.3563C26.6498 36.762 26.9749 37.0957 27.3778 37.1023C27.7808 37.1088 28.1123 36.7817 28.1188 36.376C28.1253 35.9703 27.8003 35.6365 27.3973 35.63C26.9943 35.6234 26.6628 35.9506 26.6563 36.3563Z" fill="#BDBDBD"/>
<path d="M20.0841 36.2713C20.0776 36.677 20.4026 37.0107 20.8055 37.0172C21.2085 37.0238 21.54 36.6966 21.5465 36.2909C21.553 35.8852 21.228 35.5515 20.8251 35.5449C20.4156 35.5449 20.0906 35.8656 20.0841 36.2713Z" fill="#BDBDBD"/>
<path d="M13.506 36.1932C13.4995 36.5989 13.8245 36.9327 14.2274 36.9392C14.6304 36.9457 14.9619 36.6186 14.9684 36.2129C14.9749 35.8072 14.6499 35.4734 14.2469 35.4669C13.8439 35.4603 13.5125 35.7875 13.506 36.1932Z" fill="#BDBDBD"/>
<path d="M6.92978 36.1151C6.92328 36.5208 7.24828 36.8545 7.65126 36.8611C8.05424 36.8676 8.38571 36.5404 8.39221 36.1347C8.39871 35.729 8.07374 35.3953 7.67076 35.3888C7.26778 35.3822 6.93628 35.7094 6.92978 36.1151Z" fill="#BDBDBD"/>
<path d="M0.357518 36.036C0.351018 36.4417 0.675993 36.7754 1.07897 36.782C1.48195 36.7885 1.81345 36.4613 1.81995 36.0556C1.82645 35.6499 1.50145 35.3162 1.09847 35.3097C0.688992 35.3031 0.357518 35.6303 0.357518 36.036Z" fill="#BDBDBD"/>
<path d="M26.5919 42.2381C26.5854 42.6438 26.9104 42.9776 27.3133 42.9841C27.7163 42.9907 28.0478 42.6635 28.0543 42.2578C28.0608 41.8521 27.7358 41.5184 27.3329 41.5118C26.9234 41.5053 26.5919 41.8324 26.5919 42.2381Z" fill="#BDBDBD"/>
<path d="M20.0138 42.16C20.0073 42.5657 20.3322 42.8995 20.7352 42.906C21.1382 42.9125 21.4697 42.5854 21.4762 42.1797C21.4827 41.774 21.1577 41.4402 20.7547 41.4337C20.3518 41.4271 20.0203 41.7478 20.0138 42.16Z" fill="#BDBDBD"/>
<path d="M13.4356 42.075C13.4291 42.4807 13.7541 42.8144 14.1571 42.8209C14.5601 42.8275 14.8916 42.5003 14.8981 42.0946C14.9046 41.6889 14.5796 41.3552 14.1766 41.3486C13.7736 41.3486 13.4421 41.6693 13.4356 42.075Z" fill="#BDBDBD"/>
<path d="M6.86533 41.996C6.85883 42.4017 7.18383 42.7354 7.58681 42.7419C7.98979 42.7485 8.32126 42.4213 8.32776 42.0156C8.33426 41.6099 8.00929 41.2762 7.6063 41.2696C7.19682 41.2631 6.86533 41.5903 6.86533 41.996Z" fill="#BDBDBD"/>
<path d="M0.287205 41.9179C0.280706 42.3236 0.6057 42.6573 1.00868 42.6638C1.41166 42.6704 1.74314 42.3432 1.74964 41.9375C1.75614 41.5318 1.43116 41.198 1.02818 41.1915C0.625199 41.185 0.293705 41.5121 0.287205 41.9179Z" fill="#BDBDBD"/>
<path d="M26.5196 48.121C26.5131 48.5267 26.8381 48.8604 27.2411 48.8669C27.6441 48.8735 27.9756 48.5463 27.9821 48.1406C27.9886 47.7349 27.6636 47.4012 27.2606 47.3946C26.8511 47.3881 26.5196 47.7153 26.5196 48.121Z" fill="#BDBDBD"/>
<path d="M19.9415 48.0428C19.935 48.4485 20.26 48.7823 20.663 48.7888C21.0659 48.7954 21.3974 48.4682 21.4039 48.0625C21.4104 47.6568 21.0855 47.323 20.6825 47.3165C20.2795 47.31 19.948 47.6371 19.9415 48.0428Z" fill="#BDBDBD"/>
<path d="M13.3634 47.9647C13.3569 48.3704 13.6819 48.7041 14.0849 48.7107C14.4878 48.7172 14.8193 48.39 14.8258 47.9843C14.8323 47.5786 14.5073 47.2449 14.1044 47.2384C13.7014 47.2318 13.3699 47.559 13.3634 47.9647Z" fill="#BDBDBD"/>
<path d="M6.79306 47.8856C6.78656 48.2913 7.11154 48.625 7.51452 48.6316C7.9175 48.6381 8.249 48.311 8.25549 47.9053C8.26199 47.4996 7.937 47.1658 7.53402 47.1593C7.12454 47.1527 6.79306 47.4734 6.79306 47.8856Z" fill="#BDBDBD"/>
<path d="M0.21494 47.8006C0.20844 48.2063 0.533415 48.5401 0.936396 48.5466C1.33938 48.5532 1.67087 48.226 1.67737 47.8203C1.68387 47.4146 1.35887 47.0809 0.955894 47.0743C0.552913 47.0678 0.221439 47.3949 0.21494 47.8006Z" fill="#BDBDBD"/>
<path d="M26.4474 54.0047C26.4409 54.4104 26.7658 54.7441 27.1688 54.7506C27.5718 54.7572 27.9033 54.43 27.9098 54.0243C27.9163 53.6186 27.5913 53.2849 27.1883 53.2783C26.7788 53.2783 26.4539 53.599 26.4474 54.0047Z" fill="#BDBDBD"/>
<path d="M19.8692 53.9257C19.8627 54.3314 20.1877 54.6651 20.5907 54.6716C20.9937 54.6782 21.3252 54.351 21.3317 53.9453C21.3382 53.5396 21.0132 53.2059 20.6102 53.1993C20.2072 53.1928 19.8757 53.52 19.8692 53.9257Z" fill="#BDBDBD"/>
<path d="M13.2911 53.8475C13.2846 54.2532 13.6096 54.587 14.0126 54.5935C14.4155 54.6 14.747 54.2729 14.7535 53.8671C14.76 53.4614 14.435 53.1277 14.0321 53.1212C13.6291 53.1146 13.2976 53.4418 13.2911 53.8475Z" fill="#BDBDBD"/>
<path d="M6.7208 53.7694C6.7143 54.1751 7.03929 54.5088 7.44227 54.5154C7.84526 54.5219 8.17673 54.1947 8.18323 53.789C8.18973 53.3833 7.86475 53.0496 7.46177 53.0431C7.05879 53.0365 6.7273 53.3637 6.7208 53.7694Z" fill="#BDBDBD"/>
<path d="M0.142674 53.6903C0.136174 54.096 0.461169 54.4297 0.86415 54.4363C1.26713 54.4428 1.5986 54.1156 1.6051 53.7099C1.6116 53.3042 1.28663 52.9705 0.883648 52.964C0.480667 52.9574 0.149174 53.278 0.142674 53.6903Z" fill="#BDBDBD"/>
<path d="M32.9552 59.9725C32.9487 60.3782 33.2737 60.712 33.6767 60.7185C34.0797 60.725 34.4111 60.3979 34.4176 59.9922C34.4241 59.5865 34.0991 59.2527 33.6961 59.2462C33.2867 59.2396 32.9552 59.5668 32.9552 59.9725Z" fill="#BDBDBD"/>
<path d="M26.377 59.8934C26.3705 60.2991 26.6956 60.6329 27.0985 60.6394C27.5015 60.6459 27.833 60.3188 27.8395 59.9131C27.846 59.5074 27.521 59.1736 27.118 59.1671C26.715 59.1605 26.3835 59.4812 26.377 59.8934Z" fill="#BDBDBD"/>
<path d="M19.7989 59.8085C19.7924 60.2142 20.1174 60.5479 20.5204 60.5544C20.9234 60.561 21.2549 60.2338 21.2614 59.8281C21.2679 59.4224 20.9429 59.0887 20.5399 59.0821C20.1369 59.0756 19.8054 59.4028 19.7989 59.8085Z" fill="#BDBDBD"/>
<path d="M13.2286 59.7304C13.2221 60.1361 13.5471 60.4698 13.9501 60.4763C14.3531 60.4829 14.6845 60.1557 14.691 59.75C14.6975 59.3443 14.3726 59.0105 13.9696 59.004C13.5601 58.9975 13.2286 59.3246 13.2286 59.7304Z" fill="#BDBDBD"/>
<path d="M6.65049 59.6522C6.64399 60.0579 6.96896 60.3916 7.37194 60.3982C7.77492 60.4047 8.10642 60.0776 8.11292 59.6719C8.11942 59.2662 7.79442 58.9324 7.39144 58.9259C6.98846 58.9193 6.65699 59.2465 6.65049 59.6522Z" fill="#BDBDBD"/>
<path d="M0.0723615 59.5731C0.0658618 59.9788 0.390837 60.3125 0.793818 60.3191C1.1968 60.3256 1.52829 59.9984 1.53479 59.5927C1.54129 59.187 1.2163 58.8533 0.813316 58.8468C0.410335 58.8402 0.0788611 59.1674 0.0723615 59.5731Z" fill="#BDBDBD"/>
<path d="M32.8829 65.8553C32.8764 66.261 33.2014 66.5948 33.6044 66.6013C34.0073 66.6079 34.3388 66.2807 34.3453 65.875C34.3518 65.4693 34.0269 65.1355 33.6239 65.129C33.2209 65.1225 32.8894 65.4496 32.8829 65.8553Z" fill="#BDBDBD"/>
<path d="M26.3048 65.7762C26.2983 66.1819 26.6233 66.5157 27.0262 66.5222C27.4292 66.5288 27.7607 66.2016 27.7672 65.7959C27.7737 65.3902 27.4487 65.0564 27.0458 65.0499C26.6428 65.0434 26.3113 65.3705 26.3048 65.7762Z" fill="#BDBDBD"/>
<path d="M19.7325 65.6981C19.726 66.1038 20.051 66.4375 20.454 66.4441C20.857 66.4506 21.1884 66.1235 21.1949 65.7178C21.2014 65.3121 20.8765 64.9783 20.4735 64.9718C20.064 64.9652 19.7325 65.2924 19.7325 65.6981Z" fill="#BDBDBD"/>
<path d="M13.1563 65.613C13.1498 66.0188 13.4748 66.3525 13.8778 66.359C14.2808 66.3656 14.6123 66.0384 14.6188 65.6327C14.6253 65.227 14.3003 64.8933 13.8973 64.8867C13.4878 64.8867 13.1628 65.2073 13.1563 65.613Z" fill="#BDBDBD"/>
<path d="M6.57822 65.535C6.57172 65.9407 6.89672 66.2745 7.2997 66.281C7.70268 66.2875 8.03415 65.9604 8.04065 65.5547C8.04715 65.149 7.72218 64.8152 7.3192 64.8087C6.91621 64.8021 6.58472 65.1293 6.57822 65.535Z" fill="#BDBDBD"/>
<path d="M9.58209e-05 65.4559C-0.00640387 65.8616 0.318591 66.1954 0.721572 66.2019C1.12455 66.2084 1.45603 65.8813 1.46253 65.4756C1.46903 65.0699 1.14405 64.7361 0.74107 64.7296C0.338089 64.723 0.00659551 65.0502 9.58209e-05 65.4559Z" fill="#BDBDBD"/>
</svg>
