<svg width="22" height="24" viewBox="0 0 22 24" fill="none" xmlns="http://www.w3.org/2000/svg">
<ellipse cx="10.9546" cy="11.6763" rx="10.9546" ry="11.6763" fill="white"/>
<path d="M15.4368 18.0115H15.2937C13.6808 17.8245 12.1313 17.2383 10.7687 16.2999C9.50277 15.4405 8.42797 14.2972 7.61921 12.9496C6.73671 11.4934 6.18672 9.83693 6.01336 8.11321C5.99354 7.90761 6.01311 7.69986 6.07088 7.50257C6.12866 7.30528 6.22344 7.12255 6.34947 6.96548C6.47205 6.8063 6.62334 6.67497 6.79441 6.57924C6.96547 6.48352 7.15281 6.42536 7.34534 6.4082H8.96364C9.31413 6.40858 9.65295 6.54253 9.9189 6.78585C10.1849 7.02918 10.3604 7.36584 10.4139 7.73505C10.473 8.20932 10.5837 8.67464 10.7438 9.12161C10.8411 9.40249 10.8612 9.70717 10.8017 9.99981C10.7421 10.2925 10.6054 10.5609 10.4077 10.7735L10.028 11.1782C10.6258 12.1841 11.4276 13.0343 12.3745 13.6661L12.7542 13.268C12.9537 13.0572 13.2055 12.9115 13.4801 12.848C13.7546 12.7846 14.0405 12.806 14.304 12.9098C14.7238 13.0788 15.1602 13.1968 15.6049 13.2614C15.9572 13.3178 16.278 13.5094 16.5072 13.8001C16.7364 14.0908 16.8582 14.4607 16.8497 14.8403V16.4326C16.8497 16.8467 16.6958 17.2439 16.4217 17.5373C16.1476 17.8308 15.7755 17.9965 15.387 17.9982L15.4368 18.0115ZM8.96364 7.39671H7.47605C7.40301 7.40185 7.3317 7.42273 7.26645 7.45808C7.20119 7.49343 7.14333 7.54251 7.09637 7.60237C7.05067 7.65844 7.01608 7.72378 6.99469 7.79447C6.97329 7.86516 6.96554 7.93973 6.97189 8.01369C7.12282 9.57724 7.61523 11.0814 8.40968 12.4056C9.14205 13.6307 10.1172 14.6701 11.2666 15.4507C12.5097 16.3064 13.9225 16.8424 15.3933 17.0164C15.4697 17.021 15.5463 17.0086 15.6181 16.9801C15.6899 16.9515 15.7553 16.9074 15.8103 16.8505C15.9094 16.7422 15.9652 16.5971 15.9659 16.4458V14.8602C15.9687 14.7206 15.9233 14.5848 15.8385 14.4784C15.7536 14.372 15.635 14.3025 15.5053 14.2831C14.9911 14.2094 14.486 14.0759 13.999 13.885C13.9031 13.8468 13.799 13.8383 13.6987 13.8606C13.5985 13.8829 13.5062 13.9351 13.4326 14.0111L12.8102 14.6745C12.7373 14.7502 12.6434 14.7989 12.5425 14.8133C12.4416 14.8276 12.339 14.8068 12.25 14.7541C10.9219 13.9541 9.82256 12.7847 9.06945 11.3706C9.0179 11.2764 8.99726 11.1666 9.01078 11.0584C9.02431 10.9503 9.07123 10.8501 9.14414 10.7735L9.76656 10.1101C9.83794 10.0332 9.88704 9.93597 9.90801 9.8301C9.92898 9.72423 9.92093 9.61416 9.88482 9.51303C9.70506 8.99422 9.57981 8.45577 9.51137 7.90754C9.49593 7.76508 9.43128 7.63385 9.33003 7.53942C9.22877 7.44499 9.09816 7.39411 8.96364 7.39671Z" fill="#31546B"/>
</svg>
