<svg width="29" height="30" viewBox="0 0 29 30" fill="none" xmlns="http://www.w3.org/2000/svg">
<path d="M19.3576 21.3492C17.1724 23.0454 14.423 23.845 11.6689 23.5854C8.91488 23.3258 6.36327 22.0265 4.53349 19.9519C2.70371 17.8773 1.73329 15.1833 1.81977 12.4184C1.90626 9.65354 3.04314 7.02551 4.999 5.06931C6.9552 3.11345 9.58322 1.97657 12.3481 1.89009C15.113 1.8036 17.807 2.77402 19.8816 4.6038C21.9562 6.43358 23.2555 8.98519 23.5151 11.7392C23.7747 14.4933 22.975 17.2427 21.2789 19.4279L26.7889 24.9379C26.9678 25.1041 27.0986 25.3154 27.1675 25.5497C27.2364 25.784 27.2409 26.0325 27.1804 26.269C27.1199 26.5056 26.9967 26.7215 26.8238 26.8939C26.6509 27.0664 26.4347 27.189 26.198 27.2489C25.9617 27.3094 25.7134 27.3052 25.4793 27.2366C25.2452 27.1681 25.0339 27.0377 24.8676 26.8592L19.3576 21.3492ZM20.8439 12.7579C20.86 11.677 20.661 10.6036 20.2585 9.60023C19.856 8.59687 19.2579 7.68357 18.4992 6.91345C17.7405 6.14333 16.8362 5.53177 15.839 5.11433C14.8417 4.6969 13.7714 4.48193 12.6903 4.48193C11.6093 4.48193 10.539 4.6969 9.54172 5.11433C8.54447 5.53177 7.64019 6.14333 6.88146 6.91345C6.12274 7.68357 5.52472 8.59687 5.1222 9.60023C4.71968 10.6036 4.52069 11.677 4.53681 12.7579C4.56874 14.8993 5.44182 16.9422 6.96743 18.4452C8.49304 19.9483 10.5487 20.7908 12.6903 20.7908C14.832 20.7908 16.8876 19.9483 18.4133 18.4452C19.9389 16.9422 20.8119 14.8993 20.8439 12.7579Z" fill="#BDBDBD"/>
</svg>
