<svg width="15" height="14" viewBox="0 0 15 14" fill="none" xmlns="http://www.w3.org/2000/svg">
<g clip-path="url(#clip0_209_433)">
<path d="M12.0446 6.88551C12.0402 6.82177 12.0167 6.76052 11.977 6.7088C11.9373 6.65708 11.8829 6.617 11.8202 6.59316L9.35373 5.65279L8.77172 3.20152C8.75242 3.14232 8.71718 3.08887 8.66944 3.04639C8.6217 3.00392 8.56309 2.97387 8.49936 2.95921C8.43562 2.94455 8.36895 2.94576 8.30587 2.96274C8.24278 2.97971 8.18545 3.01186 8.13947 3.05605L6.42842 4.97971L3.78031 4.74326C3.71297 4.73716 3.64517 4.74914 3.58472 4.77781C3.52427 4.80648 3.47361 4.85068 3.43858 4.90533C3.40227 4.95945 3.3827 5.02207 3.38206 5.08614C3.38143 5.1502 3.39975 5.21316 3.43498 5.26792L4.85476 7.39751L3.79511 9.70231C3.768 9.7617 3.75893 9.82703 3.7689 9.891C3.77887 9.95498 3.8075 10.0151 3.85158 10.0646C3.89599 10.1131 3.9539 10.1489 4.01875 10.168C4.0836 10.1871 4.15281 10.1887 4.21857 10.1726L6.79538 9.56199L8.79053 11.2246C8.83438 11.2624 8.88761 11.2893 8.94533 11.3027C9.01977 11.3189 9.09766 11.3139 9.16902 11.2881C9.23227 11.2633 9.28697 11.2223 9.32699 11.1699C9.36701 11.1174 9.39079 11.0555 9.39565 10.9909L9.57299 8.48313L11.8665 7.20792C11.9251 7.17528 11.9729 7.12776 12.0044 7.07077C12.0359 7.01378 12.0498 6.9496 12.0446 6.88551Z" fill="#FFD600"/>
</g>
<defs>
<clipPath id="clip0_209_433">
<rect width="11.6196" height="11.0426" fill="white" transform="matrix(0.974536 0.224232 -0.249883 0.968276 3.2168 0.189453)"/>
</clipPath>
</defs>
</svg>
