<svg width="13" height="11" viewBox="0 0 13 11" fill="none" xmlns="http://www.w3.org/2000/svg">
<path id="Star 1" d="M4.68364 1.59017C5.25535 -0.169377 7.74465 -0.169377 8.31636 1.59017C8.57203 2.37706 9.30532 2.90983 10.1327 2.90983C11.9828 2.90983 12.752 5.27729 11.2553 6.36475C10.5859 6.85107 10.3058 7.71311 10.5615 8.5C11.1332 10.2595 9.11933 11.7227 7.62257 10.6353C6.9532 10.1489 6.0468 10.1489 5.37743 10.6353C3.88067 11.7227 1.86679 10.2595 2.4385 8.5C2.69418 7.71311 2.41409 6.85107 1.74472 6.36475C0.247957 5.27729 1.01719 2.90983 2.86729 2.90983C3.69468 2.90983 4.42797 2.37706 4.68364 1.59017Z" fill="#FFA724"/>
</svg>
