<svg width="16" height="15" viewBox="0 0 16 15" fill="none" xmlns="http://www.w3.org/2000/svg">
<path id="Star 1" d="M6.09789 2.3541C6.69659 0.511481 9.30341 0.511481 9.90211 2.3541L10.2451 3.40983C10.5129 4.23387 11.2808 4.7918 12.1473 4.7918H13.2573C15.1948 4.7918 16.0003 7.27103 14.4329 8.40983L13.5348 9.06231C12.8339 9.57159 12.5405 10.4743 12.8083 11.2984L13.1513 12.3541C13.75 14.1967 11.6411 15.729 10.0736 14.5902L9.17557 13.9377C8.4746 13.4284 7.5254 13.4284 6.82443 13.9377L5.92638 14.5902C4.35895 15.729 2.24999 14.1967 2.84869 12.3541L3.19172 11.2984C3.45947 10.4743 3.16615 9.57159 2.46517 9.06231L1.56712 8.40983C-0.000308037 7.27103 0.805244 4.7918 2.74269 4.7918H3.85275C4.7192 4.7918 5.48711 4.23387 5.75486 3.40983L6.09789 2.3541Z" fill="#FFA724"/>
</svg>
