<svg width="18" height="18" viewBox="0 0 18 18" fill="none" xmlns="http://www.w3.org/2000/svg">
<path d="M14.1413 9.32435C14.1358 9.24197 14.1072 9.16281 14.0588 9.09597C14.0103 9.02913 13.944 8.97732 13.8674 8.94651L10.8575 7.73118L10.1472 4.56314C10.1237 4.48663 10.0807 4.41754 10.0224 4.36264C9.96415 4.30775 9.89263 4.26892 9.81486 4.24997C9.73709 4.23102 9.65572 4.23259 9.57874 4.25453C9.50175 4.27647 9.43178 4.31802 9.37568 4.37512L7.28762 6.86128L4.05603 6.55569C3.97385 6.54781 3.89111 6.56329 3.81734 6.60034C3.74356 6.6374 3.68175 6.69452 3.639 6.76515C3.59469 6.8351 3.5708 6.91603 3.57003 6.99883C3.56925 7.08163 3.59162 7.16299 3.6346 7.23376L5.36722 9.98606L4.07409 12.9648C4.04101 13.0416 4.02993 13.126 4.0421 13.2087C4.05427 13.2914 4.0892 13.369 4.14299 13.433C4.1972 13.4957 4.26786 13.542 4.347 13.5667C4.42614 13.5914 4.5106 13.5934 4.59085 13.5726L7.73543 12.7835L10.1702 14.9322C10.2237 14.9811 10.2887 15.0158 10.3591 15.0331C10.4499 15.0542 10.545 15.0476 10.6321 15.0142C10.7093 14.9822 10.776 14.9293 10.8249 14.8615C10.8737 14.7937 10.9027 14.7136 10.9086 14.6303L11.1251 11.3891L13.9239 9.74104C13.9954 9.69885 14.0537 9.63744 14.0922 9.56379C14.1306 9.49013 14.1476 9.40718 14.1413 9.32435Z" fill="#FFD600"/>
</svg>
