<svg width="32" height="32" viewBox="0 0 32 32" fill="none" xmlns="http://www.w3.org/2000/svg">
<g clip-path="url(#clip0_724_436)">
<path fill-rule="evenodd" clip-rule="evenodd" d="M25.595 6.03396C25.913 5.90013 26.261 5.85397 26.6029 5.90029C26.9447 5.94661 27.2679 6.08371 27.5388 6.29733C27.8097 6.51095 28.0184 6.79328 28.1432 7.11492C28.268 7.43656 28.3042 7.78577 28.2482 8.12618L25.3299 25.8277C25.0468 27.5352 23.1734 28.5144 21.6074 27.6639C20.2975 26.9523 18.352 25.856 16.602 24.7121C15.7271 24.1395 13.0468 22.306 13.3762 21.0012C13.6593 19.8856 18.1628 15.6934 20.7363 13.201C21.7464 12.2218 21.2857 11.657 20.0929 12.5577C17.1296 14.794 12.3751 18.1949 10.8027 19.1522C9.41564 19.9963 8.6925 20.1404 7.82782 19.9963C6.25028 19.7338 4.78727 19.3272 3.59318 18.8318C1.97962 18.1627 2.05811 15.9444 3.5919 15.2984L25.595 6.03396Z" fill="white"/>
</g>
<defs>
<clipPath id="clip0_724_436">
<rect width="30.8815" height="30.8815" fill="white" transform="translate(0.146484 0.333984)"/>
</clipPath>
</defs>
</svg>
