<svg width="27" height="22" viewBox="0 0 27 22" fill="none" xmlns="http://www.w3.org/2000/svg">
<path d="M26.0133 3.34424C25.0397 3.77464 24.0073 4.05738 22.9502 4.18312C24.064 3.51652 24.8974 2.46805 25.2951 1.233C24.2489 1.85516 23.102 2.29117 21.9079 2.52703C21.1049 1.66848 20.0406 1.09909 18.8804 0.907376C17.7202 0.715659 16.5291 0.912356 15.4923 1.46689C14.4555 2.02142 13.6311 2.90272 13.1472 3.97377C12.6634 5.04483 12.5471 6.24563 12.8166 7.38949C10.6949 7.28341 8.61929 6.73257 6.72447 5.77274C4.82964 4.81292 3.15802 3.46557 1.81815 1.81818C1.34392 2.63214 1.09472 3.55743 1.09605 4.49929C1.09605 6.3479 2.03885 7.98104 3.469 8.93722C2.62191 8.91052 1.79346 8.68191 1.05268 8.27045V8.33547C1.05264 9.56686 1.47883 10.7604 2.25897 11.7135C3.0391 12.6667 4.12516 13.3209 5.33292 13.5651C4.54658 13.7783 3.72198 13.8097 2.92169 13.6569C3.26223 14.7168 3.92601 15.6438 4.82005 16.3079C5.7141 16.972 6.79363 17.3401 7.90745 17.3605C6.80052 18.2293 5.53307 18.8715 4.17758 19.2503C2.8221 19.6292 1.40516 19.7374 0.0078125 19.5686C2.44675 21.1359 5.28585 21.968 8.18556 21.9654C18.0014 21.9654 23.3674 13.8405 23.3674 6.79411C23.3674 6.56463 23.3622 6.3326 23.352 6.10439C24.3961 5.35011 25.2973 4.41459 26.0133 3.34424Z" fill="white"/>
</svg>
