<svg width="20" height="20" viewBox="0 0 20 20" fill="none" xmlns="http://www.w3.org/2000/svg">
<path d="M20 10L17.7818 7.34286L18.0909 3.82857L14.8091 3.04762L13.0909 0L10 1.39048L6.90909 0L5.19091 3.0381L1.90909 3.80952L2.21818 7.33333L0 10L2.21818 12.6571L1.90909 16.181L5.19091 16.9619L6.90909 20L10 18.6L13.0909 19.9905L14.8091 16.9524L18.0909 16.1714L17.7818 12.6571L20 10ZM7.61818 13.819L5.45455 11.5333C5.37027 11.4452 5.30341 11.3406 5.25779 11.2254C5.21217 11.1101 5.18869 10.9866 5.18869 10.8619C5.18869 10.7372 5.21217 10.6137 5.25779 10.4985C5.30341 10.3832 5.37027 10.2786 5.45455 10.1905L5.51818 10.1238C5.87273 9.75238 6.45455 9.75238 6.80909 10.1238L8.27273 11.6667L12.9545 6.75238C13.3091 6.38095 13.8909 6.38095 14.2455 6.75238L14.3091 6.81905C14.6636 7.19048 14.6636 7.79048 14.3091 8.1619L8.92727 13.819C8.55455 14.1905 7.98182 14.1905 7.61818 13.819Z" fill="#0029FF"/>
</svg>
