<svg width="47" height="42" viewBox="0 0 47 42" fill="none" xmlns="http://www.w3.org/2000/svg">
<g clip-path="url(#clip0_506_1925)">
<path d="M25.8216 29.2876L4.52712 29.2876C3.37531 29.2876 2.44824 28.3509 2.44824 27.1872V27.0452C2.44824 25.8815 3.37531 24.9448 4.52712 24.9448H25.8216C26.9734 24.9448 27.9004 25.8815 27.9004 27.0452V27.1872C27.9004 28.3509 26.9734 29.2876 25.8216 29.2876Z" fill="#E9F2FF"/>
<path d="M25.8218 37.0081H25.5127C23.4058 37.0081 21.6921 35.2766 21.6921 33.1478C21.6921 31.019 23.4058 29.2876 25.5127 29.2876H25.8218V24.9448H6.01624V29.2876H13.2361C15.3431 29.2876 17.0568 31.019 17.0568 33.1478C17.0568 35.2766 15.3431 37.0081 13.2361 37.0081H6.01624L6.01624 41.3508H25.8218V37.0081Z" fill="#E9F2FF"/>
<path d="M27.0295 18.3595C27.0295 17.5647 26.4114 16.9402 25.6248 16.9119H11.4379C10.6513 16.9119 10.0051 17.5647 10.0051 18.3595C10.0051 19.1542 10.6513 19.807 11.4379 19.807H17.225C18.6297 19.807 19.7815 20.9708 19.7815 22.39C19.7815 23.8092 18.6297 24.9729 17.225 24.9729H12.393V27.8681H25.6248V24.9729H25.4282C24.0235 24.9729 22.8717 23.8092 22.8717 22.39C22.8717 20.9708 24.0235 19.807 25.4282 19.807H25.6529C26.4114 19.7787 27.0295 19.1542 27.0295 18.3595ZM34.9517 37.0078H4.5832C3.4033 37.0078 2.42004 37.9728 2.42004 39.1934C2.42004 40.3855 3.3752 41.3789 4.5832 41.3789H34.9517V37.0078ZM35.7383 37.0078H37.5643V41.3505H35.7383V37.0078ZM39.7556 37.0078H40.9355V41.3505H39.7556V37.0078ZM44.2504 37.0078H41.5254V41.3505H44.2504C45.4303 41.3505 46.4136 40.3855 46.4136 39.165C46.4136 37.9728 45.4584 37.0078 44.2504 37.0078Z" fill="#E9F2FF"/>
<path d="M17.8149 15.7767H26.1585C26.1585 15.7767 26.8047 17.6216 27.8441 18.8421C28.8555 16.9404 29.4173 14.4426 29.4173 11.7177C29.4173 11.5474 29.3892 11.3204 29.3892 11.1217C27.198 10.0999 25.2034 9.44702 22.4503 9.44702C19.6691 9.44702 17.3373 9.73086 15.0899 10.7811C15.0899 10.9514 14.9775 11.6042 14.9775 11.7461C14.9775 14.2155 15.5113 16.4863 16.4103 18.3029C17.1688 17.6216 17.9835 16.6282 17.8149 15.7767Z" fill="#FFEFE9"/>
<path d="M27.9283 19.4666L27.5912 19.0692C26.7203 18.0474 26.1303 16.6565 25.9337 16.1172L18.18 16.1172C18.1238 16.8552 17.6182 17.6784 16.663 18.5867L16.354 18.8989L16.1573 18.4731C15.2022 16.543 14.6684 14.2155 14.6684 11.7461C14.6684 11.6326 14.6965 11.4623 14.7246 11.1784C14.7527 11.0081 14.7808 10.8378 14.7808 10.781V10.5824L14.9774 10.4972C17.0001 9.53214 19.2476 9.13477 22.4782 9.13477C25.3156 9.13477 27.3383 9.81598 29.5577 10.8378L29.7543 10.923V11.3487C29.7543 11.4623 29.7824 11.6042 29.7824 11.7177C29.7824 14.471 29.2206 16.9972 28.1811 19.0124L27.9283 19.4666ZM17.4215 15.436L26.4113 15.436L26.4955 15.6631C26.4955 15.6915 27.0012 17.0823 27.8159 18.2177C28.6587 16.4011 29.1082 14.1587 29.1082 11.7177C29.1082 11.6326 29.1082 11.519 29.0801 11.4055V11.3771C27.0293 10.4404 25.119 9.81598 22.4782 9.81598C19.4442 9.81598 17.3372 10.185 15.455 11.0365C15.455 11.1216 15.4269 11.2068 15.4269 11.292C15.3988 11.4623 15.3707 11.7177 15.3707 11.7745C15.3707 13.9601 15.7921 16.0037 16.5787 17.7351C17.2811 16.9688 17.6182 16.3159 17.5339 15.805L17.4215 15.436ZM7.27997 19.8072H5.173C5.03254 19.8072 4.92017 19.6936 4.92017 19.5517C4.92017 19.4098 5.03254 19.2963 5.173 19.2963H7.27997C7.42044 19.2963 7.53281 19.4098 7.53281 19.5517C7.53281 19.6936 7.42044 19.8072 7.27997 19.8072Z" fill="#247CFF"/>
<path d="M6.21304 20.8856C6.07258 20.8856 5.96021 20.772 5.96021 20.6301V18.5013C5.96021 18.3594 6.07258 18.2458 6.21304 18.2458C6.35351 18.2458 6.46588 18.3594 6.46588 18.5013V20.6301C6.46588 20.772 6.35351 20.8856 6.21304 20.8856Z" fill="#247CFF"/>
<path d="M22.6467 6.35337C21.6073 6.35337 20.7364 5.55861 20.624 4.48002C20.5398 3.34465 21.3544 2.35121 22.4782 2.26606C23.6019 2.18091 24.5851 3.00405 24.6694 4.13941C24.7256 4.67871 24.557 5.218 24.1918 5.64376C23.8547 6.06952 23.349 6.32498 22.8153 6.35337H22.6467ZM22.6467 2.77697H22.5063C21.6635 2.86213 21.0454 3.60011 21.1297 4.45163C21.214 5.30315 21.9444 5.9276 22.7872 5.84245C23.1805 5.81407 23.5457 5.61538 23.8266 5.30316C24.0795 4.99093 24.2199 4.59355 24.1637 4.19618C24.1076 3.37304 23.4333 2.77697 22.6467 2.77697Z" fill="#BBD6FF"/>
<path d="M40.9355 27.7265C40.7951 27.7265 40.6827 27.613 40.6827 27.4711V25.91L39.5871 27.0169C39.4747 27.1305 39.3342 27.1305 39.2219 27.0169C39.1095 26.9034 39.1095 26.7615 39.2219 26.6479L40.3175 25.541H38.7724C38.6319 25.541 38.5195 25.4274 38.5195 25.2855C38.5195 25.1436 38.6319 25.0301 38.7724 25.0301H40.3175L39.2219 23.9231C39.1095 23.8095 39.1095 23.6676 39.2219 23.5541C39.3342 23.4405 39.4747 23.4405 39.5871 23.5541L40.6827 24.6611V23.0999C40.6827 22.958 40.7951 22.8445 40.9355 22.8445C41.076 22.8445 41.1884 22.958 41.1884 23.0999V24.6611L42.284 23.5541C42.3964 23.4405 42.5368 23.4405 42.6492 23.5541C42.7616 23.6676 42.7616 23.8095 42.6492 23.9231L41.5536 25.0301H43.0987C43.2391 25.0301 43.3515 25.1436 43.3515 25.2855C43.3515 25.4274 43.2391 25.541 43.0987 25.541H41.5536L42.6492 26.6479C42.7616 26.7615 42.7616 26.9034 42.6492 27.0169C42.5368 27.1305 42.3964 27.1305 42.284 27.0169L41.1884 25.91V27.4711C41.1884 27.613 41.076 27.7265 40.9355 27.7265Z" fill="#BBD6FF"/>
<path d="M3.85313 16.4862C3.71266 16.4862 3.60029 16.3727 3.60029 16.2308V14.6697L2.50467 15.7766C2.39229 15.8902 2.25183 15.8902 2.13946 15.7766C2.02709 15.6631 2.02709 15.5212 2.13946 15.4076L3.23508 14.3007H1.68997C1.54951 14.3007 1.43713 14.1871 1.43713 14.0452C1.43713 13.9033 1.54951 13.7898 1.68997 13.7898H3.23508L2.13946 12.6828C2.02709 12.5692 2.02709 12.4273 2.13946 12.3138C2.25183 12.2002 2.39229 12.2002 2.50467 12.3138L3.60029 13.4208V11.888C3.60029 11.7461 3.71266 11.6326 3.85313 11.6326C3.99359 11.6326 4.10596 11.7461 4.10596 11.888V13.4491L5.20159 12.3422C5.31396 12.2286 5.45442 12.2286 5.56679 12.3422C5.67917 12.4557 5.67917 12.5976 5.56679 12.7112L4.47117 13.8181H6.01628C6.15675 13.8181 6.26912 13.9317 6.26912 14.0736C6.26912 14.2155 6.15675 14.3291 6.01628 14.3291H4.47117L5.56679 15.436C5.67917 15.5496 5.67917 15.6915 5.56679 15.805C5.45442 15.9186 5.31396 15.9186 5.20159 15.805L4.10596 14.698V16.2592C4.10596 16.3727 3.99359 16.4862 3.85313 16.4862Z" fill="#BBD6FF"/>
<path d="M36.7777 6.35295H34.6707C34.5302 6.35295 34.4178 6.23942 34.4178 6.0975C34.4178 5.95558 34.5302 5.84204 34.6707 5.84204H36.7777C36.9181 5.84204 37.0305 5.95558 37.0305 6.0975C37.0305 6.23942 36.9181 6.35295 36.7777 6.35295Z" fill="#247CFF"/>
<path d="M35.7386 7.40339C35.5981 7.40339 35.4857 7.28985 35.4857 7.14793V5.01913C35.4857 4.87721 35.5981 4.76367 35.7386 4.76367C35.879 4.76367 35.9914 4.87721 35.9914 5.01913V7.14793C35.9914 7.28985 35.879 7.40339 35.7386 7.40339Z" fill="#247CFF"/>
<path d="M7.27961 1.61304C7.27961 2.63486 6.57729 3.48639 5.7345 3.48639C6.57729 3.48639 7.27961 4.30952 7.27961 5.35973C7.27961 4.33791 7.98193 3.48639 8.82472 3.48639C7.98193 3.48639 7.27961 2.66325 7.27961 1.61304Z" fill="#6CA7FF"/>
<path d="M3.85274 33.7154C3.23469 33.7154 2.70093 33.2045 2.70093 32.5517C2.70093 31.9272 3.2066 31.3879 3.85274 31.3879C4.49888 31.3879 5.00455 31.8988 5.00455 32.5517C4.97646 33.2045 4.47078 33.7154 3.85274 33.7154ZM3.85274 31.9272C3.51562 31.9272 3.2066 32.211 3.2066 32.58C3.2066 32.9206 3.48753 33.2329 3.85274 33.2329C4.18985 33.2329 4.49888 32.949 4.49888 32.58C4.47078 32.211 4.18985 31.9272 3.85274 31.9272ZM39.7274 32.211C39.1094 32.211 38.5756 31.7001 38.5756 31.0473C38.5756 30.3945 39.0813 29.8835 39.7274 29.8835C40.3455 29.8835 40.8792 30.3945 40.8792 31.0473C40.8792 31.7001 40.3736 32.211 39.7274 32.211ZM39.7274 30.4228C39.3903 30.4228 39.0813 30.7067 39.0813 31.0757C39.0813 31.4163 39.3622 31.7285 39.7274 31.7285C40.0645 31.7285 40.3736 31.4447 40.3736 31.0757C40.3736 30.7067 40.0926 30.4228 39.7274 30.4228Z" fill="#BBD6FF"/>
<path d="M38.6597 9.07812C38.5193 11.1502 39.8115 12.9384 41.5533 13.0519C39.8115 12.9384 38.3226 14.5279 38.1821 16.5999C38.3226 14.5279 37.0303 12.7397 35.2886 12.6261C37.0022 12.7397 38.5193 11.1502 38.6597 9.07812ZM32.2545 19.4951C32.2545 20.744 31.4118 21.7658 30.3723 21.7658C31.4118 21.7658 32.2545 22.7876 32.2545 24.0365C32.2545 22.7876 33.0973 21.7658 34.1368 21.7658C33.0973 21.7658 32.2545 20.744 32.2545 19.4951Z" fill="#6CA7FF"/>
<path d="M19.3035 17.4231H25.2592V31.9274H19.3035V17.4231Z" fill="#FFEFE9"/>
<path d="M25.5966 32.2678H18.9667V17.0823H25.5966V32.2678ZM19.6409 31.5865H24.9224V17.7635H19.6409V31.5865Z" fill="#5096FF"/>
<path d="M23.9392 22.6742L25.1472 22.0781C25.1753 22.0781 25.2033 22.0781 25.2033 22.1065L25.0067 23.8947L23.0683 28.0672C23.0402 28.0955 22.984 28.0955 22.984 28.0388L23.883 24.4908V22.7026C23.9111 22.6742 23.9111 22.6742 23.9392 22.6742Z" fill="#FFEFE9"/>
<path d="M8.88149 31.0754C9.2467 30.0252 9.78046 29.0034 10.5109 28.1519C13.4606 24.689 19.304 23.582 19.304 23.582L22.1694 30.0536L25.2597 23.582C25.2597 23.582 31.1592 24.689 34.5584 28.0951C37.9015 31.4444 37.2834 38.5972 37.2834 38.5972H8.06679C8.06679 38.5972 7.84205 36.4968 8.17917 33.9706" fill="#BBD6FF"/>
<path d="M35.0359 28.0953C31.6366 24.6893 25.7371 23.5823 25.7371 23.5823L25.2595 24.6041C27.1417 25.3137 29.4173 26.4207 31.0748 28.0953C34.4178 31.4447 33.7998 38.5974 33.7998 38.5974H37.7609C37.7609 38.5691 38.3789 31.4447 35.0359 28.0953Z" fill="#6CA7FF"/>
<path d="M24.5007 30.1677L27.2819 24.2922C25.9334 23.8664 24.9783 23.6677 24.9783 23.6677L22.0847 30.1393H24.5007V30.1677Z" fill="#6CA7FF"/>
<path d="M10.7919 33.9708L11.4943 31.0757C11.8595 30.0255 12.3932 29.0036 13.1236 28.1521C14.8654 26.1085 17.6466 24.8596 19.6131 24.2067L19.3322 23.5823C19.3322 23.5823 13.4889 24.6893 10.5391 28.1521C9.80868 29.0036 9.27491 30.0255 8.9097 31.0757L8.20738 33.9708C7.84217 36.497 8.09501 38.5974 8.09501 38.5974H10.6796C10.6515 38.5691 10.4267 36.4686 10.7919 33.9708Z" fill="white"/>
<path d="M37.2834 39.0516H8.06671C7.84197 39.0516 7.64532 38.8813 7.61723 38.6259C7.61723 38.5407 7.36439 36.4403 7.7296 33.8857C7.75769 33.6303 8.01053 33.46 8.26336 33.4883C8.5162 33.5167 8.68476 33.7722 8.65666 34.0276C8.40383 35.8158 8.46001 37.377 8.5162 38.1149H36.862C36.9182 36.5538 36.9462 31.1325 34.2493 28.436C31.44 25.626 26.8328 24.4054 25.5405 24.1216L22.6189 30.2526C22.5346 30.4229 22.366 30.508 22.1975 30.508C22.0289 30.508 21.8603 30.3945 21.7761 30.2242L19.023 24.0932C17.7307 24.4054 13.2358 25.626 10.8479 28.436C10.2018 29.174 9.6961 30.1106 9.3028 31.2176C9.21852 31.4731 8.93759 31.5866 8.71285 31.5015C8.46001 31.4163 8.34764 31.1325 8.43192 30.9054C8.85332 29.6849 9.44327 28.6631 10.1456 27.8399C13.1796 24.2919 18.9668 23.1565 19.1915 23.0998C19.3882 23.0714 19.6129 23.1565 19.6972 23.3552L22.1694 28.9185L24.8101 23.3552C24.8944 23.1565 25.1191 23.0714 25.3158 23.0998C25.5686 23.1565 31.3838 24.2919 34.8674 27.7548C38.3228 31.2176 37.7609 38.3136 37.7328 38.6259C37.7328 38.8529 37.5081 39.0516 37.2834 39.0516ZM17.9554 16.1173C17.8711 16.1173 17.7588 16.0889 17.7026 16.0038L14.7809 12.768C14.6405 12.6261 14.6686 12.399 14.809 12.2854C14.9495 12.1435 15.1742 12.1719 15.2866 12.3138L18.2083 15.5496C18.3487 15.6915 18.3206 15.9186 18.1802 16.0321C18.124 16.0889 18.0397 16.1173 17.9554 16.1173Z" fill="#247CFF"/>
<path d="M17.7025 10.0432C17.7025 10.0432 27.6193 10.2703 29.2487 12.7965V10.7812C29.2487 10.7812 21.3827 8.76593 17.7025 10.0432Z" fill="#FFEFE9"/>
<path d="M22.0849 9.50399C24.529 9.50399 26.8326 9.98652 28.7991 10.8664C29.2205 11.0651 29.7261 10.7245 29.7261 10.2704V8.85115C29.7261 4.6787 27.563 1.6416 22.1972 1.6416C16.6348 1.6416 14.6683 4.6787 14.6683 8.85115V10.1852C14.6683 10.6677 15.1459 10.98 15.5673 10.7813C17.4776 9.95813 19.7251 9.50399 22.0849 9.50399Z" fill="#BBD6FF"/>
<path d="M16.4948 10.1566V8.82259C16.4948 4.87721 18.2365 1.98203 23.0685 1.64142C22.7876 1.61304 22.4786 1.61304 22.1695 1.61304C16.6071 1.61304 14.6406 4.65013 14.6406 8.82259V10.1566C14.6406 10.6392 15.1182 10.9514 15.5396 10.7527C15.8486 10.6108 16.1857 10.4972 16.5229 10.3837C16.5229 10.3269 16.4948 10.2418 16.4948 10.1566ZM23.9394 9.50381C23.6304 9.50381 23.3213 9.50381 23.0123 9.53219C25.1193 9.64573 27.0577 10.0999 28.7714 10.8662C29.1366 11.0365 29.277 11.0649 29.3894 10.7243C27.6757 10.0715 25.9902 9.50381 23.9394 9.50381Z" fill="white"/>
<path d="M29.0521 11.3771C28.9116 11.3771 28.7431 11.3488 28.6026 11.292C26.6361 10.4405 24.3887 9.98632 22.085 9.98632C19.8657 9.98632 17.6463 10.4121 15.736 11.2352C15.3989 11.3771 15.0056 11.3488 14.6966 11.1217C14.3876 10.923 14.1909 10.554 14.1909 10.185V8.85095C14.1909 3.82697 16.944 1.18726 22.1974 1.18726C27.3665 1.18726 30.2039 3.91213 30.2039 8.85095V10.2702C30.2039 10.6392 30.0072 11.0081 29.6982 11.2068C29.4735 11.3204 29.2768 11.3771 29.0521 11.3771ZM22.085 9.02126C24.501 9.02126 26.8889 9.50379 28.9678 10.4121C29.0521 10.4405 29.1083 10.4121 29.1364 10.3837C29.1644 10.3553 29.2206 10.3269 29.2206 10.2134V8.79419C29.2206 5.72871 27.9845 2.06716 22.1412 2.06716C17.3935 2.06716 15.0618 4.28112 15.0618 8.79419V10.1282C15.0618 10.2134 15.118 10.2702 15.1461 10.2985C15.1742 10.3269 15.2584 10.3553 15.3146 10.3269C17.4216 9.4754 19.7252 9.02126 22.085 9.02126Z" fill="#247CFF"/>
<path d="M27.8162 8.93599C27.5914 8.93599 27.451 8.76569 27.4791 8.567C27.5633 7.43164 27.3667 6.4382 26.8891 5.64344C26.8048 5.47314 26.8329 5.27445 27.0015 5.16091C27.17 5.07576 27.3667 5.10415 27.4791 5.27445C28.0128 6.18274 28.2376 7.3181 28.1533 8.59539C28.1533 8.79407 27.9847 8.93599 27.8162 8.93599ZM26.552 5.01899C26.4677 5.01899 26.3834 4.99061 26.3273 4.93384C26.2149 4.82031 26.1306 4.73515 26.0182 4.65C25.8216 4.50808 25.6811 4.45131 25.6811 4.45131C25.5126 4.36616 25.4283 4.16747 25.5126 3.99717C25.5968 3.82686 25.7935 3.74171 25.962 3.82686C25.9901 3.82686 26.1587 3.91201 26.4115 4.1107C26.552 4.22424 26.6644 4.33778 26.8048 4.45131C26.9453 4.59323 26.9453 4.79192 26.8048 4.93384C26.7486 4.99061 26.6644 5.01899 26.552 5.01899Z" fill="#5096FF"/>
<path d="M26.2143 16.174C26.13 16.174 26.0457 16.1456 25.9614 16.0605C25.821 15.9185 25.821 15.7199 25.9614 15.5779L29.164 12.3989C29.3045 12.257 29.5011 12.257 29.6416 12.3989C29.7821 12.5408 29.7821 12.7395 29.6416 12.8814L26.439 16.0605C26.3828 16.1172 26.2985 16.174 26.2143 16.174Z" fill="#247CFF"/>
<path d="M18.8545 29.5997H14.472C14.163 29.5997 13.9102 29.3443 13.9102 29.032C13.9102 28.7198 14.163 28.4644 14.472 28.4644H18.8545C19.1635 28.4644 19.4164 28.7198 19.4164 29.032C19.4164 29.3443 19.1635 29.5997 18.8545 29.5997Z" fill="#E9F2FF"/>
<path d="M22.4217 22.7026C24.7253 22.7026 26.6356 21.2266 27.8717 18.8423C26.8323 17.6218 26.1861 15.7769 26.1861 15.7769H17.8144C17.983 16.6568 17.1683 17.6502 16.4379 18.3598C17.7582 20.9995 19.9214 22.7026 22.4217 22.7026Z" fill="white"/>
<path d="M22.4224 23.043C19.894 23.043 17.5904 21.3967 16.1577 18.5015L16.0453 18.2744L16.2419 18.1041C17.169 17.2242 17.6185 16.4011 17.5342 15.8334L17.4499 15.436H26.4397L26.524 15.6631C26.524 15.6915 27.1701 17.4797 28.1533 18.6434L28.2938 18.8137L28.1814 19.0124C26.8049 21.5954 24.7541 23.043 22.4224 23.043ZM16.86 18.4164C18.1804 20.9142 20.203 22.3617 22.4224 22.3617C24.4451 22.3617 26.2149 21.1412 27.451 18.8989C26.6644 17.9054 26.1307 16.6282 25.934 16.1173H18.1804C18.1242 16.7985 17.7028 17.5648 16.86 18.4164Z" fill="#247CFF"/>
</g>
<defs>
<clipPath id="clip0_506_1925">
<rect width="46.1147" height="41.5316" fill="white" transform="translate(0.588867 0.26001)"/>
</clipPath>
</defs>
</svg>
