<svg width="88" height="105" viewBox="0 0 88 105" fill="none" xmlns="http://www.w3.org/2000/svg">
<path d="M84.0224 2.13873C84.0121 2.77315 84.5236 3.295 85.1579 3.30523C85.7922 3.31546 86.314 2.80385 86.3242 2.16943C86.3344 1.53501 85.8229 1.01313 85.1886 1.0029C84.5543 0.992665 84.0326 1.50431 84.0224 2.13873Z" fill="#BDBDBD"/>
<path d="M73.6794 2.01599C73.6691 2.65041 74.1807 3.17225 74.815 3.18249C75.4493 3.19272 75.971 2.68111 75.9812 2.04669C75.9914 1.41227 75.4799 0.890388 74.8456 0.880156C74.2011 0.869923 73.6794 1.38157 73.6794 2.01599Z" fill="#BDBDBD"/>
<path d="M63.3263 1.88296C63.3161 2.51738 63.8276 3.03923 64.4619 3.04946C65.0962 3.0597 65.6179 2.54808 65.6282 1.91366C65.6384 1.27924 65.1269 0.757364 64.4926 0.747131C63.8583 0.747131 63.3366 1.24854 63.3263 1.88296Z" fill="#BDBDBD"/>
<path d="M52.9733 1.76013C52.9631 2.39455 53.4746 2.9164 54.1089 2.92663C54.7431 2.93686 55.2649 2.42525 55.2751 1.79083C55.2854 1.15641 54.7739 0.634529 54.1396 0.624296C53.5053 0.614064 52.9835 1.12571 52.9733 1.76013Z" fill="#BDBDBD"/>
<path d="M42.6303 1.63736C42.62 2.27178 43.1316 2.79365 43.7658 2.80389C44.4001 2.81412 44.9219 2.30247 44.9321 1.66805C44.9423 1.03363 44.4308 0.511787 43.7966 0.501555C43.152 0.491322 42.6303 1.00294 42.6303 1.63736Z" fill="#BDBDBD"/>
<path d="M32.277 1.51455C32.2668 2.14897 32.7783 2.67085 33.4126 2.68108C34.0468 2.69132 34.5686 2.17967 34.5788 1.54525C34.5891 0.91083 34.0776 0.388985 33.4433 0.378752C32.7988 0.368519 32.2872 0.880134 32.277 1.51455Z" fill="#BDBDBD"/>
<path d="M21.924 1.38153C21.9137 2.01595 22.4253 2.53783 23.0595 2.54806C23.6938 2.55829 24.2156 2.04665 24.2258 1.41223C24.236 0.777806 23.7245 0.25596 23.0902 0.245728C22.4559 0.245728 21.9342 0.747109 21.924 1.38153Z" fill="#BDBDBD"/>
<path d="M11.571 1.25873C11.5607 1.89315 12.0723 2.41502 12.7065 2.42526C13.3408 2.43549 13.8626 1.92384 13.8728 1.28942C13.883 0.655003 13.3715 0.133157 12.7372 0.122925C12.1029 0.122925 11.5812 0.624306 11.571 1.25873Z" fill="#BDBDBD"/>
<path d="M1.22769 1.13595C1.21746 1.77037 1.72896 2.29225 2.36325 2.30248C2.99753 2.31272 3.5193 1.80107 3.52953 1.16665C3.53976 0.532229 3.02822 0.0103834 2.39394 0.000150862C1.75965 -0.0100817 1.23792 0.501533 1.22769 1.13595Z" fill="#BDBDBD"/>
<path d="M83.9101 11.3378C83.8998 11.9722 84.4114 12.4941 85.0457 12.5043C85.68 12.5146 86.2017 12.0029 86.2119 11.3685C86.2221 10.7341 85.7106 10.2122 85.0763 10.202C84.4421 10.1918 83.9203 10.7034 83.9101 11.3378Z" fill="#BDBDBD"/>
<path d="M73.567 11.215C73.5568 11.8494 74.0683 12.3713 74.7026 12.3815C75.3369 12.3918 75.8587 11.8801 75.8689 11.2457C75.8791 10.6113 75.3676 10.0894 74.7333 10.0792C74.0888 10.069 73.567 10.5806 73.567 11.215Z" fill="#BDBDBD"/>
<path d="M63.214 11.0923C63.2038 11.7267 63.7153 12.2485 64.3496 12.2588C64.9839 12.269 65.5056 11.7574 65.5159 11.123C65.5261 10.4886 65.0146 9.96668 64.3803 9.95645C63.746 9.94622 63.2242 10.4579 63.214 11.0923Z" fill="#BDBDBD"/>
<path d="M52.8607 10.9695C52.8505 11.6039 53.362 12.1257 53.9963 12.136C54.6306 12.1462 55.1524 11.6346 55.1626 11.0002C55.1728 10.3658 54.6613 9.84388 54.027 9.83365C53.3927 9.82342 52.871 10.3248 52.8607 10.9695Z" fill="#BDBDBD"/>
<path d="M42.5177 10.8364C42.5075 11.4708 43.019 11.9927 43.6533 12.0029C44.2876 12.0132 44.8093 11.5015 44.8196 10.8671C44.8298 10.2327 44.3182 9.71082 43.6839 9.70059C43.0394 9.69036 42.5177 10.202 42.5177 10.8364Z" fill="#BDBDBD"/>
<path d="M32.1647 10.7137C32.1545 11.3481 32.666 11.8699 33.3003 11.8802C33.9345 11.8904 34.4563 11.3788 34.4665 10.7444C34.4768 10.11 33.9652 9.58808 33.3309 9.57785C32.6966 9.56762 32.1749 10.0793 32.1647 10.7137Z" fill="#BDBDBD"/>
<path d="M21.8114 10.5908C21.8012 11.2253 22.3127 11.7471 22.947 11.7574C23.5813 11.7676 24.103 11.256 24.1133 10.6215C24.1235 9.98712 23.612 9.46528 22.9777 9.45505C22.3434 9.44481 21.8217 9.95643 21.8114 10.5908Z" fill="#BDBDBD"/>
<path d="M11.4687 10.468C11.4584 11.1025 11.9699 11.6243 12.6042 11.6346C13.2385 11.6448 13.7603 11.1332 13.7705 10.4987C13.7807 9.86432 13.2692 9.34248 12.6349 9.33225C11.9904 9.32201 11.4687 9.8234 11.4687 10.468Z" fill="#BDBDBD"/>
<path d="M1.11539 10.335C1.10515 10.9694 1.61669 11.4913 2.25098 11.5016C2.88526 11.5118 3.40699 11.0001 3.41722 10.3657C3.42745 9.7313 2.91595 9.20945 2.28167 9.19922C1.64738 9.19922 1.12562 9.7006 1.11539 10.335Z" fill="#BDBDBD"/>
<path d="M83.8078 20.5369C83.7975 21.1713 84.309 21.6932 84.9433 21.7034C85.5776 21.7136 86.0994 21.202 86.1096 20.5676C86.1198 19.9331 85.6083 19.4113 84.974 19.4011C84.3295 19.4011 83.8078 19.9024 83.8078 20.5369Z" fill="#BDBDBD"/>
<path d="M73.4545 20.4141C73.4443 21.0485 73.9558 21.5704 74.5901 21.5806C75.2243 21.5909 75.7461 21.0792 75.7563 20.4448C75.7666 19.8104 75.2551 19.2885 74.6208 19.2783C73.9763 19.2681 73.4647 19.7797 73.4545 20.4141Z" fill="#BDBDBD"/>
<path d="M63.1012 20.2913C63.091 20.9258 63.6025 21.4476 64.2368 21.4579C64.8711 21.4681 65.3928 20.9565 65.4031 20.322C65.4133 19.6876 64.9018 19.1658 64.2675 19.1555C63.6332 19.1453 63.1115 19.6569 63.1012 20.2913Z" fill="#BDBDBD"/>
<path d="M52.7482 20.1685C52.738 20.8029 53.2495 21.3248 53.8838 21.335C54.518 21.3452 55.0398 20.8336 55.05 20.1992C55.0603 19.5648 54.5487 19.0429 53.9144 19.0327C53.2801 19.0225 52.7584 19.5341 52.7482 20.1685Z" fill="#BDBDBD"/>
<path d="M42.4054 20.0355C42.3952 20.6699 42.9068 21.1918 43.541 21.2021C44.1753 21.2123 44.697 20.7006 44.7073 20.0662C44.7175 19.4318 44.206 18.91 43.5717 18.8997C42.9272 18.8997 42.4157 19.4011 42.4054 20.0355Z" fill="#BDBDBD"/>
<path d="M32.0522 19.9127C32.0419 20.5471 32.5535 21.069 33.1878 21.0792C33.8221 21.0894 34.3438 20.5778 34.354 19.9434C34.3642 19.309 33.8527 18.7871 33.2184 18.7769C32.5841 18.7667 32.0624 19.2783 32.0522 19.9127Z" fill="#BDBDBD"/>
<path d="M21.6989 19.79C21.6887 20.4244 22.2002 20.9462 22.8344 20.9565C23.4687 20.9667 23.9905 20.4551 24.0007 19.8207C24.011 19.1863 23.4994 18.6644 22.8651 18.6541C22.2308 18.6439 21.7091 19.1556 21.6989 19.79Z" fill="#BDBDBD"/>
<path d="M11.3559 19.6672C11.3456 20.3016 11.8572 20.8234 12.4915 20.8337C13.1257 20.8439 13.6475 20.3323 13.6577 19.6979C13.6679 19.0634 13.1564 18.5416 12.5221 18.5313C11.8776 18.5211 11.3661 19.0328 11.3559 19.6672Z" fill="#BDBDBD"/>
<path d="M1.00284 19.5443C0.992606 20.1788 1.50411 20.7006 2.1384 20.7109C2.77268 20.7211 3.29444 20.2095 3.30468 19.575C3.31491 18.9406 2.80337 18.4188 2.16909 18.4085C1.5348 18.3983 1.01307 18.9099 1.00284 19.5443Z" fill="#BDBDBD"/>
<path d="M83.6952 29.7462C83.685 30.3807 84.1965 30.9025 84.8308 30.9128C85.4651 30.923 85.9868 30.4114 85.9971 29.7769C86.0073 29.1425 85.4957 28.6207 84.8614 28.6104C84.2169 28.6002 83.6952 29.1118 83.6952 29.7462Z" fill="#BDBDBD"/>
<path d="M73.3419 29.6235C73.3317 30.2579 73.8432 30.7798 74.4775 30.79C75.1118 30.79 75.6336 30.2886 75.6438 29.6542C75.654 29.0197 75.1424 28.4979 74.5082 28.4877C73.8739 28.4672 73.3522 28.9788 73.3419 29.6235Z" fill="#BDBDBD"/>
<path d="M62.9887 29.4904C62.9784 30.1249 63.49 30.6467 64.1242 30.657C64.7585 30.6672 65.2803 30.1556 65.2905 29.5211C65.3007 28.8867 64.7892 28.3649 64.1549 28.3546C63.5206 28.3444 62.9989 28.856 62.9887 29.4904Z" fill="#BDBDBD"/>
<path d="M52.6459 29.3676C52.6357 30.0021 53.1472 30.5239 53.7815 30.5342C54.4158 30.5444 54.9375 30.0328 54.9477 29.3983C54.958 28.7639 54.4465 28.2421 53.8122 28.2318C53.1677 28.2216 52.6459 28.7332 52.6459 29.3676Z" fill="#BDBDBD"/>
<path d="M42.2929 29.2448C42.2826 29.8793 42.7941 30.4011 43.4284 30.4114C44.0627 30.4216 44.5845 29.91 44.5947 29.2755C44.6049 28.6411 44.0934 28.1193 43.4592 28.109C42.8249 28.0988 42.3031 28.6104 42.2929 29.2448Z" fill="#BDBDBD"/>
<path d="M31.9396 29.1221C31.9294 29.7565 32.4409 30.2783 33.0752 30.2886C33.7094 30.2988 34.2312 29.7872 34.2414 29.1528C34.2517 28.5183 33.7402 27.9965 33.1059 27.9862C32.4716 27.976 31.9498 28.4876 31.9396 29.1221Z" fill="#BDBDBD"/>
<path d="M21.5966 28.9891C21.5864 29.6235 22.0979 30.1454 22.7321 30.1556C23.3664 30.1658 23.8882 29.6542 23.8984 29.0198C23.9087 28.3853 23.3971 27.8635 22.7628 27.8533C22.1183 27.8533 21.5966 28.3547 21.5966 28.9891Z" fill="#BDBDBD"/>
<path d="M11.2436 28.8663C11.2333 29.5007 11.7448 30.0225 12.3791 30.0328C13.0134 30.043 13.5352 29.5314 13.5454 28.897C13.5556 28.2625 13.0441 27.7407 12.4098 27.7304C11.7755 27.7202 11.2538 28.2318 11.2436 28.8663Z" fill="#BDBDBD"/>
<path d="M0.890288 28.7435C0.880057 29.3779 1.39159 29.8997 2.02588 29.91C2.66016 29.9202 3.1819 29.4086 3.19213 28.7742C3.20236 28.1397 2.69085 27.6179 2.05657 27.6076C1.42228 27.5974 0.900518 28.109 0.890288 28.7435Z" fill="#BDBDBD"/>
<path d="M83.5824 38.9453C83.5722 39.5797 84.0838 40.1016 84.718 40.1118C85.3523 40.122 85.874 39.6104 85.8843 38.976C85.8945 38.3416 85.383 37.8197 84.7487 37.8095C84.1042 37.7992 83.5824 38.3109 83.5824 38.9453Z" fill="#BDBDBD"/>
<path d="M73.2294 38.8226C73.2192 39.457 73.7307 39.9788 74.365 39.9891C74.9993 39.9993 75.521 39.4877 75.5312 38.8533C75.5415 38.2188 75.03 37.697 74.3957 37.6867C73.7614 37.6765 73.2396 38.1779 73.2294 38.8226Z" fill="#BDBDBD"/>
<path d="M62.8764 38.6895C62.8661 39.324 63.3777 39.8458 64.012 39.856C64.6463 39.8663 65.168 39.3547 65.1782 38.7202C65.1884 38.0858 64.6769 37.5639 64.0427 37.5537C63.4084 37.5537 62.8866 38.0551 62.8764 38.6895Z" fill="#BDBDBD"/>
<path d="M52.5331 38.5667C52.5229 39.2011 53.0344 39.723 53.6687 39.7332C54.303 39.7434 54.8247 39.2318 54.8349 38.5974C54.8452 37.963 54.3337 37.4411 53.6994 37.4309C53.0549 37.4206 52.5433 37.9323 52.5331 38.5667Z" fill="#BDBDBD"/>
<path d="M42.1801 38.4439C42.1699 39.0784 42.6814 39.6002 43.3156 39.6105C43.9499 39.6207 44.4717 39.1091 44.4819 38.4746C44.4922 37.8402 43.9806 37.3184 43.3464 37.3081C42.7121 37.2979 42.1903 37.8095 42.1801 38.4439Z" fill="#BDBDBD"/>
<path d="M31.8271 38.3211C31.8168 38.9556 32.3283 39.4774 32.9626 39.4877C33.5969 39.4979 34.1187 38.9863 34.1289 38.3518C34.1391 37.7174 33.6276 37.1956 32.9933 37.1853C32.3591 37.1751 31.8373 37.6867 31.8271 38.3211Z" fill="#BDBDBD"/>
<path d="M21.484 38.1983C21.4738 38.8328 21.9853 39.3546 22.6196 39.3649C23.2539 39.3751 23.7756 38.8634 23.7859 38.229C23.7961 37.5946 23.2846 37.0728 22.6503 37.0625C22.016 37.0523 21.4943 37.5639 21.484 38.1983Z" fill="#BDBDBD"/>
<path d="M11.1308 38.0653C11.1205 38.6997 11.6321 39.2216 12.2664 39.2318C12.9006 39.2421 13.4224 38.7304 13.4326 38.096C13.4428 37.4616 12.9313 36.9397 12.297 36.9295C11.6628 36.9295 11.141 37.4309 11.1308 38.0653Z" fill="#BDBDBD"/>
<path d="M0.777739 37.9425C0.767508 38.577 1.27901 39.0988 1.9133 39.1091C2.54758 39.1193 3.06935 38.6076 3.07958 37.9732C3.08981 37.3388 2.57827 36.817 1.94399 36.8067C1.3097 36.7965 0.787969 37.3081 0.777739 37.9425Z" fill="#BDBDBD"/>
<path d="M83.4701 48.1444C83.4599 48.7789 83.9714 49.3007 84.6057 49.311C85.24 49.3212 85.7617 48.8096 85.772 48.1751C85.7822 47.5407 85.2707 47.0189 84.6364 47.0086C84.0021 46.9984 83.4804 47.51 83.4701 48.1444Z" fill="#BDBDBD"/>
<path d="M73.1169 48.0217C73.1066 48.6561 73.6181 49.1779 74.2524 49.1882C74.8867 49.1984 75.4085 48.6868 75.4187 48.0524C75.4289 47.4179 74.9174 46.8961 74.2831 46.8858C73.6488 46.8756 73.1271 47.3872 73.1169 48.0217Z" fill="#BDBDBD"/>
<path d="M62.7741 47.8989C62.7638 48.5333 63.2754 49.0551 63.9096 49.0654C64.5439 49.0756 65.0657 48.564 65.0759 47.9296C65.0861 47.2951 64.5746 46.7733 63.9404 46.763C63.2958 46.7528 62.7741 47.2644 62.7741 47.8989Z" fill="#BDBDBD"/>
<path d="M52.4208 47.7761C52.4106 48.4105 52.9221 48.9323 53.5564 48.9426C54.1906 48.9528 54.7124 48.4412 54.7226 47.8068C54.7329 47.1723 54.2214 46.6505 53.5871 46.6402C52.9528 46.63 52.431 47.1314 52.4208 47.7761Z" fill="#BDBDBD"/>
<path d="M42.0678 47.6431C42.0575 48.2775 42.5691 48.7993 43.2033 48.8096C43.8376 48.8198 44.3594 48.3082 44.3696 47.6738C44.3798 47.0393 43.8683 46.5175 43.234 46.5072C42.5997 46.497 42.078 47.0086 42.0678 47.6431Z" fill="#BDBDBD"/>
<path d="M31.7248 47.5203C31.7145 48.1547 32.2261 48.6765 32.8604 48.6868C33.4947 48.697 34.0164 48.1854 34.0266 47.551C34.0368 46.9165 33.5253 46.3947 32.891 46.3844C32.2465 46.3742 31.7248 46.8858 31.7248 47.5203Z" fill="#BDBDBD"/>
<path d="M21.3715 47.3975C21.3613 48.0319 21.8728 48.5538 22.507 48.564C23.1413 48.5743 23.6631 48.0626 23.6733 47.4282C23.6836 46.7938 23.172 46.2719 22.5377 46.2617C21.9035 46.2515 21.3817 46.7631 21.3715 47.3975Z" fill="#BDBDBD"/>
<path d="M11.0182 47.2747C11.008 47.9091 11.5195 48.431 12.1538 48.4412C12.7881 48.4515 13.3098 47.9398 13.3201 47.3054C13.3303 46.671 12.8188 46.1491 12.1845 46.1389C11.5502 46.1287 11.0284 46.63 11.0182 47.2747Z" fill="#BDBDBD"/>
<path d="M0.675444 47.1519C0.665213 47.7863 1.17675 48.3082 1.81103 48.3184C2.44532 48.3286 2.96705 47.817 2.97728 47.1826C2.98751 46.5482 2.47601 46.0263 1.84172 46.0161C1.19721 46.0059 0.675444 46.5072 0.675444 47.1519Z" fill="#BDBDBD"/>
<path d="M83.3573 57.3436C83.3471 57.978 83.8586 58.4999 84.4929 58.5101C85.1272 58.5203 85.6489 58.0087 85.6592 57.3743C85.6694 56.7398 85.1579 56.218 84.5236 56.2078C83.8893 56.2078 83.3676 56.7091 83.3573 57.3436Z" fill="#BDBDBD"/>
<path d="M73.0043 57.2207C72.9941 57.8552 73.5056 58.377 74.1399 58.3873C74.7741 58.3975 75.2959 57.8858 75.3061 57.2514C75.3164 56.617 74.8049 56.0952 74.1706 56.0849C73.5363 56.0747 73.0145 56.5863 73.0043 57.2207Z" fill="#BDBDBD"/>
<path d="M62.6615 57.098C62.6513 57.7324 63.1628 58.2543 63.7971 58.2645C64.4314 58.2748 64.9531 57.7631 64.9634 57.1287C64.9736 56.4943 64.462 55.9724 63.8277 55.9622C63.1935 55.952 62.6615 56.4636 62.6615 57.098Z" fill="#BDBDBD"/>
<path d="M52.3083 56.9752C52.298 57.6096 52.8095 58.1315 53.4438 58.1417C54.0781 58.1519 54.5999 57.6403 54.6101 57.0059C54.6203 56.3715 54.1088 55.8496 53.4745 55.8394C52.8402 55.8292 52.3185 56.3408 52.3083 56.9752Z" fill="#BDBDBD"/>
<path d="M41.955 56.8524C41.9448 57.4868 42.4563 58.0087 43.0906 58.0189C43.7249 58.0291 44.2466 57.5175 44.2568 56.8831C44.2671 56.2487 43.7555 55.7268 43.1213 55.7166C42.487 55.7063 41.9652 56.218 41.955 56.8524Z" fill="#BDBDBD"/>
<path d="M31.612 56.7194C31.6017 57.3538 32.1132 57.8757 32.7475 57.8859C33.3818 57.8961 33.9036 57.3845 33.9138 56.7501C33.924 56.1157 33.4125 55.5938 32.7782 55.5836C32.1337 55.5836 31.6222 56.085 31.612 56.7194Z" fill="#BDBDBD"/>
<path d="M21.2589 56.5966C21.2487 57.231 21.7602 57.7528 22.3945 57.7631C23.0288 57.7733 23.5505 57.2617 23.5608 56.6273C23.571 55.9928 23.0595 55.471 22.4252 55.4607C21.7909 55.4505 21.2692 55.9621 21.2589 56.5966Z" fill="#BDBDBD"/>
<path d="M10.9059 56.4738C10.8957 57.1082 11.4072 57.6301 12.0415 57.6403C12.6758 57.6505 13.1975 57.1389 13.2078 56.5045C13.218 55.8701 12.7065 55.3482 12.0722 55.338C11.4379 55.3277 10.9161 55.8394 10.9059 56.4738Z" fill="#BDBDBD"/>
<path d="M0.562895 56.351C0.552665 56.9854 1.06417 57.5073 1.69845 57.5175C2.33274 57.5277 2.8545 57.0161 2.86473 56.3817C2.87496 55.7473 2.36343 55.2254 1.72914 55.2152C1.08463 55.2049 0.562895 55.7166 0.562895 56.351Z" fill="#BDBDBD"/>
<path d="M83.245 66.5529C83.2348 67.1873 83.7463 67.7092 84.3806 67.7194C85.0149 67.7296 85.5366 67.218 85.5469 66.5836C85.5571 65.9492 85.0455 65.4273 84.4112 65.4171C83.777 65.4068 83.2553 65.9185 83.245 66.5529Z" fill="#BDBDBD"/>
<path d="M72.902 66.4199C72.8918 67.0543 73.4033 67.5762 74.0376 67.5864C74.6719 67.5966 75.1936 67.085 75.2038 66.4506C75.2141 65.8162 74.7026 65.2943 74.0683 65.2841C73.4238 65.2841 72.902 65.7855 72.902 66.4199Z" fill="#BDBDBD"/>
<path d="M62.549 66.297C62.5387 66.9314 63.0503 67.4533 63.6846 67.4636C64.3189 67.4738 64.8406 66.9621 64.8508 66.3277C64.861 65.6933 64.3495 65.1715 63.7153 65.1612C63.081 65.151 62.5592 65.6626 62.549 66.297Z" fill="#BDBDBD"/>
<path d="M52.1957 66.1743C52.1855 66.8087 52.697 67.3306 53.3313 67.3408C53.9656 67.351 54.4873 66.8394 54.4975 66.205C54.5078 65.5706 53.9963 65.0487 53.362 65.0385C52.7277 65.0282 52.2059 65.5399 52.1957 66.1743Z" fill="#BDBDBD"/>
<path d="M41.8527 66.0515C41.8425 66.6859 42.354 67.2078 42.9882 67.218C43.6225 67.2282 44.1443 66.7166 44.1545 66.0822C44.1648 65.4478 43.6533 64.9259 43.019 64.9157C42.3745 64.9054 41.8527 65.4171 41.8527 66.0515Z" fill="#BDBDBD"/>
<path d="M31.4997 65.9287C31.4894 66.5631 32.0009 67.085 32.6352 67.0952C33.2695 67.1054 33.7913 66.5938 33.8015 65.9594C33.8117 65.325 33.3002 64.8031 32.6659 64.7929C32.0317 64.7826 31.5099 65.2841 31.4997 65.9287Z" fill="#BDBDBD"/>
<path d="M21.1464 65.7957C21.1362 66.4301 21.6477 66.952 22.2819 66.9622C22.9162 66.9724 23.438 66.4608 23.4482 65.8263C23.4585 65.1919 22.9469 64.6701 22.3126 64.6599C21.6784 64.6599 21.1566 65.1612 21.1464 65.7957Z" fill="#BDBDBD"/>
<path d="M10.8036 65.6728C10.7934 66.3073 11.3049 66.8291 11.9392 66.8393C12.5735 66.8496 13.0952 66.338 13.1055 65.7035C13.1157 65.0691 12.6042 64.5472 11.9699 64.537C11.3254 64.5268 10.8036 65.0384 10.8036 65.6728Z" fill="#BDBDBD"/>
<path d="M0.450346 65.5501C0.440116 66.1845 0.951652 66.7064 1.58594 66.7166C2.22022 66.7268 2.74195 66.2152 2.75218 65.5808C2.76242 64.9464 2.25091 64.4245 1.61663 64.4143C0.982342 64.404 0.460577 64.9157 0.450346 65.5501Z" fill="#BDBDBD"/>
<path d="M83.1325 75.752C83.1222 76.3864 83.6338 76.9082 84.2681 76.9184C84.9024 76.9287 85.4241 76.4171 85.4343 75.7826C85.4445 75.1482 84.933 74.6264 84.2988 74.6161C83.6645 74.6059 83.1427 75.1175 83.1325 75.752Z" fill="#BDBDBD"/>
<path d="M72.7895 75.6292C72.7792 76.2636 73.2907 76.7855 73.925 76.7957C74.5593 76.8059 75.0811 76.2943 75.0913 75.6599C75.1015 75.0255 74.59 74.5036 73.9557 74.4934C73.3112 74.4831 72.7997 74.9948 72.7895 75.6292Z" fill="#BDBDBD"/>
<path d="M62.4364 75.4962C62.4262 76.1306 62.9377 76.6525 63.572 76.6627C64.2063 76.6729 64.728 76.1613 64.7383 75.5269C64.7485 74.8925 64.237 74.3706 63.6027 74.3604C62.9684 74.3604 62.4467 74.872 62.4364 75.4962Z" fill="#BDBDBD"/>
<path d="M52.0834 75.3734C52.0732 76.0078 52.5847 76.5297 53.219 76.5399C53.8532 76.5501 54.375 76.0385 54.3852 75.4041C54.3955 74.7697 53.884 74.2478 53.2497 74.2376C52.6154 74.2273 52.0936 74.739 52.0834 75.3734Z" fill="#BDBDBD"/>
<path d="M41.7404 75.2506C41.7302 75.885 42.2417 76.4069 42.8759 76.4171C43.5102 76.4273 44.032 75.9157 44.0422 75.2813C44.0525 74.6469 43.5409 74.125 42.9067 74.1148C42.2622 74.1045 41.7404 74.6162 41.7404 75.2506Z" fill="#BDBDBD"/>
<path d="M31.3871 75.1278C31.3769 75.7622 31.8884 76.2841 32.5227 76.2943C33.157 76.3045 33.6787 75.7929 33.689 75.1585C33.6992 74.5241 33.1877 74.0022 32.5534 73.992C31.9191 73.9817 31.3973 74.4934 31.3871 75.1278Z" fill="#BDBDBD"/>
<path d="M21.0338 75.005C21.0236 75.6394 21.5351 76.1613 22.1694 76.1715C22.8037 76.1817 23.3255 75.6701 23.3357 75.0357C23.3459 74.4012 22.8344 73.8794 22.2001 73.8692C21.5658 73.8589 21.0441 74.3706 21.0338 75.005Z" fill="#BDBDBD"/>
<path d="M10.6911 74.8822C10.6808 75.5166 11.1923 76.0385 11.8266 76.0487C12.4609 76.0589 12.9827 75.5473 12.9929 74.9129C13.0031 74.2785 12.4916 73.7566 11.8573 73.7464C11.2128 73.7361 10.6911 74.2376 10.6911 74.8822Z" fill="#BDBDBD"/>
<path d="M0.338041 74.7492C0.327811 75.3836 0.839316 75.9055 1.4736 75.9157C2.10788 75.9259 2.62965 75.4143 2.63988 74.7799C2.65011 74.1454 2.13857 73.6236 1.50429 73.6134C0.870006 73.6031 0.348272 74.1148 0.338041 74.7492Z" fill="#BDBDBD"/>
<path d="M83.0302 84.951C83.0199 85.5854 83.5315 86.1073 84.1657 86.1175C84.8 86.1278 85.3218 85.6161 85.332 84.9817C85.3422 84.3473 84.8307 83.8254 84.1965 83.8152C83.5519 83.805 83.0302 84.3166 83.0302 84.951Z" fill="#BDBDBD"/>
<path d="M72.6769 84.8282C72.6667 85.4627 73.1782 85.9845 73.8125 85.9947C74.4468 86.005 74.9685 85.4934 74.9787 84.8589C74.989 84.2245 74.4775 83.7026 73.8432 83.6924C73.2089 83.6822 72.6871 84.1938 72.6769 84.8282Z" fill="#BDBDBD"/>
<path d="M62.3239 84.7054C62.3137 85.3399 62.8252 85.8617 63.4594 85.8719C64.0937 85.8822 64.6155 85.3706 64.6257 84.7361C64.636 84.1017 64.1244 83.5798 63.4902 83.5696C62.8559 83.5594 62.3341 84.071 62.3239 84.7054Z" fill="#BDBDBD"/>
<path d="M51.9811 84.5827C51.9709 85.2171 52.4824 85.739 53.1167 85.7492C53.751 85.7594 54.2727 85.2478 54.2829 84.6134C54.2932 83.979 53.7816 83.4571 53.1473 83.4469C52.5028 83.4366 51.9811 83.9483 51.9811 84.5827Z" fill="#BDBDBD"/>
<path d="M41.6278 84.4496C41.6176 85.084 42.1291 85.6059 42.7634 85.6161C43.3977 85.6263 43.9194 85.1147 43.9297 84.4803C43.9399 83.8459 43.4283 83.324 42.7941 83.3138C42.1495 83.3138 41.6381 83.8152 41.6278 84.4496Z" fill="#BDBDBD"/>
<path d="M31.2746 84.3268C31.2643 84.9613 31.7758 85.4831 32.4101 85.4933C33.0444 85.5036 33.5662 84.992 33.5764 84.3575C33.5866 83.7231 33.0751 83.2012 32.4408 83.191C31.8065 83.1808 31.2848 83.6924 31.2746 84.3268Z" fill="#BDBDBD"/>
<path d="M20.9213 84.204C20.9111 84.8384 21.4226 85.3603 22.0569 85.3705C22.6911 85.3808 23.2129 84.8691 23.2231 84.2347C23.2334 83.6003 22.7218 83.0784 22.0875 83.0682C21.4533 83.058 20.9315 83.5696 20.9213 84.204Z" fill="#BDBDBD"/>
<path d="M10.5785 84.0813C10.5683 84.7157 11.0798 85.2376 11.7141 85.2478C12.3484 85.258 12.8701 84.7464 12.8804 84.112C12.8906 83.4775 12.3791 82.9557 11.7448 82.9455C11.1105 82.9352 10.5888 83.4468 10.5785 84.0813Z" fill="#BDBDBD"/>
<path d="M0.225493 83.9585C0.215262 84.5929 0.726798 85.1148 1.36108 85.125C1.99537 85.1352 2.5171 84.6236 2.52733 83.9892C2.53756 83.3547 2.02606 82.8329 1.39177 82.8227C0.757488 82.8124 0.235723 83.3138 0.225493 83.9585Z" fill="#BDBDBD"/>
<path d="M82.9176 94.1501C82.9074 94.7846 83.4189 95.3064 84.0532 95.3167C84.6875 95.3269 85.2092 94.8153 85.2195 94.1808C85.2297 93.5464 84.7182 93.0246 84.0839 93.0143C83.4394 93.0143 82.9176 93.5157 82.9176 94.1501Z" fill="#BDBDBD"/>
<path d="M72.5646 94.0274C72.5544 94.6618 73.0659 95.1837 73.7002 95.1939C74.3344 95.2041 74.8562 94.6925 74.8664 94.0581C74.8767 93.4236 74.3652 92.9018 73.7309 92.8916C73.0966 92.8813 72.5748 93.393 72.5646 94.0274Z" fill="#BDBDBD"/>
<path d="M62.2113 93.9046C62.2011 94.539 62.7126 95.0609 63.3469 95.0711C63.9812 95.0813 64.5029 94.5697 64.5132 93.9353C64.5234 93.3008 64.0118 92.779 63.3776 92.7688C62.7433 92.7585 62.2216 93.2701 62.2113 93.9046Z" fill="#BDBDBD"/>
<path d="M51.8683 93.7817C51.8581 94.4162 52.3697 94.938 53.0039 94.9482C53.6382 94.9585 54.1599 94.4469 54.1702 93.8124C54.1804 93.178 53.6689 92.6561 53.0346 92.6459C52.3901 92.6357 51.8683 93.1473 51.8683 93.7817Z" fill="#BDBDBD"/>
<path d="M41.5153 93.659C41.5051 94.2934 42.0166 94.8153 42.6509 94.8255C43.2852 94.8357 43.8069 94.3241 43.8171 93.6897C43.8274 93.0553 43.3159 92.5334 42.6816 92.5232C42.0473 92.5129 41.5255 93.0143 41.5153 93.659Z" fill="#BDBDBD"/>
<path d="M31.162 93.5259C31.1518 94.1604 31.6634 94.6822 32.2976 94.6924C32.9319 94.7027 33.4536 94.1911 33.4639 93.5566C33.4741 92.9222 32.9626 92.4003 32.3283 92.3901C31.694 92.3799 31.1722 92.8915 31.162 93.5259Z" fill="#BDBDBD"/>
<path d="M20.819 93.4031C20.8088 94.0376 21.3203 94.5594 21.9546 94.5696C22.5889 94.5799 23.1106 94.0683 23.1208 93.4338C23.1311 92.7994 22.6196 92.2775 21.9853 92.2673C21.3408 92.2571 20.819 92.7687 20.819 93.4031Z" fill="#BDBDBD"/>
<path d="M10.4657 93.2803C10.4555 93.9148 10.967 94.4366 11.6013 94.4468C12.2356 94.4571 12.7573 93.9454 12.7676 93.311C12.7778 92.6766 12.2663 92.1547 11.632 92.1445C10.9977 92.1343 10.476 92.6459 10.4657 93.2803Z" fill="#BDBDBD"/>
<path d="M0.1127 93.1576C0.102469 93.792 0.613974 94.3139 1.24826 94.3241C1.88254 94.3343 2.40431 93.8227 2.41454 93.1883C2.42477 92.5538 1.91323 92.032 1.27895 92.0218C0.644664 92.0115 0.12293 92.5231 0.1127 93.1576Z" fill="#BDBDBD"/>
<path d="M82.8051 103.359C82.7949 103.994 83.3064 104.516 83.9406 104.526C84.5749 104.526 85.0967 104.025 85.1069 103.39C85.1172 102.756 84.6056 102.234 83.9713 102.224C83.3268 102.213 82.8153 102.725 82.8051 103.359Z" fill="#BDBDBD"/>
<path d="M72.4521 103.237C72.4418 103.871 72.9533 104.393 73.5876 104.403C74.2219 104.413 74.7437 103.902 74.7539 103.267C74.7641 102.633 74.2526 102.111 73.6183 102.101C72.984 102.091 72.4623 102.602 72.4521 103.237Z" fill="#BDBDBD"/>
<path d="M62.0988 103.104C62.0886 103.738 62.6001 104.26 63.2344 104.27C63.8687 104.28 64.3904 103.769 64.4006 103.134C64.4109 102.5 63.8993 101.978 63.2651 101.968C62.6308 101.968 62.109 102.469 62.0988 103.104Z" fill="#BDBDBD"/>
<path d="M51.7558 102.981C51.7455 103.615 52.257 104.137 52.8913 104.147C53.5256 104.158 54.0474 103.646 54.0576 103.012C54.0678 102.377 53.5563 101.855 52.922 101.845C52.2878 101.835 51.766 102.346 51.7558 102.981Z" fill="#BDBDBD"/>
<path d="M41.4027 102.858C41.3925 103.492 41.904 104.014 42.5383 104.025C43.1726 104.035 43.6943 103.523 43.7046 102.889C43.7148 102.254 43.2033 101.732 42.569 101.722C41.9347 101.712 41.413 102.224 41.4027 102.858Z" fill="#BDBDBD"/>
<path d="M31.0597 102.735C31.0495 103.37 31.561 103.892 32.1953 103.902C32.8296 103.912 33.3513 103.4 33.3616 102.766C33.3718 102.132 32.8603 101.61 32.226 101.599C31.5815 101.589 31.0597 102.101 31.0597 102.735Z" fill="#BDBDBD"/>
<path d="M20.7067 102.602C20.6965 103.237 21.208 103.759 21.8423 103.769C22.4765 103.779 22.9983 103.267 23.0085 102.633C23.0188 101.999 22.5072 101.477 21.8729 101.466C21.2284 101.466 20.7169 101.968 20.7067 102.602Z" fill="#BDBDBD"/>
<path d="M10.3532 102.479C10.3429 103.114 10.8545 103.636 11.4888 103.646C12.1231 103.656 12.6448 103.145 12.655 102.51C12.6652 101.876 12.1537 101.354 11.5195 101.344C10.8852 101.333 10.3634 101.845 10.3532 102.479Z" fill="#BDBDBD"/>
<path d="M0.00015082 102.357C-0.0100796 102.991 0.501456 103.513 1.13574 103.523C1.77003 103.533 2.29176 103.022 2.30199 102.387C2.31222 101.753 1.80072 101.231 1.16643 101.221C0.532146 101.211 0.0103812 101.722 0.00015082 102.357Z" fill="#BDBDBD"/>
</svg>
